SplineFontDB: 3.2
FontName: ATM402-Regular
FullName: ATM402-Regular
FamilyName: ATM 402
Weight: Book
Copyright: AzhaguThamizh
Version: 1.001
ItalicAngle: -11
UnderlinePosition: -271
UnderlineWidth: 102
Ascent: 1600
Descent: 400
InvalidEm: 0
sfntRevision: 0x00010042
LayerCount: 2
Layer: 0 1 "Back" 1
Layer: 1 1 "Fore" 0
XUID: [1021 192 2086997156 10506]
StyleMap: 0x0040
FSType: 8
OS2Version: 3
OS2_WeightWidthSlopeOnly: 0
OS2_UseTypoMetrics: 0
CreationTime: 1536984727
ModificationTime: 1545654492
PfmFamily: 17
TTFWeight: 400
TTFWidth: 5
LineGap: 0
VLineGap: 0
Panose: 2 11 6 4 2 2 2 2 2 4
OS2TypoAscent: 2000
OS2TypoAOffset: 0
OS2TypoDescent: -1320
OS2TypoDOffset: 0
OS2TypoLinegap: 0
OS2WinAscent: 2000
OS2WinAOffset: 0
OS2WinDescent: 744
OS2WinDOffset: 0
HheadAscent: 2000
HheadAOffset: 0
HheadDescent: -1320
HheadDOffset: 0
OS2SubXSize: 1400
OS2SubYSize: 1300
OS2SubXOff: 0
OS2SubYOff: 0
OS2SupXSize: 1400
OS2SupYSize: 1300
OS2SupXOff: 0
OS2SupYOff: 0
OS2StrikeYSize: 100
OS2StrikeYPos: 518
OS2CapHeight: 1586
OS2XHeight: -200
OS2Vendor: '    '
OS2CodePages: 00000001.00000000
OS2UnicodeRanges: 00100003.00000000.00000000.00000000
Lookup: 4 0 0 "'akhn' Akhand in Tamil2 lookup 0" { "'akhn' Akhand in Tamil2 lookup 0 subtable"  } ['akhn' ('tml2' <'dflt' > ) ]
Lookup: 4 0 0 "'akhn' Akhand in Tamil lookup 1" { "'akhn' Akhand in Tamil lookup 1 subtable"  } ['akhn' ('taml' <'dflt' > ) ]
Lookup: 4 0 0 "'half' Half Forms in Tamil lookup 2" { "'half' Half Forms in Tamil lookup 2 subtable"  } ['half' ('taml' <'dflt' > ) ]
Lookup: 4 0 0 "'haln' Halant Forms in Tamil2 lookup 3" { "'haln' Halant Forms in Tamil2 lookup 3 subtable"  } ['haln' ('tml2' <'dflt' > ) ]
Lookup: 4 0 0 "'haln' Halant Forms in Tamil lookup 4" { "'haln' Halant Forms in Tamil lookup 4 subtable"  } ['haln' ('taml' <'dflt' > ) ]
Lookup: 4 0 0 "'abvs' Above Base Substitutions lookup 5" { "'abvs' Above Base Substitutions lookup 5 subtable"  } ['abvs' ('taml' <'dflt' > 'tml2' <'dflt' > ) ]

StartChar: .notdef
Encoding: 65536 -1 0
Width: 1600
Flags: W
LayerCount: 2
Fore
SplineSet
100 0 m 1,0,-1
 100 1600 l 1,1,-1
 1500 1600 l 1,2,-1
 1500 0 l 1,3,-1
 100 0 l 1,0,-1
1400 100 m 1,4,-1
 1400 1500 l 1,5,-1
 200 1500 l 1,6,-1
 200 100 l 1,7,-1
 1400 100 l 1,4,-1
EndSplineSet
EndChar

StartChar: exclam
Encoding: 33 33 4
Width: 440
GlyphClass: 2
Flags: W
LayerCount: 2
Fore
SplineSet
634 830 m 0,0,1
 634 812 634 812 496 542 c 0,2,3
 430 414 430 414 383 327 c 128,-1,4
 336 240 336 240 312 202 c 1,5,6
 312 252 312 252 329 377 c 128,-1,7
 346 502 346 502 354 568 c 0,8,9
 384 798 384 798 396 842 c 1,10,11
 400 876 400 876 431 898 c 128,-1,12
 462 920 462 920 500 920 c 0,13,14
 522 920 522 920 544 914 c 128,-1,15
 566 908 566 908 590 892 c 0,16,17
 634 868 634 868 634 830 c 0,0,1
388 -94 m 1,18,19
 294 -144 294 -144 256 -144 c 0,20,21
 196 -144 196 -144 160 -100 c 0,22,23
 134 -66 134 -66 134 18 c 1,24,-1
 310 100 l 1,25,26
 304 82 304 82 300 48 c 1,27,28
 300 -50 300 -50 388 -94 c 1,18,19
EndSplineSet
EndChar

StartChar: quotedbl
Encoding: 34 34 5
Width: 638
GlyphClass: 2
Flags: W
LayerCount: 2
Fore
SplineSet
304 828 m 1,0,-1
 312 1076 l 1,1,-1
 358 1286 l 1,2,-1
 538 1278 l 1,3,-1
 492 1068 l 1,4,-1
 402 824 l 1,5,-1
 304 828 l 1,0,-1
596 818 m 1,6,-1
 604 1064 l 1,7,-1
 650 1274 l 1,8,-1
 830 1268 l 1,9,-1
 784 1058 l 1,10,-1
 690 814 l 1,11,-1
 596 818 l 1,6,-1
EndSplineSet
EndChar

StartChar: numbersign
Encoding: 35 35 6
Width: 1000
GlyphClass: 2
Flags: W
LayerCount: 2
Fore
SplineSet
86 -26 m 1,0,-1
 244 346 l 1,1,-1
 94 352 l 1,2,-1
 122 484 l 1,3,-1
 296 478 l 1,4,-1
 432 792 l 1,5,-1
 190 802 l 1,6,-1
 218 934 l 1,7,-1
 484 924 l 1,8,-1
 642 1298 l 1,9,-1
 774 1292 l 1,10,-1
 616 920 l 1,11,-1
 892 910 l 1,12,-1
 1050 1282 l 1,13,-1
 1182 1278 l 1,14,-1
 1026 904 l 1,15,-1
 1178 900 l 1,16,-1
 1150 768 l 1,17,-1
 972 774 l 1,18,-1
 838 458 l 1,19,-1
 1082 450 l 1,20,-1
 1054 318 l 1,21,-1
 784 328 l 1,22,-1
 628 -44 l 1,23,-1
 494 -40 l 1,24,-1
 650 332 l 1,25,-1
 374 342 l 1,26,-1
 220 -30 l 1,27,-1
 86 -26 l 1,0,-1
430 472 m 1,28,-1
 706 462 l 1,29,-1
 840 778 l 1,30,-1
 562 788 l 1,31,-1
 430 472 l 1,28,-1
EndSplineSet
EndChar

StartChar: dollar
Encoding: 36 36 7
Width: 1000
GlyphClass: 2
Flags: W
LayerCount: 2
Fore
SplineSet
408 -202 m 1,0,-1
 442 -42 l 1,1,2
 332 -28 332 -28 266 11 c 128,-1,3
 200 50 200 50 158 146 c 0,4,5
 148 174 148 174 142 209 c 128,-1,6
 136 244 136 244 136 288 c 0,7,8
 136 304 136 304 136 320 c 0,9,10
 140 344 140 344 140 356 c 1,11,-1
 306 378 l 1,12,13
 306 336 306 336 306 296 c 0,14,15
 310 232 310 232 330 190 c 1,16,17
 380 108 380 108 470 90 c 1,18,-1
 578 594 l 1,19,20
 542 602 542 602 536 604 c 0,21,22
 510 612 510 612 488 624 c 0,23,24
 448 640 448 640 393 677 c 128,-1,25
 338 714 338 714 304 798 c 0,26,27
 300 812 300 812 296 838 c 128,-1,28
 292 864 292 864 290 878 c 0,29,30
 290 912 290 912 292 926 c 128,-1,31
 294 940 294 940 300 968 c 0,32,33
 336 1134 336 1134 476 1238 c 0,34,35
 522 1268 522 1268 586 1288 c 128,-1,36
 650 1308 650 1308 732 1316 c 1,37,-1
 748 1392 l 1,38,-1
 842 1388 l 1,39,-1
 826 1312 l 1,40,41
 884 1312 884 1312 940 1286 c 0,42,43
 986 1268 986 1268 1026 1225 c 128,-1,44
 1066 1182 1066 1182 1084 1120 c 128,-1,45
 1102 1058 1102 1058 1102 982 c 1,46,-1
 934 964 l 1,47,48
 934 1010 934 1010 928 1046 c 128,-1,49
 922 1082 922 1082 904 1106 c 0,50,51
 874 1158 874 1158 798 1178 c 1,52,-1
 700 722 l 1,53,54
 826 688 826 688 848 670 c 1,55,56
 916 638 916 638 951 590 c 128,-1,57
 986 542 986 542 998 472 c 0,58,59
 1002 456 1002 456 1002 422 c 0,60,61
 1002 396 1002 396 1002 370 c 1,62,63
 996 346 996 346 994 336 c 0,64,65
 962 172 962 172 832 64 c 0,66,67
 770 8 770 8 692 -19 c 128,-1,68
 614 -46 614 -46 536 -46 c 1,69,-1
 502 -206 l 1,70,-1
 408 -202 l 1,0,-1
704 1184 m 1,71,72
 658 1184 658 1184 619 1166 c 128,-1,73
 580 1148 580 1148 542 1114 c 0,74,75
 480 1062 480 1062 460 976 c 0,76,77
 454 948 454 948 454 924 c 0,78,79
 454 878 454 878 476 838 c 0,80,81
 508 782 508 782 610 746 c 1,82,-1
 704 1184 l 1,71,72
564 86 m 1,83,84
 662 96 662 96 736 162 c 128,-1,85
 810 228 810 228 830 330 c 0,86,87
 832 344 832 344 835 358 c 128,-1,88
 838 372 838 372 838 390 c 0,89,90
 838 428 838 428 814 472 c 128,-1,91
 790 516 790 516 668 568 c 1,92,-1
 564 86 l 1,83,84
EndSplineSet
EndChar

StartChar: percent
Encoding: 37 37 8
Width: 1600
GlyphClass: 2
Flags: W
LayerCount: 2
Fore
SplineSet
314 976 m 0,0,1
 342 1112 342 1112 431 1204 c 128,-1,2
 520 1296 520 1296 654 1296 c 0,3,4
 772 1296 772 1296 836 1202 c 0,5,6
 876 1140 876 1140 876 1050 c 0,7,8
 876 1004 876 1004 864 946 c 0,9,10
 830 790 830 790 728 698 c 0,11,12
 634 616 634 616 510 616 c 0,13,14
 398 616 398 616 336 710 c 0,15,16
 324 728 324 728 314 760 c 128,-1,17
 304 792 304 792 300 820 c 1,18,19
 300 864 300 864 303 897 c 128,-1,20
 306 930 306 930 314 976 c 0,0,1
636 1186 m 0,21,22
 574 1186 574 1186 526 1141 c 128,-1,23
 478 1096 478 1096 448 954 c 0,24,25
 436 896 436 896 436 854 c 0,26,27
 436 808 436 808 448 778 c 1,28,29
 478 730 478 730 538 724 c 1,30,31
 602 724 602 724 646 774 c 1,32,33
 696 824 696 824 726 958 c 0,34,35
 740 1012 740 1012 740 1060 c 0,36,37
 740 1100 740 1100 724 1132 c 0,38,39
 696 1186 696 1186 636 1186 c 0,21,22
370 -60 m 1,40,-1
 1366 1272 l 1,41,-1
 1494 1268 l 1,42,-1
 502 -64 l 1,43,-1
 370 -60 l 1,40,-1
1002 270 m 0,44,45
 1016 338 1016 338 1046 396 c 128,-1,46
 1076 454 1076 454 1119 500 c 128,-1,47
 1162 546 1162 546 1220 569 c 128,-1,48
 1278 592 1278 592 1346 592 c 0,49,50
 1404 592 1404 592 1449 568 c 128,-1,51
 1494 544 1494 544 1530 493 c 128,-1,52
 1566 442 1566 442 1566 356 c 0,53,54
 1566 322 1566 322 1564 303 c 128,-1,55
 1562 284 1562 284 1552 242 c 0,56,57
 1518 80 1518 80 1420 -4 c 128,-1,58
 1322 -88 1322 -88 1200 -88 c 0,59,60
 1088 -88 1088 -88 1024 4 c 0,61,62
 996 46 996 46 992 85 c 128,-1,63
 988 124 988 124 988 148 c 0,64,65
 988 176 988 176 993 213 c 128,-1,66
 998 250 998 250 1002 270 c 0,44,45
1326 484 m 1,67,68
 1264 484 1264 484 1218 436 c 0,69,70
 1172 392 1172 392 1138 248 c 0,71,72
 1132 218 1132 218 1128 192 c 128,-1,73
 1124 166 1124 166 1124 144 c 0,74,75
 1124 126 1124 126 1128 107 c 128,-1,76
 1132 88 1132 88 1138 72 c 0,77,78
 1170 20 1170 20 1228 20 c 0,79,80
 1290 20 1290 20 1337 67 c 128,-1,81
 1384 114 1384 114 1416 250 c 0,82,83
 1422 280 1422 280 1426 306 c 128,-1,84
 1430 332 1430 332 1430 354 c 0,85,86
 1430 400 1430 400 1412 428 c 0,87,88
 1386 478 1386 478 1326 484 c 1,67,68
EndSplineSet
EndChar

StartChar: ampersand
Encoding: 38 38 9
Width: 1200
GlyphClass: 2
Flags: W
LayerCount: 2
Fore
SplineSet
886 122 m 1,0,1
 792 36 792 36 688 -2 c 0,2,3
 638 -24 638 -24 589 -32 c 128,-1,4
 540 -40 540 -40 482 -40 c 0,5,6
 382 -40 382 -40 310 -2 c 128,-1,7
 238 36 238 36 192 112 c 128,-1,8
 146 188 146 188 146 278 c 0,9,10
 146 300 146 300 146 322 c 1,11,12
 152 344 152 344 154 352 c 0,13,14
 178 470 178 470 274 564 c 0,15,16
 324 614 324 614 389 653 c 128,-1,17
 454 692 454 692 542 726 c 1,18,19
 480 826 480 826 460 888 c 1,20,21
 454 924 454 924 454 958 c 0,22,23
 454 972 454 972 454 986 c 0,24,25
 458 1006 458 1006 458 1014 c 0,26,27
 486 1132 486 1132 589 1211 c 128,-1,28
 692 1290 692 1290 840 1290 c 0,29,30
 962 1290 962 1290 1034 1202 c 0,31,32
 1086 1140 1086 1140 1086 1066 c 0,33,34
 1086 1048 1086 1048 1086 1030 c 1,35,36
 1080 1012 1080 1012 1078 1004 c 0,37,38
 1038 820 1038 820 770 700 c 1,39,-1
 938 396 l 1,40,41
 990 472 990 472 1038 574 c 1,42,-1
 1194 532 l 1,43,44
 1118 370 1118 370 1020 260 c 1,45,46
 1050 204 1050 204 1091 152 c 128,-1,47
 1132 100 1132 100 1180 56 c 1,48,-1
 1046 -66 l 1,49,50
 964 -4 964 -4 886 122 c 1,0,1
708 806 m 1,51,52
 762 830 762 830 801 856 c 128,-1,53
 840 882 840 882 862 904 c 0,54,55
 904 948 904 948 916 1008 c 0,56,57
 920 1022 920 1022 920 1046 c 0,58,59
 920 1086 920 1086 900 1114 c 0,60,61
 866 1160 866 1160 802 1160 c 0,62,63
 768 1160 768 1160 743 1153 c 128,-1,64
 718 1146 718 1146 690 1124 c 0,65,66
 638 1084 638 1084 624 1024 c 1,67,-1
 620 996 l 2,68,69
 618 988 618 988 624 967 c 128,-1,70
 630 946 630 946 636 928 c 2,71,-1
 656 890 l 1,72,-1
 708 806 l 1,51,52
816 252 m 1,73,-1
 602 622 l 1,74,75
 454 544 454 544 400 484 c 0,76,77
 370 452 370 452 353 422 c 128,-1,78
 336 392 336 392 326 358 c 1,79,80
 322 330 322 330 322 314 c 0,81,82
 322 254 322 254 354 192 c 0,83,84
 400 98 400 98 512 98 c 0,85,86
 582 98 582 98 667 138 c 128,-1,87
 752 178 752 178 816 252 c 1,73,-1
EndSplineSet
EndChar

StartChar: quotesingle
Encoding: 39 39 10
Width: 382
GlyphClass: 2
Flags: W
LayerCount: 2
Fore
SplineSet
132 924 m 1,0,-1
 88 1192 l 1,1,-1
 88 1432 l 1,2,-1
 288 1432 l 1,3,-1
 288 1192 l 1,4,-1
 242 924 l 1,5,-1
 132 924 l 1,0,-1
EndSplineSet
EndChar

StartChar: parenleft
Encoding: 40 40 11
Width: 600
GlyphClass: 2
Flags: W
LayerCount: 2
Fore
SplineSet
926 924 m 1,0,1
 852 870 852 870 796 818 c 0,2,3
 656 696 656 696 604 616 c 2,4,-1
 484 418 l 1,5,6
 456 354 456 354 440 273 c 128,-1,7
 424 192 424 192 424 90 c 0,8,9
 424 8 424 8 493 -55 c 128,-1,10
 562 -118 562 -118 706 -162 c 1,11,12
 496 -162 496 -162 366 -94 c 0,13,14
 210 -12 210 -12 210 166 c 0,15,16
 210 294 210 294 291 466 c 128,-1,17
 372 638 372 638 508 754 c 0,18,19
 714 924 714 924 926 924 c 1,0,1
EndSplineSet
EndChar

StartChar: parenright
Encoding: 41 41 12
Width: 660
GlyphClass: 2
Flags: W
LayerCount: 2
Fore
SplineSet
716 630 m 0,0,1
 716 502 716 502 638 334 c 0,2,3
 554 158 554 158 418 42 c 0,4,5
 212 -128 212 -128 -2 -128 c 1,6,7
 24 -108 24 -108 50 -90 c 0,8,9
 84 -64 84 -64 130 -22 c 0,10,11
 274 100 274 100 322 180 c 2,12,-1
 440 378 l 1,13,14
 466 438 466 438 484 524 c 128,-1,15
 502 610 502 610 502 706 c 0,16,17
 502 788 502 788 433 851 c 128,-1,18
 364 914 364 914 220 958 c 1,19,20
 430 958 430 958 560 890 c 0,21,22
 716 808 716 808 716 630 c 0,0,1
EndSplineSet
EndChar

StartChar: asterisk
Encoding: 42 42 13
Width: 778
GlyphClass: 2
Flags: W
LayerCount: 2
Fore
SplineSet
62 1168 m 1,0,-1
 108 1308 l 1,1,2
 254 1258 254 1258 334 1212 c 1,3,-1
 314 1456 l 1,4,-1
 456 1456 l 1,5,-1
 456 1388 l 1,6,-1
 448 1342 l 1,7,-1
 432 1214 l 1,8,-1
 534 1260 l 1,9,-1
 664 1308 l 1,10,-1
 708 1168 l 1,11,12
 586 1132 586 1132 464 1114 c 1,13,14
 530 1058 530 1058 632 930 c 1,15,-1
 516 846 l 1,16,17
 466 912 466 912 382 1056 c 1,18,19
 308 916 308 916 254 846 c 1,20,-1
 140 930 l 1,21,22
 200 1004 200 1004 232 1040 c 128,-1,23
 264 1076 264 1076 302 1114 c 1,24,25
 176 1138 176 1138 62 1168 c 1,0,-1
EndSplineSet
EndChar

StartChar: plus
Encoding: 43 43 14
Width: 1052
GlyphClass: 2
Flags: W
LayerCount: 2
Fore
SplineSet
494 192 m 1,0,-1
 570 546 l 1,1,-1
 220 558 l 1,2,-1
 252 706 l 1,3,-1
 602 694 l 1,4,-1
 676 1044 l 1,5,-1
 826 1038 l 1,6,-1
 752 688 l 1,7,-1
 1102 676 l 1,8,-1
 1070 528 l 1,9,-1
 720 540 l 1,10,-1
 644 186 l 1,11,-1
 494 192 l 1,0,-1
EndSplineSet
EndChar

StartChar: comma
Encoding: 44 44 15
Width: 620
GlyphClass: 2
Flags: W
LayerCount: 2
Fore
SplineSet
450 130 m 0,0,1
 450 42 450 42 360 -42 c 0,2,3
 316 -82 316 -82 279 -102 c 128,-1,4
 242 -122 242 -122 206 -122 c 0,5,6
 164 -122 164 -122 124 -102 c 1,7,-1
 194 -76 l 1,8,9
 240 -50 240 -50 268 8 c 1,10,-1
 234 6 l 1,11,12
 120 24 120 24 120 112 c 0,13,14
 120 280 120 280 290 280 c 0,15,16
 360 280 360 280 405 237 c 128,-1,17
 450 194 450 194 450 130 c 0,0,1
EndSplineSet
EndChar

StartChar: hyphen
Encoding: 45 45 16
Width: 666
GlyphClass: 2
Flags: W
LayerCount: 2
Fore
SplineSet
64 430 m 1,0,-1
 64 606 l 1,1,-1
 604 606 l 1,2,-1
 604 430 l 1,3,-1
 64 430 l 1,0,-1
EndSplineSet
EndChar

StartChar: period
Encoding: 46 46 17
Width: 610
GlyphClass: 2
Flags: W
LayerCount: 2
Fore
SplineSet
452 156 m 0,0,1
 452 86 452 86 398 42 c 128,-1,2
 344 -2 344 -2 268 -2 c 0,3,4
 126 -2 126 -2 126 140 c 0,5,6
 126 206 126 206 178 254 c 0,7,8
 202 276 202 276 230 288 c 128,-1,9
 258 300 258 300 294 300 c 0,10,11
 358 300 358 300 405 260 c 128,-1,12
 452 220 452 220 452 156 c 0,0,1
EndSplineSet
EndChar

StartChar: slash
Encoding: 47 47 18
Width: 688
GlyphClass: 2
Flags: W
LayerCount: 2
Fore
SplineSet
818 1036 m 1,0,-1
 78 -228 l 1,1,2
 8 -194 8 -194 8 -142 c 0,3,4
 8 -116 8 -116 24 -78 c 0,5,6
 48 -18 48 -18 342 498 c 0,7,8
 654 1054 654 1054 740 1154 c 1,9,10
 824 1118 824 1118 824 1062 c 1,11,-1
 818 1036 l 1,0,-1
EndSplineSet
EndChar

StartChar: zero
Encoding: 48 48 19
Width: 884
GlyphClass: 2
Flags: W
LayerCount: 2
Fore
SplineSet
1019 592 m 0,0,1
 1019 554 1019 554 996.5 496.5 c 128,-1,2
 974 439 974 439 929 365 c 0,3,4
 837 215 837 215 714 119 c 0,5,6
 568 0 568 0 437 0 c 0,7,8
 326 0 326 0 249 65 c 0,9,10
 173 130 173 130 173 236 c 0,11,12
 173 337 173 337 237 442 c 0,13,14
 251 464 251 464 283.5 505 c 128,-1,15
 316 546 316 546 371 607 c 0,16,17
 450 700 450 700 554 756 c 0,18,19
 659 811 659 811 738 811 c 0,20,21
 854 811 854 811 937 753 c 0,22,23
 1019 693 1019 693 1019 592 c 0,0,1
658 320 m 0,24,25
 829 548 829 548 834 640 c 1,26,27
 846 716 846 716 771 716 c 0,28,29
 723 716 723 716 649.5 649.5 c 128,-1,30
 576 583 576 583 479 447 c 0,31,32
 415 360 415 360 381.5 288.5 c 128,-1,33
 348 217 348 217 342 160 c 0,34,35
 342 147 342 147 345.5 135 c 128,-1,36
 349 123 349 123 354 110 c 0,37,38
 362 100 362 100 372.5 94 c 128,-1,39
 383 88 383 88 397 87 c 0,40,41
 481 87 481 87 658 320 c 0,24,25
EndSplineSet
EndChar

StartChar: one
Encoding: 49 49 20
Width: 523
GlyphClass: 2
Flags: W
LayerCount: 2
Fore
SplineSet
504 381 m 2,0,1
 475 333 475 333 441 274 c 128,-1,2
 407 215 407 215 370 149 c 2,3,-1
 286 3 l 1,4,-1
 191 44 l 1,5,-1
 192 44 l 1,6,7
 123 78 123 78 123 119 c 0,8,9
 123 159 123 159 257 369 c 0,10,11
 326 477 326 477 361 536 c 128,-1,12
 396 595 396 595 397 609 c 1,13,-1
 311 609 l 1,14,15
 270 621 270 621 270 653 c 256,16,17
 270 685 270 685 292 703 c 1,18,19
 311 698 311 698 327 695.5 c 128,-1,20
 343 693 343 693 353 693 c 0,21,22
 413 693 413 693 455 726.5 c 128,-1,23
 497 760 497 760 518 821 c 1,24,25
 540 820 540 820 565.5 813 c 128,-1,26
 591 806 591 806 626 792 c 0,27,28
 658 779 658 779 682 763.5 c 128,-1,29
 706 748 706 748 717 732 c 1,30,-1
 504 381 l 2,0,1
EndSplineSet
EndChar

StartChar: two
Encoding: 50 50 21
Width: 942
GlyphClass: 2
Flags: W
LayerCount: 2
Fore
SplineSet
107 1 m 2,0,1
 105 1 105 1 104 0.5 c 128,-1,2
 103 0 103 0 101 0 c 2,3,-1
 109 -3 l 2,4,5
 109 -4 109 -4 109.5 -4 c 128,-1,6
 110 -4 110 -4 110 -3 c 2,7,-1
 107 1 l 2,0,1
1013 613 m 0,8,9
 1013 554 1013 554 951.5 481 c 128,-1,10
 890 408 890 408 767 317 c 0,11,12
 740 298 740 298 664 252.5 c 128,-1,13
 588 207 588 207 460 135 c 1,14,-1
 464 119 l 1,15,-1
 823 119 l 2,16,17
 932 119 932 119 932 61 c 1,18,-1
 933 63 l 2,19,20
 927 45 927 45 920 25.5 c 128,-1,21
 913 6 913 6 907 -12 c 1,22,23
 807 6 807 6 700 16 c 128,-1,24
 593 26 593 26 476 26 c 0,25,26
 366 26 366 26 279 20 c 0,27,28
 235 17 235 17 192 12.5 c 128,-1,29
 149 8 149 8 107 1 c 1,30,31
 98 17 98 17 92.5 34 c 128,-1,32
 87 51 87 51 85 63 c 0,33,34
 85 69 85 69 84.5 79.5 c 128,-1,35
 84 90 84 90 84 102 c 0,36,37
 84 150 84 150 97 180 c 1,38,39
 153 197 153 197 214 224.5 c 128,-1,40
 275 252 275 252 351 294 c 2,41,-1
 526 394 l 2,42,43
 559 413 559 413 606.5 445.5 c 128,-1,44
 654 478 654 478 708 522 c 0,45,46
 845 636 845 636 845 691 c 1,47,48
 803 720 803 720 743 720 c 0,49,50
 691 720 691 720 640 712 c 128,-1,51
 589 704 589 704 538 686 c 0,52,53
 489 669 489 669 458 650.5 c 128,-1,54
 427 632 427 632 413 606 c 1,55,56
 396 620 396 620 389.5 643 c 128,-1,57
 383 666 383 666 383 700 c 0,58,59
 383 713 383 713 385 723 c 128,-1,60
 387 733 387 733 390 741 c 0,61,62
 469 811 469 811 700 811 c 0,63,64
 800 811 800 811 878 784 c 0,65,66
 1013 737 1013 737 1013 613 c 0,8,9
EndSplineSet
EndChar

StartChar: three
Encoding: 51 51 22
Width: 955
GlyphClass: 2
Flags: W
LayerCount: 2
Fore
SplineSet
1098 702 m 1,0,-1
 814 562 l 1,1,-1
 818 547 l 1,2,-1
 858 550 l 1,3,4
 931 550 931 550 980 518 c 1,5,-1
 979 519 l 1,6,7
 1041 478 1041 478 1041 378 c 0,8,9
 1041 229 1041 229 787 83 c 0,10,11
 739 54 739 54 680.5 35.5 c 128,-1,12
 622 17 622 17 562 9 c 0,13,14
 546 7 546 7 525.5 6 c 128,-1,15
 505 5 505 5 488 4 c 0,16,17
 468 3 468 3 437.5 2.5 c 128,-1,18
 407 2 407 2 364 2 c 1,19,20
 323 12 323 12 284.5 39 c 128,-1,21
 246 66 246 66 214 105 c 1,22,23
 184 150 184 150 162.5 202 c 128,-1,24
 141 254 141 254 141 305 c 0,25,26
 141 311 141 311 146 319 c 128,-1,27
 151 327 151 327 159 334 c 0,28,29
 168 340 168 340 179.5 344.5 c 128,-1,30
 191 349 191 349 203 351 c 0,31,32
 211 351 211 351 218 350 c 128,-1,33
 225 349 225 349 233 345 c 1,34,35
 229 333 229 333 226 310 c 0,36,37
 226 245 226 245 261 180 c 0,38,39
 299 110 299 110 356 110 c 0,40,41
 492 110 492 110 677 236 c 0,42,43
 864 361 864 361 864 449 c 1,44,45
 848 459 848 459 817 459 c 0,46,47
 791 459 791 459 760 456 c 128,-1,48
 729 453 729 453 678 439 c 0,49,50
 600 418 600 418 559 388 c 1,51,52
 521 409 521 409 500.5 441.5 c 128,-1,53
 480 474 480 474 478 514 c 0,54,55
 480 524 480 524 480.5 536 c 128,-1,56
 481 548 481 548 483 558 c 1,57,58
 491 564 491 564 519.5 581.5 c 128,-1,59
 548 599 548 599 591 624 c 0,60,61
 636 649 636 649 674 668.5 c 128,-1,62
 712 688 712 688 740 701 c 1,63,-1
 736 716 l 1,64,-1
 288 716 l 1,65,66
 291 727 291 727 293.5 734.5 c 128,-1,67
 296 742 296 742 300 750 c 0,68,69
 321 796 321 796 351 809 c 1,70,-1
 1063 809 l 1,71,72
 1083 783 1083 783 1092 758.5 c 128,-1,73
 1101 734 1101 734 1102 714 c 1,74,-1
 1098 702 l 1,0,-1
EndSplineSet
EndChar

StartChar: four
Encoding: 52 52 23
Width: 895
GlyphClass: 2
Flags: W
LayerCount: 2
Fore
SplineSet
973 311 m 0,0,1
 973 263 973 263 938 263 c 2,2,-1
 750 263 l 1,3,4
 694 173 694 173 661 108 c 128,-1,5
 628 43 628 43 614 1 c 1,6,-1
 509 30 l 1,7,-1
 509 29 l 1,8,9
 468 46 468 46 468 132 c 1,10,-1
 466 129 l 1,11,12
 489 192 489 192 529 263 c 1,13,-1
 226 263 l 2,14,15
 201 263 201 263 183 292 c 1,16,-1
 184 291 l 2,17,18
 179 299 179 299 175 320 c 128,-1,19
 171 341 171 341 167 370 c 1,20,21
 218 399 218 399 305 460 c 128,-1,22
 392 521 392 521 521 615 c 1,23,-1
 769 807 l 1,24,25
 909 788 909 788 995 708 c 1,26,27
 972 660 972 660 922 570 c 128,-1,28
 872 480 872 480 799 352 c 1,29,-1
 921 352 l 2,30,31
 973 352 973 352 973 311 c 0,0,1
737 670 m 1,32,33
 702 648 702 648 642.5 605.5 c 128,-1,34
 583 563 583 563 508 506 c 0,35,36
 466 476 466 476 436.5 453.5 c 128,-1,37
 407 431 407 431 387 416 c 0,38,39
 367 402 367 402 348.5 385.5 c 128,-1,40
 330 369 330 369 312 352 c 1,41,-1
 583 352 l 1,42,43
 638 442 638 442 679.5 517.5 c 128,-1,44
 721 593 721 593 750 658 c 1,45,-1
 737 670 l 1,32,33
EndSplineSet
EndChar

StartChar: five
Encoding: 53 53 24
Width: 915
GlyphClass: 2
Flags: W
LayerCount: 2
Fore
SplineSet
1102 817 m 1,0,1
 1100 780 1100 780 1054 734 c 1,2,-1
 634 724 l 1,3,-1
 532 560 l 1,4,5
 706 609 706 609 815 609 c 0,6,7
 891 609 891 609 950 565 c 0,8,9
 1000 529 1000 529 1000 455 c 0,10,11
 1000 406 1000 406 978 351 c 128,-1,12
 956 296 956 296 916 233 c 0,13,14
 840 106 840 106 733 44 c 0,15,16
 697 23 697 23 651.5 11.5 c 128,-1,17
 606 0 606 0 555 0 c 0,18,19
 483 0 483 0 419.5 15.5 c 128,-1,20
 356 31 356 31 312 57 c 0,21,22
 238 106 238 106 192 165 c 128,-1,23
 146 224 146 224 141 278 c 1,24,25
 159 288 159 288 177 297.5 c 128,-1,26
 195 307 195 307 213 316 c 1,27,28
 235 228 235 228 299 165 c 0,29,30
 371 99 371 99 455 99 c 0,31,32
 513 99 513 99 574 143.5 c 128,-1,33
 635 188 635 188 695 273 c 0,34,35
 744 341 744 341 771.5 393.5 c 128,-1,36
 799 446 799 446 799 478 c 0,37,38
 799 503 799 503 730 503 c 0,39,40
 652 503 652 503 552 452 c 0,41,42
 513 432 513 432 482 409 c 128,-1,43
 451 386 451 386 428 360 c 1,44,45
 384 368 384 368 250 458 c 1,46,47
 285 521 285 521 332.5 609.5 c 128,-1,48
 380 698 380 698 442 821 c 1,49,50
 474 821 474 821 501 820.5 c 128,-1,51
 528 820 528 820 548 819 c 0,52,53
 652 814 652 814 712 811.5 c 128,-1,54
 772 809 772 809 789 809 c 0,55,56
 899 809 899 809 975.5 813.5 c 128,-1,57
 1052 818 1052 818 1100 826 c 1,58,-1
 1102 817 l 1,0,1
EndSplineSet
EndChar

StartChar: six
Encoding: 54 54 25
Width: 879
GlyphClass: 2
Flags: W
LayerCount: 2
Fore
SplineSet
1073 640 m 2,0,1
 1071 636 1071 636 1070 635 c 2,2,-1
 1073 630 l 1,3,-1
 1073 640 l 2,0,1
953 768 m 0,4,5
 1014 727 1014 727 1070 635 c 1,6,7
 1041 593 1041 593 1021 588 c 1,8,-1
 949 674 l 2,9,10
 898 731 898 731 850 731 c 0,11,12
 816 731 816 731 766 706 c 128,-1,13
 716 681 716 681 659 638 c 0,14,15
 607 598 607 598 568 560.5 c 128,-1,16
 529 523 529 523 512 489 c 1,17,18
 556 496 556 496 622.5 500 c 128,-1,19
 689 504 689 504 775 504 c 0,20,21
 914 504 914 504 914 411 c 0,22,23
 914 341 914 341 867 272.5 c 128,-1,24
 820 204 820 204 726 132 c 0,25,26
 559 2 559 2 417 2 c 0,27,28
 301 2 301 2 222 69 c 0,29,30
 144 138 144 138 144 263 c 0,31,32
 144 413 144 413 333 600 c 0,33,34
 550 817 550 817 752 817 c 0,35,36
 877 817 877 817 953 768 c 0,4,5
670 426 m 1,37,38
 562 426 562 426 440 341 c 0,39,40
 314 255 314 255 314 161 c 0,41,42
 314 103 314 103 360 91 c 0,43,44
 391 87 391 87 442 120 c 128,-1,45
 493 153 493 153 567 220 c 0,46,47
 710 355 710 355 717 422 c 1,48,-1
 670 426 l 1,37,38
EndSplineSet
EndChar

StartChar: seven
Encoding: 55 55 26
Width: 884
GlyphClass: 2
Flags: W
LayerCount: 2
Fore
SplineSet
1128 733 m 1,0,-1
 1123 731 l 2,1,2
 1123 729 1123 729 1123.5 728 c 128,-1,3
 1124 727 1124 727 1124 725 c 2,4,-1
 1128 733 l 1,0,-1
1097 830 m 1,5,6
 1116 807 1116 807 1123 731 c 1,7,8
 1094 713 1094 713 1015 635 c 128,-1,9
 936 557 936 557 804 418 c 0,10,11
 494 87 494 87 476 -2 c 1,12,13
 424 1 424 1 370 40 c 0,14,15
 310 80 310 80 310 130 c 0,16,17
 310 146 310 146 331.5 178 c 128,-1,18
 353 210 353 210 390 252 c 2,19,-1
 576 442 l 1,20,-1
 834 708 l 1,21,-1
 331 708 l 2,22,23
 308 708 308 708 308 740 c 0,24,25
 308 788 308 788 338 815 c 1,26,27
 1026 815 1026 815 1097 830 c 1,5,6
EndSplineSet
EndChar

StartChar: eight
Encoding: 56 56 27
Width: 877
GlyphClass: 2
Flags: W
LayerCount: 2
Fore
SplineSet
1031 631 m 0,0,1
 1031 598 1031 598 1013 564.5 c 128,-1,2
 995 531 995 531 959 489 c 0,3,4
 891 410 891 410 779 382 c 1,5,6
 843 303 843 303 843 269 c 0,7,8
 843 190 843 190 725 98 c 0,9,10
 607 4 607 4 490 4 c 0,11,12
 350 4 350 4 264 56 c 0,13,14
 166 115 166 115 166 234 c 0,15,16
 166 274 166 274 183.5 315.5 c 128,-1,17
 201 357 201 357 238 399 c 0,18,19
 313 485 313 485 415 497 c 1,20,-1
 396 552 l 1,21,22
 404 600 404 600 431.5 645.5 c 128,-1,23
 459 691 459 691 506 732 c 0,24,25
 608 817 608 817 720 817 c 0,26,27
 850 817 850 817 941 771 c 0,28,29
 1031 727 1031 727 1031 631 c 0,0,1
854 718 m 1,30,31
 860 753 860 753 806 753 c 0,32,33
 762 753 762 753 673 667 c 0,34,35
 581 582 581 582 576 520 c 1,36,37
 576 466 576 466 640 466 c 0,38,39
 682 466 682 466 762 555 c 0,40,41
 840 644 840 644 854 719 c 1,42,-1
 854 718 l 1,30,31
629 315 m 0,43,44
 629 372 629 372 579 372 c 0,45,46
 519 372 519 372 430 282 c 0,47,48
 388 237 388 237 364 194.5 c 128,-1,49
 340 152 340 152 340 117 c 0,50,51
 340 71 340 71 389 71 c 0,52,53
 430 71 430 71 525 156 c 0,54,55
 629 249 629 249 629 315 c 0,43,44
EndSplineSet
EndChar

StartChar: nine
Encoding: 57 57 28
Width: 904
GlyphClass: 2
Flags: W
LayerCount: 2
Fore
SplineSet
1023 550 m 0,0,1
 1023 405 1023 405 831 213 c 0,2,3
 615 -2 615 -2 419 -2 c 0,4,5
 296 -2 296 -2 215 47 c 0,6,7
 186 66 186 66 156.5 98 c 128,-1,8
 127 130 127 130 99 175 c 1,9,10
 115 198 115 198 126 209.5 c 128,-1,11
 137 221 137 221 147 223 c 1,12,-1
 218 138 l 1,13,14
 270 82 270 82 316 82 c 0,15,16
 351 82 351 82 399 105 c 128,-1,17
 447 128 447 128 508 173 c 0,18,19
 561 212 561 212 597.5 249.5 c 128,-1,20
 634 287 634 287 655 320 c 1,21,22
 607 314 607 314 541.5 310.5 c 128,-1,23
 476 307 476 307 391 307 c 0,24,25
 258 307 258 307 258 405 c 0,26,27
 258 471 258 471 308 541 c 128,-1,28
 358 611 358 611 442 680 c 1,29,30
 523 741 523 741 602.5 775 c 128,-1,31
 682 809 682 809 751 809 c 0,32,33
 810 809 810 809 858 793 c 128,-1,34
 906 777 906 777 944 742 c 0,35,36
 1023 673 1023 673 1023 550 c 0,0,1
856 651 m 2,37,38
 856 710 856 710 800 716 c 256,39,40
 744 722 744 722 596 587 c 0,41,42
 449 453 449 453 449 391 c 1,43,-1
 498 388 l 1,44,45
 603 388 603 388 725 471 c 0,46,47
 845 553 845 553 856 650 c 1,48,-1
 856 651 l 2,37,38
EndSplineSet
EndChar

StartChar: colon
Encoding: 58 58 29
Width: 602
GlyphClass: 2
Flags: W
LayerCount: 2
Fore
SplineSet
524 492 m 0,0,1
 402 492 402 492 402 594 c 0,2,3
 402 664 402 664 465 729 c 128,-1,4
 528 794 528 794 604 794 c 0,5,6
 662 794 662 794 700 762 c 128,-1,7
 738 730 738 730 738 680 c 0,8,9
 738 608 738 608 672 548 c 1,10,11
 604 492 604 492 524 492 c 0,0,1
370 -8 m 0,12,13
 248 -8 248 -8 248 92 c 1,14,-1
 254 134 l 1,15,16
 270 200 270 200 327 247 c 128,-1,17
 384 294 384 294 450 294 c 0,18,19
 508 294 508 294 547 263 c 128,-1,20
 586 232 586 232 586 180 c 0,21,22
 586 108 586 108 518 48 c 0,23,24
 450 -8 450 -8 370 -8 c 0,12,13
EndSplineSet
EndChar

StartChar: semicolon
Encoding: 59 59 30
Width: 586
GlyphClass: 2
Flags: W
LayerCount: 2
Fore
SplineSet
500 452 m 0,0,1
 376 452 376 452 376 554 c 0,2,3
 376 626 376 626 439 690 c 128,-1,4
 502 754 502 754 578 754 c 0,5,6
 636 754 636 754 676 723 c 128,-1,7
 716 692 716 692 716 638 c 0,8,9
 716 568 716 568 648 508 c 0,10,11
 580 452 580 452 500 452 c 0,0,1
268 -122 m 0,12,13
 228 -122 228 -122 190 -102 c 1,14,-1
 264 -76 l 1,15,16
 316 -50 316 -50 354 8 c 1,17,-1
 320 6 l 1,18,19
 222 22 222 22 222 90 c 1,20,-1
 224 112 l 1,21,22
 260 280 260 280 424 280 c 0,23,24
 486 280 486 280 523 247 c 128,-1,25
 560 214 560 214 560 162 c 0,26,27
 560 68 560 68 448 -30 c 0,28,29
 344 -122 344 -122 268 -122 c 0,12,13
EndSplineSet
EndChar

StartChar: less
Encoding: 60 60 31
Width: 1052
GlyphClass: 2
Flags: W
LayerCount: 2
Fore
SplineSet
218 560 m 1,0,-1
 250 706 l 1,1,-1
 1180 1036 l 1,2,-1
 1148 880 l 1,3,-1
 412 628 l 1,4,-1
 1028 322 l 1,5,-1
 994 164 l 1,6,-1
 218 560 l 1,0,-1
EndSplineSet
EndChar

StartChar: equal
Encoding: 61 61 32
Width: 804
GlyphClass: 2
Flags: W
LayerCount: 2
Fore
SplineSet
884 724 m 1,0,1
 896 688 896 688 896 654 c 0,2,3
 896 586 896 586 846 562 c 1,4,-1
 616 552 l 1,5,6
 502 552 502 552 428 540 c 128,-1,7
 354 528 354 528 298 504 c 1,8,9
 282 548 282 548 282 580 c 0,10,11
 282 652 282 652 360 688 c 0,12,13
 392 704 392 704 576 704 c 0,14,15
 680 704 680 704 755 709 c 128,-1,16
 830 714 830 714 884 724 c 1,0,1
846 454 m 1,17,18
 856 416 856 416 860 380 c 1,19,20
 860 310 860 310 782 270 c 0,21,22
 750 254 750 254 566 254 c 0,23,24
 462 254 462 254 387 249 c 128,-1,25
 312 244 312 244 256 234 c 1,26,27
 248 266 248 266 246 274 c 0,28,29
 246 294 246 294 246 302 c 0,30,31
 246 372 246 372 294 396 c 1,32,-1
 524 404 l 2,33,34
 628 404 628 404 711 417 c 128,-1,35
 794 430 794 430 846 454 c 1,17,18
EndSplineSet
EndChar

StartChar: greater
Encoding: 62 62 33
Width: 1052
GlyphClass: 2
Flags: W
LayerCount: 2
Fore
SplineSet
1072 530 m 1,0,-1
 140 194 l 1,1,-1
 174 352 l 1,2,-1
 910 610 l 1,3,-1
 294 910 l 1,4,-1
 326 1066 l 1,5,-1
 1104 676 l 1,6,-1
 1072 530 l 1,0,-1
EndSplineSet
EndChar

StartChar: question
Encoding: 63 63 34
Width: 1034
GlyphClass: 2
Flags: W
LayerCount: 2
Fore
SplineSet
1144 630 m 0,0,1
 1144 504 1144 504 996 426 c 1,2,-1
 748 332 l 2,3,4
 692 308 692 308 639 243 c 128,-1,5
 586 178 586 178 580 114 c 1,6,-1
 390 114 l 2,7,8
 342 114 342 114 318 164 c 1,9,10
 318 208 318 208 382 278 c 0,11,12
 438 344 438 344 508 378 c 1,13,14
 598 408 598 408 778 480 c 1,15,16
 920 548 920 548 920 652 c 0,17,18
 920 784 920 784 768 784 c 0,19,20
 674 784 674 784 588 666 c 0,21,22
 518 572 518 572 512 506 c 1,23,-1
 340 506 l 2,24,25
 316 506 316 506 299 529 c 128,-1,26
 282 552 282 552 282 584 c 0,27,28
 282 652 282 652 378 760 c 0,29,30
 510 904 510 904 740 904 c 0,31,32
 902 904 902 904 1023 833 c 128,-1,33
 1144 762 1144 762 1144 630 c 0,0,1
706 -170 m 1,34,35
 678 -202 678 -202 604 -234 c 1,36,37
 550 -252 550 -252 520 -252 c 0,38,39
 376 -252 376 -252 334 -94 c 1,40,-1
 544 38 l 1,41,42
 544 -72 544 -72 573 -122 c 128,-1,43
 602 -172 602 -172 674 -172 c 1,44,-1
 706 -170 l 1,34,35
EndSplineSet
EndChar

StartChar: at
Encoding: 64 64 35
Width: 1826
GlyphClass: 2
Flags: W
LayerCount: 2
Fore
SplineSet
1050 108 m 1,0,1
 990 52 990 52 904 8 c 0,2,3
 866 -12 866 -12 828 -20 c 128,-1,4
 790 -28 790 -28 750 -28 c 0,5,6
 672 -28 672 -28 608 24 c 1,7,8
 548 64 548 64 518 170 c 0,9,10
 506 222 506 222 506 274 c 0,11,12
 506 316 506 316 516 376 c 0,13,14
 546 510 546 510 647 652 c 128,-1,15
 748 794 748 794 868 858 c 0,16,17
 930 892 930 892 984 906 c 128,-1,18
 1038 920 1038 920 1094 920 c 0,19,20
 1174 920 1174 920 1228 874 c 1,21,22
 1288 836 1288 836 1322 750 c 1,23,-1
 1382 884 l 1,24,-1
 1538 878 l 1,25,-1
 1286 296 l 1,26,-1
 1232 160 l 2,27,28
 1226 142 1226 142 1240 118 c 1,29,30
 1258 100 1258 100 1280 100 c 0,31,32
 1308 100 1308 100 1338 111 c 128,-1,33
 1368 122 1368 122 1414 148 c 0,34,35
 1522 212 1522 212 1612 332 c 0,36,37
 1696 442 1696 442 1724 574 c 0,38,39
 1736 632 1736 632 1736 684 c 0,40,41
 1736 770 1736 770 1706 848 c 0,42,43
 1656 982 1656 982 1524 1060 c 0,44,45
 1460 1102 1460 1102 1383 1126 c 128,-1,46
 1306 1150 1306 1150 1216 1150 c 0,47,48
 1098 1150 1098 1150 1006 1133 c 128,-1,49
 914 1116 914 1116 816 1068 c 0,50,51
 632 980 632 980 497 797 c 128,-1,52
 362 614 362 614 318 418 c 0,53,54
 298 318 298 318 298 246 c 0,55,56
 298 144 298 144 330 48 c 0,57,58
 390 -112 390 -112 554 -192 c 0,59,60
 638 -236 638 -236 731 -259 c 128,-1,61
 824 -282 824 -282 932 -282 c 0,62,63
 1060 -282 1060 -282 1152 -269 c 128,-1,64
 1244 -256 1244 -256 1332 -220 c 0,65,66
 1500 -152 1500 -152 1608 -40 c 1,67,-1
 1766 -46 l 1,68,69
 1696 -144 1696 -144 1574 -226 c 1,70,71
 1446 -318 1446 -318 1282 -370 c 0,72,73
 1246 -380 1246 -380 1201 -389 c 128,-1,74
 1156 -398 1156 -398 1106 -406 c 0,75,76
 1080 -408 1080 -408 996 -410 c 128,-1,77
 912 -412 912 -412 906 -412 c 0,78,79
 726 -412 726 -412 556 -350 c 0,80,81
 410 -298 410 -298 310 -192 c 0,82,83
 218 -94 218 -94 182 48 c 0,84,85
 164 132 164 132 164 218 c 0,86,87
 164 258 164 258 170 309 c 128,-1,88
 176 360 176 360 186 408 c 0,89,90
 232 628 232 628 362 814 c 0,91,92
 520 1046 520 1046 742 1164 c 0,93,94
 850 1224 850 1224 974 1251 c 128,-1,95
 1098 1278 1098 1278 1248 1278 c 0,96,97
 1456 1278 1456 1278 1620 1174 c 0,98,99
 1776 1078 1776 1078 1838 900 c 0,100,101
 1868 806 1868 806 1868 708 c 0,102,103
 1868 646 1868 646 1852 566 c 0,104,105
 1798 312 1798 312 1576 120 c 0,106,107
 1384 -46 1384 -46 1190 -46 c 1,108,-1
 1166 -44 l 1,109,-1
 1132 -40 l 2,110,111
 1120 -38 1120 -38 1092 -24 c 1,112,113
 1070 -8 1070 -8 1050 32 c 0,114,115
 1048 40 1048 40 1048 70 c 0,116,117
 1048 94 1048 94 1050 108 c 1,0,1
678 362 m 0,118,119
 670 324 670 324 669 314 c 128,-1,120
 668 304 668 304 668 276 c 0,121,122
 668 216 668 216 694 172 c 0,123,124
 714 140 714 140 743 120 c 128,-1,125
 772 100 772 100 810 100 c 0,126,127
 842 100 842 100 865 105 c 128,-1,128
 888 110 888 110 922 124 c 0,129,130
 984 156 984 156 1042 210 c 0,131,132
 1070 234 1070 234 1099 270 c 128,-1,133
 1128 306 1128 306 1153 352 c 128,-1,134
 1178 398 1178 398 1198 445 c 128,-1,135
 1218 492 1218 492 1224 520 c 128,-1,136
 1230 548 1230 548 1232 570 c 128,-1,137
 1234 592 1234 592 1234 610 c 0,138,139
 1234 676 1234 676 1206 718 c 0,140,141
 1160 790 1160 790 1076 790 c 0,142,143
 1040 790 1040 790 1019 785 c 128,-1,144
 998 780 998 780 964 764 c 0,145,146
 908 740 908 740 848 678 c 0,147,148
 816 640 816 640 782 592 c 0,149,150
 758 558 758 558 738 524 c 0,151,152
 692 436 692 436 678 362 c 0,118,119
EndSplineSet
EndChar

StartChar: bracketleft
Encoding: 91 91 36
Width: 500
GlyphClass: 2
Flags: W
LayerCount: 2
Fore
SplineSet
46 -362 m 1,0,-1
 398 1284 l 1,1,-1
 748 1272 l 1,2,-1
 720 1142 l 1,3,-1
 528 1148 l 1,4,-1
 232 -236 l 1,5,-1
 424 -242 l 1,6,-1
 396 -374 l 1,7,-1
 46 -362 l 1,0,-1
EndSplineSet
EndChar

StartChar: backslash
Encoding: 92 92 37
Width: 500
GlyphClass: 2
Flags: W
LayerCount: 2
Fore
SplineSet
370 -36 m 1,0,-1
 280 1310 l 1,1,-1
 408 1306 l 1,2,-1
 496 -40 l 1,3,-1
 370 -36 l 1,0,-1
EndSplineSet
EndChar

StartChar: bracketright
Encoding: 93 93 38
Width: 500
GlyphClass: 2
Flags: W
LayerCount: 2
Fore
SplineSet
308 -372 m 1,0,-1
 -42 -360 l 1,1,-1
 -14 -228 l 1,2,-1
 176 -234 l 1,3,-1
 472 1150 l 1,4,-1
 282 1156 l 1,5,-1
 310 1286 l 1,6,-1
 660 1274 l 1,7,-1
 308 -372 l 1,0,-1
EndSplineSet
EndChar

StartChar: asciicircum
Encoding: 94 94 39
Width: 844
GlyphClass: 2
Flags: W
LayerCount: 2
Fore
SplineSet
340 598 m 1,0,-1
 176 604 l 1,1,-1
 638 1298 l 1,2,-1
 766 1292 l 1,3,-1
 928 578 l 1,4,-1
 768 584 l 1,5,-1
 664 1116 l 1,6,-1
 340 598 l 1,0,-1
EndSplineSet
EndChar

StartChar: underscore
Encoding: 95 95 40
Width: 1000
GlyphClass: 2
Flags: W
LayerCount: 2
Fore
SplineSet
-102 -358 m 1,0,-1
 -78 -242 l 1,1,-1
 968 -278 l 1,2,-1
 944 -394 l 1,3,-1
 -102 -358 l 1,0,-1
EndSplineSet
EndChar

StartChar: grave
Encoding: 96 96 41
Width: 384
GlyphClass: 2
Flags: W
LayerCount: 2
Fore
SplineSet
72 1092 m 1,0,1
 78 1118 78 1118 88 1132 c 128,-1,2
 98 1146 98 1146 118 1160 c 0,3,4
 126 1164 126 1164 135 1167 c 128,-1,5
 144 1170 144 1170 176 1176 c 1,6,-1
 254 1176 l 1,7,-1
 286 1170 l 1,8,-1
 312 1152 l 1,9,-1
 328 1126 l 2,10,11
 334 1114 334 1114 334 1098 c 0,12,13
 334 1074 334 1074 327 1053 c 128,-1,14
 320 1032 320 1032 298 1022 c 2,15,-1
 276 1010 l 1,16,-1
 256 1008 l 1,17,-1
 174 1008 l 1,18,-1
 164 1010 l 1,19,-1
 148 1014 l 1,20,-1
 134 1018 l 1,21,-1
 214 1018 l 1,22,-1
 218 1000 l 1,23,-1
 220 982 l 2,24,25
 220 970 220 970 230 954 c 2,26,-1
 248 922 l 1,27,-1
 268 894 l 1,28,-1
 294 870 l 1,29,-1
 320 846 l 1,30,-1
 348 822 l 1,31,-1
 314 784 l 1,32,-1
 234 784 l 1,33,-1
 176 834 l 1,34,-1
 124 890 l 2,35,36
 102 918 102 918 80 964 c 1,37,-1
 68 998 l 1,38,-1
 64 1038 l 2,39,40
 60 1070 60 1070 72 1092 c 1,0,1
EndSplineSet
EndChar

StartChar: braceleft
Encoding: 123 123 42
Width: 602
GlyphClass: 2
Flags: W
LayerCount: 2
Fore
SplineSet
164 536 m 1,0,1
 202 536 202 536 229 543 c 128,-1,2
 256 550 256 550 280 568 c 0,3,4
 330 602 330 602 362 662 c 1,5,-1
 390 760 l 1,6,-1
 420 868 l 1,7,8
 434 942 434 942 448 995 c 128,-1,9
 462 1048 462 1048 470 1078 c 0,10,11
 488 1136 488 1136 520 1176 c 0,12,13
 536 1198 536 1198 551 1215 c 128,-1,14
 566 1232 566 1232 584 1244 c 0,15,16
 618 1270 618 1270 680 1288 c 0,17,18
 696 1290 696 1290 712 1291 c 128,-1,19
 728 1292 728 1292 756 1292 c 2,20,-1
 790 1292 l 1,21,-1
 840 1290 l 1,22,-1
 810 1152 l 1,23,-1
 780 1154 l 1,24,25
 694 1154 694 1154 652 1124 c 1,26,27
 620 1094 620 1094 592 978 c 2,28,-1
 580 924 l 1,29,-1
 572 880 l 1,30,-1
 564 846 l 1,31,-1
 558 818 l 1,32,-1
 552 794 l 1,33,-1
 536 728 l 2,34,35
 532 702 532 702 520 690 c 1,36,37
 486 600 486 600 436 548 c 0,38,39
 386 500 386 500 296 460 c 1,40,41
 340 438 340 438 369 407 c 128,-1,42
 398 376 398 376 409 338 c 128,-1,43
 420 300 420 300 420 254 c 0,44,45
 420 172 420 172 394 56 c 1,46,-1
 356 -148 l 2,47,48
 354 -158 354 -158 354 -174 c 0,49,50
 354 -212 354 -212 374 -232 c 1,51,-1
 406 -248 l 2,52,53
 422 -254 422 -254 439 -257 c 128,-1,54
 456 -260 456 -260 478 -260 c 2,55,-1
 508 -262 l 1,56,-1
 480 -398 l 1,57,-1
 430 -396 l 2,58,59
 392 -396 392 -396 364 -393 c 128,-1,60
 336 -390 336 -390 308 -380 c 0,61,62
 286 -368 286 -368 276 -360 c 0,63,64
 248 -340 248 -340 232 -310 c 0,65,66
 202 -266 202 -266 202 -194 c 0,67,68
 202 -140 202 -140 242 36 c 0,69,70
 274 188 274 188 274 252 c 0,71,72
 274 310 274 310 238 348 c 128,-1,73
 202 386 202 386 134 392 c 1,74,-1
 164 536 l 1,0,1
EndSplineSet
EndChar

StartChar: bar
Encoding: 124 124 43
Width: 468
GlyphClass: 2
Flags: W
LayerCount: 2
Fore
SplineSet
86 -384 m 1,0,-1
 446 1304 l 1,1,-1
 582 1300 l 1,2,-1
 222 -388 l 1,3,-1
 86 -384 l 1,0,-1
EndSplineSet
EndChar

StartChar: braceright
Encoding: 125 125 44
Width: 602
GlyphClass: 2
Flags: W
LayerCount: 2
Fore
SplineSet
664 518 m 1,0,-1
 634 374 l 1,1,2
 602 374 602 374 573 368 c 128,-1,3
 544 362 544 362 516 344 c 0,4,5
 468 314 468 314 438 246 c 1,6,-1
 410 166 l 1,7,-1
 380 44 l 1,8,-1
 372 10 l 1,9,-1
 366 -20 l 1,10,-1
 362 -42 l 2,11,12
 354 -74 354 -74 348 -104 c 128,-1,13
 342 -134 342 -134 334 -150 c 1,14,15
 322 -214 322 -214 278 -266 c 0,16,17
 252 -302 252 -302 210 -338 c 1,18,-1
 174 -356 l 1,19,-1
 122 -376 l 1,20,-1
 78 -382 l 1,21,-1
 10 -382 l 1,22,-1
 -38 -380 l 1,23,-1
 -10 -244 l 1,24,-1
 16 -244 l 2,25,26
 112 -244 112 -244 144 -212 c 1,27,28
 176 -190 176 -190 208 -68 c 1,29,-1
 246 104 l 1,30,-1
 274 212 l 1,31,32
 304 306 304 306 364 364 c 0,33,34
 418 420 418 420 504 452 c 1,35,36
 416 496 416 496 388 580 c 0,37,38
 378 616 378 616 378 662 c 0,39,40
 378 742 378 742 404 854 c 2,41,-1
 428 962 l 1,42,-1
 444 1072 l 2,43,44
 446 1078 446 1078 446 1085 c 128,-1,45
 446 1092 446 1092 446 1094 c 0,46,47
 446 1116 446 1116 428 1138 c 0,48,49
 400 1170 400 1170 318 1170 c 2,50,-1
 292 1170 l 1,51,-1
 322 1308 l 1,52,-1
 370 1306 l 2,53,54
 454 1306 454 1306 500 1286 c 128,-1,55
 546 1266 546 1266 570 1223 c 128,-1,56
 594 1180 594 1180 594 1104 c 1,57,-1
 584 1012 l 1,58,-1
 558 878 l 2,59,60
 542 800 542 800 533 743 c 128,-1,61
 524 686 524 686 524 654 c 0,62,63
 524 602 524 602 562 558 c 1,64,65
 584 540 584 540 608 530 c 2,66,-1
 634 522 l 1,67,-1
 664 518 l 1,0,-1
EndSplineSet
EndChar

StartChar: asciitilde
Encoding: 126 126 45
Width: 1052
GlyphClass: 2
Flags: W
LayerCount: 2
Fore
SplineSet
180 488 m 1,0,-1
 220 668 l 1,1,2
 276 718 276 718 341 741 c 128,-1,3
 406 764 406 764 486 764 c 0,4,5
 524 764 524 764 594 744 c 0,6,7
 618 738 618 738 653 723 c 128,-1,8
 688 708 688 708 748 678 c 2,9,-1
 830 642 l 1,10,-1
 866 630 l 1,11,-1
 888 630 l 2,12,13
 936 630 936 630 1006 658 c 128,-1,14
 1076 686 1076 686 1142 744 c 1,15,-1
 1102 558 l 1,16,17
 1040 512 1040 512 974 484 c 1,18,19
 908 466 908 466 838 466 c 0,20,21
 786 466 786 466 742 478 c 128,-1,22
 698 490 698 490 599 544 c 128,-1,23
 500 598 500 598 436 598 c 0,24,25
 404 598 404 598 378 594 c 128,-1,26
 352 590 352 590 324 576 c 0,27,28
 304 570 304 570 264 544 c 0,29,30
 244 534 244 534 226 522 c 0,31,32
 220 518 220 518 180 488 c 1,0,-1
EndSplineSet
EndChar

StartChar: cent
Encoding: 162 162 46
Width: 721
GlyphClass: 2
Flags: W
LayerCount: 2
Fore
SplineSet
598 156 m 1,0,1
 537 71 537 71 467 31 c 128,-1,2
 397 -9 397 -9 304 -17 c 1,3,-1
 228 -265 l 1,4,-1
 187 -265 l 1,5,-1
 262 -17 l 1,6,7
 177 -8 177 -8 128.5 47 c 128,-1,8
 80 102 80 102 80 188 c 0,9,10
 80 345 80 345 191.5 478.5 c 128,-1,11
 303 612 303 612 457 638 c 1,12,-1
 541 917 l 1,13,-1
 580 917 l 1,14,-1
 499 638 l 1,15,16
 580 638 580 638 616.5 607 c 128,-1,17
 653 576 653 576 653 523 c 0,18,19
 653 482 653 482 631.5 455.5 c 128,-1,20
 610 429 610 429 580 429 c 0,21,22
 557 429 557 429 544 442 c 128,-1,23
 531 455 531 455 531 476 c 0,24,25
 531 491 531 491 536 502 c 128,-1,26
 541 513 541 513 560.5 534.5 c 128,-1,27
 580 556 580 556 580 570 c 0,28,29
 580 578 580 578 575 585 c 0,30,31
 565 596 565 596 549.5 601 c 128,-1,32
 534 606 534 606 489 606 c 1,33,-1
 322 49 l 1,34,-1
 352 47 l 1,35,36
 470 47 470 47 580 173 c 1,37,-1
 598 156 l 1,0,1
284 57 m 1,38,-1
 445 598 l 1,39,40
 383 570 383 570 342 533 c 0,41,42
 274 467 274 467 237 380.5 c 128,-1,43
 200 294 200 294 200 205 c 0,44,45
 200 146 200 146 224 108 c 0,46,47
 243 81 243 81 284 57 c 1,38,-1
EndSplineSet
EndChar

StartChar: multiply
Encoding: 215 215 47
Width: 975
GlyphClass: 2
Flags: W
LayerCount: 2
Fore
SplineSet
267 230 m 1,0,-1
 515 479 l 1,1,-1
 267 728 l 1,2,-1
 308 768 l 1,3,-1
 556 520 l 1,4,-1
 805 768 l 1,5,-1
 844 728 l 1,6,-1
 595 480 l 1,7,-1
 845 230 l 1,8,-1
 805 190 l 1,9,-1
 555 439 l 1,10,-1
 307 190 l 1,11,-1
 267 230 l 1,0,-1
EndSplineSet
EndChar

StartChar: divide
Encoding: 247 247 48
Width: 792
GlyphClass: 2
Flags: W
LayerCount: 2
Fore
SplineSet
418 757 m 0,0,1
 443 757 443 757 461 739 c 128,-1,2
 479 721 479 721 479 695 c 0,3,4
 479 670 479 670 461 652 c 128,-1,5
 443 634 443 634 417 634 c 0,6,7
 392 634 392 634 373.5 652 c 128,-1,8
 355 670 355 670 355 695 c 0,9,10
 355 721 355 721 373.5 739 c 128,-1,11
 392 757 392 757 418 757 c 0,0,1
797 450 m 1,12,-1
 38 450 l 1,13,-1
 38 508 l 1,14,-1
 797 508 l 1,15,-1
 797 450 l 1,12,-1
418 320 m 0,16,17
 443 320 443 320 461 301.5 c 128,-1,18
 479 283 479 283 479 257 c 0,19,20
 479 233 479 233 461 215 c 128,-1,21
 443 197 443 197 418 197 c 0,22,23
 392 197 392 197 373.5 215 c 128,-1,24
 355 233 355 233 355 257 c 0,25,26
 355 283 355 283 373.5 301.5 c 128,-1,27
 392 320 392 320 418 320 c 0,16,17
EndSplineSet
EndChar

StartChar: tm_visarga
Encoding: 2947 2947 49
Width: 1032
GlyphClass: 2
Flags: W
LayerCount: 2
Fore
SplineSet
842 636 m 1,0,1
 800 594 800 594 723 558 c 128,-1,2
 646 522 646 522 584 516 c 1,3,4
 532 516 532 516 486 546 c 1,5,6
 446 578 446 578 434 636 c 1,7,8
 478 688 478 688 531 745 c 128,-1,9
 584 802 584 802 614 832 c 1,10,11
 642 754 642 754 680 714 c 0,12,13
 734 658 734 658 842 636 c 1,0,1
1042 92 m 1,14,15
 1006 66 1006 66 936 36 c 0,16,17
 852 4 852 4 810 4 c 0,18,19
 744 4 744 4 696 39 c 128,-1,20
 648 74 648 74 640 136 c 1,21,22
 660 164 660 164 736 228 c 2,23,-1
 832 308 l 1,24,25
 888 184 888 184 902 170 c 0,26,27
 930 136 930 136 1042 92 c 1,14,15
466 92 m 1,28,29
 298 -4 298 -4 218 -4 c 0,30,31
 156 -4 156 -4 110 31 c 128,-1,32
 64 66 64 66 56 124 c 1,33,-1
 244 308 l 1,34,35
 308 128 308 128 466 92 c 1,28,29
EndSplineSet
EndChar

StartChar: tm_a
Encoding: 2949 2949 50
Width: 1390
GlyphClass: 2
Flags: W
LayerCount: 2
Fore
SplineSet
1624 790 m 1,0,-1
 1468 434 l 2,1,2
 1320 104 1320 104 1320 2 c 1,3,4
 1144 2 1144 2 1144 148 c 0,5,6
 1144 184 1144 184 1286 492 c 1,7,-1
 1228 492 l 1,8,9
 1190 348 1190 348 1088 206 c 0,10,11
 914 -40 914 -40 594 -40 c 0,12,13
 494 -40 494 -40 419 -24 c 128,-1,14
 344 -8 344 -8 280 30 c 0,15,16
 140 110 140 110 140 280 c 0,17,18
 140 344 140 344 192 454 c 0,19,20
 238 550 238 550 276 586 c 1,21,22
 302 566 302 566 354 566 c 2,23,-1
 470 566 l 1,24,25
 512 716 512 716 620 816 c 0,26,27
 722 906 722 906 924 906 c 0,28,29
 1256 906 1256 906 1256 668 c 1,30,-1
 1244 570 l 1,31,-1
 1318 570 l 1,32,33
 1368 682 1368 682 1408 776 c 0,34,35
 1442 856 1442 856 1460 908 c 1,36,37
 1512 908 1512 908 1558 882 c 0,38,39
 1624 848 1624 848 1624 790 c 1,0,-1
1062 674 m 1,40,41
 1062 830 1062 830 922 830 c 0,42,43
 818 830 818 830 750 738 c 1,44,-1
 814 740 l 1,45,46
 964 740 964 740 964 598 c 1,47,-1
 958 570 l 1,48,-1
 1040 570 l 1,49,50
 1048 594 1048 594 1053 620 c 128,-1,51
 1058 646 1058 646 1062 674 c 1,40,41
776 642 m 256,52,53
 776 678 776 678 760 680 c 0,54,55
 726 680 726 680 672 588 c 0,56,57
 628 510 628 510 622 472 c 0,58,59
 620 440 620 440 630 428 c 2,60,-1
 648 406 l 1,61,62
 668 406 668 406 718 482 c 0,63,64
 746 524 746 524 761 565 c 128,-1,65
 776 606 776 606 776 642 c 256,52,53
1018 492 m 1,66,-1
 926 492 l 1,67,68
 812 332 812 332 654 332 c 0,69,70
 610 332 610 332 581 340 c 128,-1,71
 552 348 552 348 520 372 c 0,72,73
 464 412 464 412 464 494 c 1,74,75
 416 486 416 486 364 411 c 128,-1,76
 312 336 312 336 312 270 c 0,77,78
 312 178 312 178 389 117 c 128,-1,79
 466 56 466 56 564 56 c 0,80,81
 826 56 826 56 982 402 c 1,82,-1
 1018 492 l 1,66,-1
EndSplineSet
EndChar

StartChar: tm_aa
Encoding: 2950 2950 51
Width: 1668
GlyphClass: 2
Flags: W
LayerCount: 2
Fore
SplineSet
1680 152 m 0,0,1
 1680 70 1680 70 1612 -28 c 1,2,3
 1552 -124 1552 -124 1468 -178 c 0,4,5
 1360 -246 1360 -246 1208 -246 c 0,6,7
 1108 -246 1108 -246 1029 -202 c 128,-1,8
 950 -158 950 -158 950 -76 c 0,9,10
 950 -50 950 -50 964 -16 c 2,11,-1
 984 36 l 1,12,13
 1070 36 1070 36 1106 30 c 128,-1,14
 1142 24 1142 24 1142 -14 c 1,15,16
 1130 -38 1130 -38 1130 -62 c 0,17,18
 1130 -140 1130 -140 1220 -140 c 0,19,20
 1306 -140 1306 -140 1400 2 c 0,21,22
 1446 72 1446 72 1469 124 c 128,-1,23
 1492 176 1492 176 1492 222 c 0,24,25
 1492 300 1492 300 1430 300 c 1,26,-1
 1410 298 l 1,27,28
 1316 74 1316 74 1316 -4 c 1,29,30
 1140 -4 1140 -4 1140 124 c 0,31,32
 1140 162 1140 162 1274 460 c 1,33,-1
 1216 460 l 1,34,35
 1172 314 1172 314 1072 168 c 0,36,37
 928 -42 928 -42 576 -42 c 0,38,39
 390 -42 390 -42 272 20 c 0,40,41
 132 94 132 94 132 262 c 0,42,43
 132 326 132 326 184 430 c 0,44,45
 228 520 228 520 270 558 c 1,46,47
 284 538 284 538 362 538 c 2,48,-1
 466 538 l 1,49,50
 500 678 500 678 602 769 c 128,-1,51
 704 860 704 860 906 860 c 0,52,53
 1086 860 1086 860 1168 812 c 1,54,55
 1248 760 1248 760 1248 620 c 0,56,57
 1248 582 1248 582 1238 542 c 1,58,-1
 1310 542 l 1,59,60
 1446 820 1446 820 1446 864 c 1,61,62
 1506 864 1506 864 1559 836 c 128,-1,63
 1612 808 1612 808 1612 754 c 1,64,-1
 1446 378 l 1,65,-1
 1464 380 l 1,66,67
 1562 380 1562 380 1624 312 c 0,68,69
 1680 250 1680 250 1680 152 c 0,0,1
1052 658 m 0,70,71
 1052 692 1052 692 1048 717 c 128,-1,72
 1044 742 1044 742 1024 760 c 0,73,74
 992 788 992 788 910 788 c 0,75,76
 806 788 806 788 736 694 c 1,77,78
 778 694 778 694 786 696 c 128,-1,79
 794 698 794 698 798 702 c 1,80,81
 958 702 958 702 958 580 c 0,82,83
 956 574 956 574 955 564 c 128,-1,84
 954 554 954 554 948 542 c 1,85,-1
 1036 542 l 1,86,87
 1040 554 1040 554 1046 584 c 128,-1,88
 1052 614 1052 614 1052 658 c 0,70,71
772 608 m 2,89,-1
 774 640 l 1,90,91
 766 648 766 648 760 648 c 0,92,93
 724 648 724 648 670 570 c 1,94,95
 624 496 624 496 618 450 c 1,96,97
 618 414 618 414 624 402 c 1,98,-1
 644 384 l 1,99,100
 668 384 668 384 717 472 c 128,-1,101
 766 560 766 560 772 608 c 2,89,-1
1010 460 m 1,102,-1
 914 460 l 1,103,104
 800 304 800 304 642 304 c 0,105,106
 582 304 582 304 522 340 c 0,107,108
 454 382 454 382 454 460 c 1,109,110
 406 450 406 450 358 386 c 0,111,112
 336 354 336 354 322 319 c 128,-1,113
 308 284 308 284 308 244 c 0,114,115
 308 154 308 154 386 97 c 128,-1,116
 464 40 464 40 568 40 c 0,117,118
 822 40 822 40 966 358 c 1,119,-1
 1010 460 l 1,102,-1
EndSplineSet
EndChar

StartChar: tm_i
Encoding: 2951 2951 52
Width: 1360
GlyphClass: 2
Flags: W
LayerCount: 2
Fore
SplineSet
1438 372 m 0,0,1
 1438 334 1438 334 1421 287 c 128,-1,2
 1404 240 1404 240 1372 184 c 0,3,4
 1276 16 1276 16 1096 16 c 0,5,6
 984 16 984 16 902 82 c 1,7,8
 714 0 714 0 568 0 c 0,9,10
 442 0 442 0 346 38 c 0,11,12
 190 102 190 102 190 260 c 0,13,14
 190 320 190 320 216 387 c 128,-1,15
 242 454 242 454 290 524 c 1,16,-1
 378 516 l 1,17,-1
 282 610 l 1,18,19
 336 788 336 788 530 890 c 1,20,21
 706 978 706 978 934 978 c 0,22,23
 1180 978 1180 978 1324 858 c 0,24,25
 1384 806 1384 806 1413 740 c 128,-1,26
 1442 674 1442 674 1442 592 c 1,27,-1
 1288 592 l 2,28,29
 1274 592 1274 592 1262 603 c 128,-1,30
 1250 614 1250 614 1248 624 c 0,31,32
 1248 738 1248 738 1141 811 c 128,-1,33
 1034 884 1034 884 920 884 c 0,34,35
 668 884 668 884 542 746 c 0,36,37
 490 690 490 690 430 534 c 1,38,39
 430 522 430 522 454 522 c 0,40,41
 466 524 466 524 471 528 c 128,-1,42
 476 532 476 532 478 534 c 0,43,44
 532 670 532 670 604 732 c 0,45,46
 708 818 708 818 886 818 c 0,47,48
 1178 818 1178 818 1178 612 c 1,49,-1
 1174 552 l 1,50,51
 1306 552 1306 552 1346 536 c 0,52,53
 1438 502 1438 502 1438 372 c 0,0,1
992 536 m 1,54,55
 992 606 992 606 994 621 c 128,-1,56
 996 636 996 636 1000 646 c 1,57,58
 1000 750 1000 750 898 750 c 0,59,60
 828 750 828 750 795 736 c 128,-1,61
 762 722 762 722 722 666 c 1,62,63
 734 668 734 668 762 668 c 0,64,65
 794 668 794 668 812 666 c 0,66,67
 862 666 862 666 880 652 c 0,68,69
 920 618 920 618 920 560 c 0,70,71
 918 544 918 544 918 536 c 1,72,-1
 992 536 l 1,54,55
740 616 m 1,73,74
 700 616 700 616 656 540 c 0,75,76
 620 480 620 480 614 442 c 1,77,78
 614 388 614 388 654 388 c 1,79,80
 670 396 670 396 709 472 c 128,-1,81
 748 548 748 548 748 590 c 0,82,83
 748 608 748 608 740 616 c 1,73,74
1242 416 m 1,84,85
 1242 468 1242 468 1214 478 c 1,86,-1
 1152 480 l 1,87,88
 1152 460 1152 460 1137 418 c 128,-1,89
 1122 376 1122 376 1090 310 c 0,90,91
 1022 172 1022 172 966 132 c 1,92,93
 994 114 994 114 1006 114 c 0,94,95
 1092 114 1092 114 1168 232 c 0,96,97
 1234 332 1234 332 1242 416 c 1,84,85
970 470 m 1,98,-1
 880 462 l 1,99,100
 850 396 850 396 758 352 c 0,101,102
 684 318 684 318 632 318 c 0,103,104
 574 318 574 318 524 354 c 128,-1,105
 474 390 474 390 466 446 c 1,106,107
 418 434 418 434 380 372 c 0,108,109
 350 318 350 318 344 258 c 1,110,111
 344 192 344 192 394 140 c 0,112,113
 458 76 458 76 568 76 c 0,114,115
 838 76 838 76 970 470 c 1,98,-1
EndSplineSet
EndChar

StartChar: tm_ii
Encoding: 2952 2952 53
Width: 1166
GlyphClass: 2
Flags: W
LayerCount: 2
Fore
SplineSet
742 376 m 1,0,1
 734 360 734 360 690 336 c 1,2,3
 640 314 640 314 594 314 c 0,4,5
 480 314 480 314 486 378 c 1,6,7
 492 388 492 388 498 394 c 0,8,9
 516 416 516 416 540 438 c 2,10,-1
 604 496 l 1,11,12
 634 374 634 374 718 374 c 1,13,-1
 742 376 l 1,0,1
1282 338 m 1,14,15
 1246 300 1246 300 1156 300 c 0,16,17
 1076 300 1076 300 1018 370 c 1,18,-1
 1160 500 l 1,19,20
 1160 430 1160 430 1200 384 c 0,21,22
 1234 350 1234 350 1282 338 c 1,14,15
1244 734 m 0,23,24
 1244 662 1244 662 1082 632 c 1,25,-1
 976 324 l 2,26,27
 902 112 902 112 902 68 c 0,28,29
 902 18 902 18 930 -10 c 1,30,31
 884 -20 884 -20 848 -20 c 0,32,33
 692 -20 692 -20 692 114 c 0,34,35
 692 148 692 148 760 346 c 2,36,-1
 858 638 l 1,37,-1
 746 644 l 1,38,-1
 634 652 l 1,39,40
 522 652 522 652 480 566 c 1,41,42
 448 490 448 490 382 300 c 0,43,44
 334 152 334 152 296 88 c 0,45,46
 246 2 246 2 140 2 c 0,47,48
 70 2 70 2 24 46 c 1,49,50
 98 76 98 76 164 262 c 2,51,-1
 278 602 l 1,52,53
 336 746 336 746 594 746 c 0,54,55
 670 746 670 746 806 728 c 1,56,-1
 974 712 l 1,57,58
 1032 712 1032 712 1094 736 c 128,-1,59
 1156 760 1156 760 1168 800 c 1,60,61
 1244 800 1244 800 1244 734 c 0,23,24
EndSplineSet
EndChar

StartChar: tm_u
Encoding: 2953 2953 54
Width: 2020
GlyphClass: 2
Flags: W
LayerCount: 2
Fore
SplineSet
2014 34 m 0,0,1
 2014 10 2014 10 2002 4 c 1,2,-1
 1928 0 l 1,3,-1
 292 0 l 2,4,5
 174 0 174 0 130 50 c 0,6,7
 114 68 114 68 106 101 c 128,-1,8
 98 134 98 134 98 178 c 0,9,10
 98 264 98 264 174 322 c 0,11,12
 236 372 236 372 316 372 c 0,13,14
 330 370 330 370 338 370 c 1,15,16
 312 384 312 384 292 434 c 0,17,18
 278 478 278 478 278 532 c 0,19,20
 278 604 278 604 309 669 c 128,-1,21
 340 734 340 734 400 788 c 0,22,23
 478 860 478 860 560 889 c 128,-1,24
 642 918 642 918 760 918 c 0,25,26
 910 918 910 918 1021 854 c 128,-1,27
 1132 790 1132 790 1132 666 c 0,28,29
 1132 578 1132 578 1092 507 c 128,-1,30
 1052 436 1052 436 974 376 c 0,31,32
 840 276 840 276 674 276 c 1,33,-1
 598 278 l 1,34,-1
 522 280 l 1,35,36
 304 280 304 280 304 152 c 0,37,38
 304 128 304 128 332 111 c 128,-1,39
 360 94 360 94 398 94 c 2,40,-1
 1934 94 l 2,41,42
 1982 94 1982 94 1990 90 c 0,43,44
 2014 78 2014 78 2014 34 c 0,0,1
948 688 m 0,45,46
 948 816 948 816 794 816 c 0,47,48
 738 816 738 816 681 786 c 128,-1,49
 624 756 624 756 594 720 c 1,50,-1
 636 724 l 1,51,52
 700 724 700 724 754 688 c 0,53,54
 802 652 802 652 802 596 c 0,55,56
 802 546 802 546 757 478 c 128,-1,57
 712 410 712 410 638 376 c 1,58,-1
 650 360 l 1,59,60
 752 374 752 374 846 478 c 0,61,62
 894 530 894 530 921 583 c 128,-1,63
 948 636 948 636 948 688 c 0,45,46
626 636 m 0,64,65
 626 660 626 660 600 662 c 0,66,67
 554 662 554 662 499 593 c 128,-1,68
 444 524 444 524 438 462 c 1,69,70
 438 414 438 414 462 414 c 0,71,72
 484 414 484 414 552 498 c 128,-1,73
 620 582 620 582 626 636 c 0,64,65
EndSplineSet
EndChar

StartChar: tm_uu
Encoding: 2954 2954 55
Width: 2012
GlyphClass: 2
Flags: W
LayerCount: 2
Fore
SplineSet
2260 718 m 0,0,1
 2260 688 2260 688 2237 663 c 128,-1,2
 2214 638 2214 638 2174 638 c 0,3,4
 2168 638 2168 638 2148 640 c 128,-1,5
 2128 642 2128 642 2102 648 c 1,6,7
 2066 590 2066 590 1970 400 c 2,8,-1
 1864 184 l 1,9,10
 1736 222 1736 222 1736 286 c 0,11,12
 1736 320 1736 320 1824 472 c 2,13,-1
 1940 676 l 1,14,-1
 1880 684 l 1,15,16
 1806 684 1806 684 1764 660 c 1,17,18
 1786 626 1786 626 1786 582 c 0,19,20
 1786 504 1786 504 1684 344 c 0,21,22
 1590 196 1590 196 1586 164 c 1,23,24
 1468 200 1468 200 1468 270 c 0,25,26
 1468 296 1468 296 1551 422 c 128,-1,27
 1634 548 1634 548 1634 602 c 0,28,29
 1634 694 1634 694 1546 694 c 0,30,31
 1456 694 1456 694 1388 596 c 1,32,33
 1522 596 1522 596 1522 476 c 0,34,35
 1522 414 1522 414 1466 326 c 0,36,37
 1388 196 1388 196 1254 196 c 0,38,39
 1208 196 1208 196 1160 226 c 0,40,41
 1098 266 1098 266 1098 356 c 0,42,43
 1098 456 1098 456 1180 578 c 1,44,45
 1298 766 1298 766 1516 766 c 0,46,47
 1610 766 1610 766 1686 728 c 1,48,49
 1708 748 1708 748 1747 760 c 128,-1,50
 1786 772 1786 772 1844 772 c 0,51,52
 1876 772 1876 772 1919 764 c 128,-1,53
 1962 756 1962 756 1990 750 c 2,54,-1
 2120 728 l 2,55,56
 2136 728 2136 728 2168 744 c 1,57,-1
 2214 774 l 1,58,59
 2266 768 2266 768 2260 718 c 0,0,1
2006 4 m 1,60,-1
 278 2 l 2,61,62
 106 2 106 2 106 176 c 0,63,64
 106 252 106 252 169 313 c 128,-1,65
 232 374 232 374 306 374 c 0,66,67
 328 374 328 374 340 370 c 1,68,69
 290 432 290 432 290 542 c 0,70,71
 290 624 290 624 325 692 c 128,-1,72
 360 760 360 760 428 818 c 0,73,74
 562 930 562 930 748 930 c 0,75,76
 1132 930 1132 930 1132 666 c 0,77,78
 1132 508 1132 508 988 390 c 0,79,80
 854 280 854 280 684 280 c 2,81,-1
 456 280 l 2,82,83
 404 280 404 280 361 246 c 128,-1,84
 318 212 318 212 312 160 c 1,85,86
 312 94 312 94 426 94 c 0,87,88
 528 94 528 94 816 98 c 128,-1,89
 1104 102 1104 102 1188 102 c 2,90,-1
 1952 110 l 2,91,92
 2010 110 2010 110 2010 66 c 2,93,-1
 2006 4 l 1,60,-1
952 712 m 0,94,95
 952 766 952 766 910 802 c 128,-1,96
 868 838 868 838 808 838 c 0,97,98
 694 838 694 838 604 742 c 1,99,100
 664 742 664 742 684 739 c 128,-1,101
 704 736 704 736 730 726 c 0,102,103
 804 698 804 698 804 606 c 0,104,105
 804 540 804 540 752 474 c 0,106,107
 706 410 706 410 650 382 c 1,108,-1
 650 364 l 1,109,110
 754 380 754 380 848 488 c 0,111,112
 900 546 900 546 926 600 c 128,-1,113
 952 654 952 654 952 712 c 0,94,95
634 652 m 0,114,115
 634 682 634 682 606 682 c 0,116,117
 564 682 564 682 506 606 c 0,118,119
 474 564 474 564 460 532 c 128,-1,120
 446 500 446 500 446 464 c 0,121,122
 446 416 446 416 470 416 c 1,123,-1
 480 420 l 1,124,125
 538 468 538 468 590 546 c 0,126,127
 612 580 612 580 623 606 c 128,-1,128
 634 632 634 632 634 652 c 0,114,115
1388 498 m 0,129,130
 1388 510 1388 510 1379 517 c 128,-1,131
 1370 524 1370 524 1360 520 c 0,132,133
 1214 444 1214 444 1214 308 c 0,134,135
 1214 290 1214 290 1230 280 c 0,136,137
 1246 274 1246 274 1262 282 c 0,138,139
 1302 302 1302 302 1344 370 c 0,140,141
 1366 408 1366 408 1377 437 c 128,-1,142
 1388 466 1388 466 1388 498 c 0,129,130
EndSplineSet
EndChar

StartChar: tm_e
Encoding: 2958 2958 56
Width: 988
GlyphClass: 2
Flags: W
LayerCount: 2
Fore
SplineSet
1244 754 m 0,0,1
 1244 724 1244 724 1200 698 c 0,2,3
 1156 676 1156 676 1110 676 c 2,4,-1
 1084 676 l 1,5,6
 1042 592 1042 592 928 328 c 0,7,8
 802 32 802 32 802 0 c 1,9,10
 746 0 746 0 696 31 c 128,-1,11
 646 62 646 62 646 120 c 0,12,13
 646 150 646 150 728 338 c 0,14,15
 784 470 784 470 816 548 c 0,16,17
 840 606 840 606 870 688 c 1,18,-1
 762 692 l 1,19,20
 538 692 538 692 426 514 c 1,21,-1
 508 522 l 1,22,23
 660 522 660 522 660 370 c 0,24,25
 660 302 660 302 634 237 c 128,-1,26
 608 172 608 172 562 118 c 0,27,28
 466 4 466 4 328 4 c 0,29,30
 132 4 132 4 132 234 c 0,31,32
 132 320 132 320 171 408 c 128,-1,33
 210 496 210 496 288 598 c 0,34,35
 422 768 422 768 700 768 c 2,36,-1
 868 770 l 1,37,-1
 1040 770 l 2,38,39
 1144 770 1144 770 1160 830 c 1,40,41
 1244 800 1244 800 1244 754 c 0,0,1
492 396 m 0,42,43
 492 444 492 444 458 444 c 0,44,45
 418 444 418 444 358 349 c 128,-1,46
 298 254 298 254 292 190 c 1,47,48
 292 112 292 112 322 110 c 0,49,50
 358 110 358 110 424 218 c 0,51,52
 456 270 456 270 474 316 c 128,-1,53
 492 362 492 362 492 396 c 0,42,43
EndSplineSet
EndChar

StartChar: tm_ee
Encoding: 2959 2959 57
Width: 1040
GlyphClass: 2
Flags: W
LayerCount: 2
Fore
SplineSet
1288 730 m 0,0,1
 1288 702 1288 702 1240 674 c 0,2,3
 1222 664 1222 664 1198 656 c 128,-1,4
 1174 648 1174 648 1152 648 c 2,5,-1
 1118 648 l 1,6,7
 918 280 918 280 770 -92 c 0,8,9
 762 -116 762 -116 697 -148 c 128,-1,10
 632 -180 632 -180 564 -180 c 0,11,12
 434 -180 434 -180 287 -149 c 128,-1,13
 140 -118 140 -118 58 -118 c 0,14,15
 -60 -118 -60 -118 -70 -208 c 1,16,17
 -152 -208 -152 -208 -152 -126 c 0,18,19
 -152 -92 -152 -92 -101 -54 c 128,-1,20
 -50 -16 -50 -16 4 -16 c 0,21,22
 40 -16 40 -16 152 -42 c 128,-1,23
 264 -68 264 -68 438 -68 c 0,24,25
 562 -68 562 -68 606 32 c 2,26,-1
 762 376 l 1,27,28
 824 496 824 496 908 684 c 1,29,30
 854 696 854 696 784 696 c 0,31,32
 550 696 550 696 448 516 c 1,33,-1
 502 522 l 1,34,35
 674 522 674 522 674 362 c 0,36,37
 674 290 674 290 629 202 c 128,-1,38
 584 114 584 114 514 62 c 0,39,40
 428 -2 428 -2 330 -2 c 0,41,42
 226 -2 226 -2 180 52 c 128,-1,43
 134 106 134 106 134 222 c 0,44,45
 134 322 134 322 178 417 c 128,-1,46
 222 512 222 512 312 610 c 0,47,48
 390 698 390 698 482 733 c 128,-1,49
 574 768 574 768 722 768 c 0,50,51
 812 768 812 768 938 756 c 1,52,-1
 1096 746 l 1,53,54
 1180 746 1180 746 1210 804 c 1,55,56
 1230 802 1230 802 1260 774 c 0,57,58
 1288 752 1288 752 1288 730 c 0,0,1
508 396 m 1,59,60
 508 438 508 438 480 438 c 1,61,-1
 454 432 l 1,62,63
 416 416 416 416 358 331 c 128,-1,64
 300 246 300 246 294 178 c 1,65,66
 294 108 294 108 324 108 c 0,67,68
 336 108 336 108 354 120 c 0,69,70
 386 146 386 146 444 245 c 128,-1,71
 502 344 502 344 508 396 c 1,59,60
EndSplineSet
EndChar

StartChar: tm_ai
Encoding: 2960 2960 58
Width: 1308
GlyphClass: 2
Flags: W
LayerCount: 2
Fore
SplineSet
1414 612 m 0,0,1
 1414 544 1414 544 1368 458 c 0,2,3
 1332 392 1332 392 1296 362 c 0,4,5
 1230 312 1230 312 1158 312 c 2,6,-1
 868 322 l 1,7,-1
 598 332 l 2,8,9
 502 332 502 332 426 236 c 0,10,11
 370 162 370 162 364 92 c 1,12,13
 364 -8 364 -8 454 -8 c 0,14,15
 520 -8 520 -8 596 94 c 0,16,17
 660 184 660 184 678 290 c 1,18,-1
 942 290 l 1,19,20
 900 278 900 278 871 218 c 128,-1,21
 842 158 842 158 842 122 c 0,22,23
 842 88 842 88 861 68 c 128,-1,24
 880 48 880 48 906 44 c 1,25,26
 950 44 950 44 994 102 c 0,27,28
 1016 132 1016 132 1029 170 c 128,-1,29
 1042 208 1042 208 1042 250 c 0,30,31
 1042 274 1042 274 1028 286 c 1,32,-1
 1240 286 l 2,33,34
 1298 286 1298 286 1298 238 c 0,35,36
 1298 154 1298 154 1273 90 c 128,-1,37
 1248 26 1248 26 1196 -22 c 0,38,39
 1110 -98 1110 -98 976 -98 c 0,40,41
 802 -98 802 -98 758 -6 c 1,42,43
 646 -114 646 -114 432 -114 c 0,44,45
 132 -114 132 -114 132 140 c 0,46,47
 132 240 132 240 220 334 c 0,48,49
 296 420 296 420 352 420 c 1,50,51
 280 458 280 458 280 576 c 0,52,53
 280 658 280 658 360 748 c 0,54,55
 472 870 472 870 722 870 c 0,56,57
 894 870 894 870 974 814 c 1,58,59
 1046 850 1046 850 1118 850 c 0,60,61
 1228 850 1228 850 1304 812 c 0,62,63
 1414 754 1414 754 1414 612 c 0,0,1
1194 628 m 1,64,65
 1194 760 1194 760 1092 760 c 0,66,67
 1052 760 1052 760 1040 734 c 1,68,-1
 1048 682 l 2,69,70
 1048 656 1048 656 1016 584 c 2,71,-1
 956 448 l 1,72,73
 942 446 942 446 914 446 c 0,74,75
 874 446 874 446 832 458 c 0,76,77
 768 476 768 476 768 508 c 0,78,79
 768 520 768 520 805 599 c 128,-1,80
 842 678 842 678 842 708 c 0,81,82
 842 742 842 742 798 767 c 128,-1,83
 754 792 754 792 718 792 c 0,84,85
 606 792 606 792 550 712 c 1,86,87
 602 712 602 712 631 710 c 128,-1,88
 660 708 660 708 688 696 c 0,89,90
 756 668 756 668 756 590 c 0,91,92
 756 506 756 506 660 416 c 1,93,-1
 1058 406 l 1,94,95
 1122 430 1122 430 1160 506 c 0,96,97
 1188 562 1188 562 1194 628 c 1,64,65
584 602 m 0,98,99
 584 628 584 628 578 638 c 1,100,-1
 560 644 l 1,101,102
 474 618 474 618 474 516 c 0,103,104
 474 484 474 484 480 474 c 1,105,106
 488 470 488 470 516 466 c 1,107,108
 536 478 536 478 559 526 c 128,-1,109
 582 574 582 574 584 602 c 0,98,99
EndSplineSet
EndChar

StartChar: tm_o
Encoding: 2962 2962 59
Width: 1010
GlyphClass: 2
Flags: W
LayerCount: 2
Fore
SplineSet
1146 534 m 0,0,1
 1146 454 1146 454 1108 396 c 128,-1,2
 1070 338 1070 338 992 296 c 0,3,4
 928 264 928 264 822 264 c 1,5,-1
 734 272 l 1,6,7
 778 222 778 222 864 222 c 0,8,9
 900 222 900 222 958 242 c 2,10,-1
 1026 264 l 1,11,12
 1050 258 1050 258 1050 230 c 0,13,14
 1050 212 1050 212 1038 188 c 1,15,16
 958 188 958 188 918 150 c 0,17,18
 896 130 896 130 856 48 c 0,19,20
 796 -80 796 -80 734 -134 c 0,21,22
 656 -200 656 -200 508 -200 c 0,23,24
 380 -200 380 -200 289 -146 c 128,-1,25
 198 -92 198 -92 198 16 c 0,26,27
 198 42 198 42 216 88 c 2,28,-1
 244 170 l 1,29,30
 262 164 262 164 290 164 c 2,31,-1
 338 168 l 1,32,33
 390 168 390 168 418 149 c 128,-1,34
 446 130 446 130 446 102 c 0,35,36
 446 88 446 88 421 37 c 128,-1,37
 396 -14 396 -14 392 -36 c 1,38,39
 392 -66 392 -66 422 -84 c 128,-1,40
 452 -102 452 -102 494 -102 c 0,41,42
 568 -102 568 -102 638 34 c 1,43,-1
 672 110 l 2,44,45
 692 158 692 158 718 182 c 1,46,47
 634 228 634 228 634 318 c 0,48,49
 634 394 634 394 675 474 c 128,-1,50
 716 554 716 554 754 554 c 0,51,52
 804 554 804 554 836 516 c 1,53,54
 790 510 790 510 764 466 c 1,55,56
 738 434 738 434 738 394 c 0,57,58
 738 344 738 344 788 344 c 0,59,60
 830 344 830 344 873 401 c 128,-1,61
 916 458 916 458 922 522 c 1,62,63
 922 608 922 608 852 650 c 0,64,65
 790 684 790 684 694 684 c 0,66,67
 516 684 516 684 466 592 c 1,68,-1
 484 590 l 1,69,-1
 502 588 l 1,70,71
 554 588 554 588 595 554 c 128,-1,72
 636 520 636 520 636 442 c 0,73,74
 636 368 636 368 566 297 c 128,-1,75
 496 226 496 226 390 226 c 0,76,77
 302 226 302 226 248 278 c 128,-1,78
 194 330 194 330 194 436 c 0,79,80
 194 588 194 588 372 690 c 0,81,82
 526 778 526 778 720 778 c 0,83,84
 804 778 804 778 876 764 c 128,-1,85
 948 750 948 750 1010 720 c 0,86,87
 1146 656 1146 656 1146 534 c 0,0,1
484 484 m 1,88,89
 484 526 484 526 452 528 c 1,90,-1
 428 522 l 1,91,92
 404 510 404 510 378 454 c 0,93,94
 368 432 368 432 361 404 c 128,-1,95
 354 376 354 376 350 352 c 1,96,97
 350 310 350 310 382 308 c 0,98,99
 420 308 420 308 456 384 c 0,100,101
 478 438 478 438 484 484 c 1,88,89
EndSplineSet
EndChar

StartChar: tm_oo
Encoding: 2963 2963 60
Width: 1014
GlyphClass: 2
Flags: W
LayerCount: 2
Fore
SplineSet
1148 524 m 0,0,1
 1148 464 1148 464 1100 388 c 0,2,3
 1022 264 1022 264 826 264 c 1,4,-1
 754 270 l 1,5,6
 780 226 780 226 848 226 c 0,7,8
 872 226 872 226 894 230 c 128,-1,9
 916 234 916 234 954 246 c 128,-1,10
 992 258 992 258 1012 263 c 128,-1,11
 1032 268 1032 268 1052 270 c 1,12,-1
 1048 192 l 1,13,14
 952 192 952 192 902 142 c 1,15,16
 882 116 882 116 835 18 c 128,-1,17
 788 -80 788 -80 689 -139 c 128,-1,18
 590 -198 590 -198 464 -198 c 0,19,20
 170 -198 170 -198 170 -16 c 0,21,22
 170 162 170 162 392 162 c 0,23,24
 552 162 552 162 552 26 c 0,25,26
 552 -50 552 -50 460 -118 c 1,27,28
 498 -118 498 -118 532 -98 c 128,-1,29
 566 -78 566 -78 596 -42 c 128,-1,30
 626 -6 626 -6 674 90 c 0,31,32
 710 168 710 168 736 182 c 1,33,34
 638 216 638 216 638 330 c 0,35,36
 638 372 638 372 649 413 c 128,-1,37
 660 454 660 454 680 488 c 0,38,39
 714 542 714 542 760 542 c 0,40,41
 784 542 784 542 809 529 c 128,-1,42
 834 516 834 516 836 506 c 1,43,44
 746 484 746 484 734 376 c 1,45,46
 756 344 756 344 780 342 c 0,47,48
 836 342 836 342 877 395 c 128,-1,49
 918 448 918 448 918 510 c 0,50,51
 918 672 918 672 690 672 c 0,52,53
 602 672 602 672 548 648 c 0,54,55
 512 630 512 630 464 576 c 1,56,57
 530 576 530 576 584 543 c 128,-1,58
 638 510 638 510 638 444 c 0,59,60
 638 372 638 372 565 297 c 128,-1,61
 492 222 492 222 406 222 c 0,62,63
 318 222 318 222 252 276 c 0,64,65
 196 326 196 326 196 424 c 0,66,67
 196 570 196 570 370 678 c 0,68,69
 530 776 530 776 724 776 c 0,70,71
 884 776 884 776 1016 709 c 128,-1,72
 1148 642 1148 642 1148 524 c 0,0,1
482 464 m 0,73,74
 482 506 482 506 460 506 c 0,75,76
 444 506 444 506 408 484 c 1,77,78
 358 382 358 382 352 340 c 1,79,80
 352 304 352 304 386 304 c 0,81,82
 422 304 422 304 452 362 c 128,-1,83
 482 420 482 420 482 464 c 0,73,74
418 60 m 0,84,85
 416 90 416 90 392 92 c 0,86,87
 322 92 322 92 322 -34 c 0,88,89
 322 -60 322 -60 342 -82 c 1,90,91
 418 -24 418 -24 418 60 c 0,84,85
EndSplineSet
EndChar

StartChar: tm_au
Encoding: 2964 2964 61
Width: 2458
GlyphClass: 2
Flags: W
LayerCount: 2
Fore
SplineSet
2694 704 m 0,0,1
 2694 678 2694 678 2665 642 c 128,-1,2
 2636 606 2636 606 2604 604 c 1,3,-1
 2486 616 l 1,4,5
 2454 566 2454 566 2414 491 c 128,-1,6
 2374 416 2374 416 2318 300 c 0,7,8
 2226 110 2226 110 2188 14 c 1,9,-1
 2070 52 l 1,10,11
 2010 84 2010 84 2010 152 c 0,12,13
 2010 176 2010 176 2030 208 c 0,14,15
 2118 364 2118 364 2176 474 c 0,16,17
 2228 574 2228 574 2262 652 c 1,18,-1
 2228 654 l 1,19,20
 2084 654 2084 654 2034 610 c 1,21,22
 2066 570 2066 570 2066 512 c 0,23,24
 2066 420 2066 420 1948 225 c 128,-1,25
 1830 30 1830 30 1814 -20 c 1,26,27
 1660 14 1660 14 1660 116 c 0,28,29
 1660 132 1660 132 1682 182 c 1,30,-1
 1778 336 l 1,31,32
 1854 466 1854 466 1860 534 c 1,33,34
 1860 584 1860 584 1829 617 c 128,-1,35
 1798 650 1798 650 1746 650 c 0,36,37
 1686 650 1686 650 1630 612 c 0,38,39
 1612 600 1612 600 1585 577 c 128,-1,40
 1558 554 1558 554 1520 518 c 1,41,-1
 1564 520 l 1,42,43
 1716 520 1716 520 1716 366 c 0,44,45
 1716 304 1716 304 1689 243 c 128,-1,46
 1662 182 1662 182 1608 116 c 0,47,48
 1500 -10 1500 -10 1370 -10 c 0,49,50
 1286 -10 1286 -10 1228 40 c 0,51,52
 1162 96 1162 96 1162 208 c 0,53,54
 1162 294 1162 294 1205 385 c 128,-1,55
 1248 476 1248 476 1330 578 c 0,56,57
 1466 742 1466 742 1720 742 c 0,58,59
 1820 742 1820 742 1920 694 c 1,60,61
 2000 762 2000 762 2160 762 c 0,62,63
 2220 762 2220 762 2350 738 c 0,64,65
 2398 730 2398 730 2437 725 c 128,-1,66
 2476 720 2476 720 2486 720 c 0,67,68
 2520 720 2520 720 2558 737 c 128,-1,69
 2596 754 2596 754 2638 784 c 1,70,71
 2694 762 2694 762 2694 704 c 0,0,1
1540 376 m 1,72,-1
 1538 422 l 1,73,74
 1522 428 1522 428 1510 428 c 0,75,76
 1462 428 1462 428 1350 280 c 1,77,78
 1332 236 1332 236 1325 210 c 128,-1,79
 1318 184 1318 184 1318 164 c 0,80,81
 1318 106 1318 106 1366 106 c 0,82,83
 1412 106 1412 106 1473 209 c 128,-1,84
 1534 312 1534 312 1540 376 c 1,72,-1
1146 534 m 0,85,86
 1146 454 1146 454 1108 396 c 128,-1,87
 1070 338 1070 338 992 296 c 0,88,89
 928 264 928 264 822 264 c 1,90,-1
 734 272 l 1,91,92
 778 222 778 222 864 222 c 0,93,94
 900 222 900 222 958 242 c 2,95,-1
 1026 264 l 1,96,97
 1050 258 1050 258 1050 230 c 0,98,99
 1050 212 1050 212 1038 188 c 1,100,101
 958 188 958 188 918 150 c 0,102,103
 896 130 896 130 856 48 c 0,104,105
 796 -80 796 -80 734 -134 c 0,106,107
 656 -200 656 -200 508 -200 c 0,108,109
 380 -200 380 -200 289 -146 c 128,-1,110
 198 -92 198 -92 198 16 c 0,111,112
 198 42 198 42 216 88 c 2,113,-1
 244 170 l 1,114,115
 262 164 262 164 290 164 c 2,116,-1
 338 168 l 1,117,118
 390 168 390 168 418 149 c 128,-1,119
 446 130 446 130 446 102 c 0,120,121
 446 88 446 88 421 37 c 128,-1,122
 396 -14 396 -14 392 -36 c 1,123,124
 392 -66 392 -66 422 -84 c 128,-1,125
 452 -102 452 -102 494 -102 c 0,126,127
 568 -102 568 -102 638 34 c 1,128,-1
 672 110 l 2,129,130
 692 158 692 158 718 182 c 1,131,132
 634 228 634 228 634 318 c 0,133,134
 634 394 634 394 675 474 c 128,-1,135
 716 554 716 554 754 554 c 0,136,137
 804 554 804 554 836 516 c 1,138,139
 790 510 790 510 764 466 c 1,140,141
 738 434 738 434 738 394 c 0,142,143
 738 344 738 344 788 344 c 0,144,145
 830 344 830 344 873 401 c 128,-1,146
 916 458 916 458 922 522 c 1,147,148
 922 608 922 608 852 650 c 0,149,150
 790 684 790 684 694 684 c 0,151,152
 516 684 516 684 466 592 c 1,153,-1
 484 590 l 1,154,-1
 502 588 l 1,155,156
 554 588 554 588 595 554 c 128,-1,157
 636 520 636 520 636 442 c 0,158,159
 636 368 636 368 566 297 c 128,-1,160
 496 226 496 226 390 226 c 0,161,162
 302 226 302 226 248 278 c 128,-1,163
 194 330 194 330 194 436 c 0,164,165
 194 588 194 588 372 690 c 0,166,167
 526 778 526 778 720 778 c 0,168,169
 804 778 804 778 876 764 c 128,-1,170
 948 750 948 750 1010 720 c 0,171,172
 1146 656 1146 656 1146 534 c 0,85,86
484 484 m 1,173,174
 484 526 484 526 452 528 c 1,175,-1
 428 522 l 1,176,177
 404 510 404 510 378 454 c 0,178,179
 368 432 368 432 361 404 c 128,-1,180
 354 376 354 376 350 352 c 1,181,182
 350 310 350 310 382 308 c 0,183,184
 420 308 420 308 456 384 c 0,185,186
 478 438 478 438 484 484 c 1,173,174
EndSplineSet
EndChar

StartChar: tm_ka
Encoding: 2965 2965 62
Width: 1072
GlyphClass: 2
Flags: W
LayerCount: 2
Fore
SplineSet
1164 392 m 0,0,1
 1164 242 1164 242 1045 131 c 128,-1,2
 926 20 926 20 764 20 c 0,3,4
 662 20 662 20 614 80 c 1,5,6
 500 2 500 2 386 2 c 0,7,8
 280 2 280 2 202 57 c 128,-1,9
 124 112 124 112 124 230 c 0,10,11
 124 280 124 280 144 333 c 128,-1,12
 164 386 164 386 198 434 c 0,13,14
 252 514 252 514 322 542 c 1,15,-1
 378 560 l 1,16,-1
 372 606 l 1,17,18
 372 670 372 670 448 724 c 0,19,20
 524 774 524 774 604 774 c 1,21,-1
 738 762 l 2,22,23
 838 750 838 750 888 750 c 0,24,25
 1004 750 1004 750 1080 812 c 1,26,27
 1140 818 1140 818 1166 742 c 1,28,29
 1116 674 1116 674 974 674 c 1,30,31
 940 644 940 644 914 594 c 1,32,33
 986 594 986 594 1046 564 c 0,34,35
 1164 506 1164 506 1164 392 c 0,0,1
762 694 m 1,36,-1
 724 696 l 2,37,38
 676 696 676 696 624 660 c 0,39,40
 578 624 578 624 564 580 c 1,41,-1
 694 580 l 1,42,-1
 762 694 l 1,36,-1
966 386 m 0,43,44
 966 490 966 490 874 510 c 1,45,46
 838 410 838 410 824 374 c 0,47,48
 792 300 792 300 773 257 c 128,-1,49
 754 214 754 214 700 152 c 1,50,51
 712 136 712 136 730 132 c 1,52,53
 818 132 818 132 892 225 c 128,-1,54
 966 318 966 318 966 386 c 0,43,44
672 518 m 1,55,-1
 640 518 l 2,56,57
 608 518 608 518 555 503 c 128,-1,58
 502 488 502 488 474 466 c 0,59,60
 414 422 414 422 371 346 c 128,-1,61
 328 270 328 270 328 210 c 0,62,63
 328 120 328 120 412 120 c 0,64,65
 488 120 488 120 560 246 c 0,66,67
 590 302 590 302 672 518 c 1,55,-1
EndSplineSet
EndChar

StartChar: tm_nga
Encoding: 2969 2969 63
Width: 1370
GlyphClass: 2
Flags: W
LayerCount: 2
Fore
SplineSet
1614 768 m 1,0,1
 1544 704 1544 704 1461 445 c 128,-1,2
 1378 186 1378 186 1346 142 c 0,3,4
 1292 66 1292 66 1244 30 c 0,5,6
 1190 -6 1190 -6 1096 -6 c 0,7,8
 1014 -6 1014 -6 956 8 c 1,9,-1
 864 22 l 1,10,11
 814 22 814 22 776 0 c 1,12,-1
 726 26 l 2,13,14
 704 38 704 38 704 78 c 256,15,16
 704 118 704 118 742 130 c 2,17,-1
 786 140 l 1,18,19
 896 228 896 228 896 376 c 0,20,21
 896 448 896 448 852 448 c 0,22,23
 826 448 826 448 806 426 c 1,24,25
 658 52 658 52 670 8 c 1,26,27
 476 8 476 8 488 118 c 1,28,-1
 500 166 l 1,29,-1
 678 656 l 1,30,31
 600 644 600 644 548 624 c 0,32,33
 494 600 494 600 422 404 c 0,34,35
 322 130 322 130 292 76 c 0,36,37
 244 -12 244 -12 150 -12 c 0,38,39
 90 -12 90 -12 18 36 c 1,40,41
 48 54 48 54 84 90 c 0,42,43
 108 112 108 112 186 341 c 128,-1,44
 264 570 264 570 284 604 c 0,45,46
 364 744 364 744 558 744 c 1,47,-1
 676 738 l 1,48,-1
 794 732 l 1,49,50
 958 732 958 732 1008 818 c 1,51,52
 1070 804 1070 804 1070 754 c 0,53,54
 1070 712 1070 712 1026 690 c 128,-1,55
 982 668 982 668 896 668 c 1,56,57
 892 654 892 654 876 611 c 128,-1,58
 860 568 860 568 838 518 c 1,59,60
 874 530 874 530 916 530 c 0,61,62
 1110 530 1110 530 1110 336 c 0,63,64
 1110 260 1110 260 1058 180 c 0,65,66
 1026 126 1026 126 988 98 c 1,67,68
 1004 92 1004 92 1036 92 c 0,69,70
 1094 92 1094 92 1150 174 c 0,71,72
 1158 186 1158 186 1226 404 c 128,-1,73
 1294 622 1294 622 1312 660 c 0,74,75
 1366 780 1366 780 1514 780 c 1,76,-1
 1614 768 l 1,0,1
EndSplineSet
EndChar

StartChar: tm_ca
Encoding: 2970 2970 64
Width: 1044
GlyphClass: 2
Flags: W
LayerCount: 2
Fore
SplineSet
1234 564 m 0,0,1
 1234 524 1234 524 1146 488 c 0,2,3
 1132 484 1132 484 1093 473 c 128,-1,4
 1054 462 1054 462 1024 462 c 0,5,6
 972 462 972 462 900 474 c 2,7,-1
 792 490 l 1,8,-1
 740 306 l 1,9,10
 716 206 716 206 700 186 c 0,11,12
 570 2 570 2 374 2 c 0,13,14
 276 2 276 2 205 61 c 128,-1,15
 134 120 134 120 134 230 c 0,16,17
 134 350 134 350 185 427 c 128,-1,18
 236 504 236 504 334 542 c 1,19,-1
 312 570 l 2,20,21
 304 580 304 580 304 612 c 0,22,23
 304 784 304 784 618 784 c 1,24,-1
 678 778 l 1,25,-1
 780 772 l 1,26,27
 974 772 974 772 974 856 c 1,28,29
 1008 856 1008 856 1044 843 c 128,-1,30
 1080 830 1080 830 1082 814 c 0,31,32
 1076 748 1076 748 910 710 c 1,33,-1
 856 634 l 1,34,-1
 824 572 l 1,35,-1
 974 564 l 1,36,37
 1148 564 1148 564 1160 634 c 1,38,39
 1234 634 1234 634 1234 564 c 0,0,1
710 716 m 1,40,-1
 670 718 l 2,41,42
 624 718 624 718 571 692 c 128,-1,43
 518 666 518 666 512 610 c 1,44,-1
 514 578 l 1,45,-1
 596 580 l 1,46,-1
 658 580 l 1,47,48
 680 656 680 656 710 716 c 1,40,-1
634 492 m 1,49,50
 530 492 530 492 420 417 c 128,-1,51
 310 342 310 342 310 246 c 0,52,53
 310 216 310 216 321 187 c 128,-1,54
 332 158 332 158 386 102 c 0,55,56
 422 68 422 68 454 64 c 1,57,58
 508 64 508 64 556 202 c 1,59,-1
 634 492 l 1,49,50
EndSplineSet
EndChar

StartChar: tm_ja
Encoding: 2972 2972 65
Width: 1264
GlyphClass: 2
Flags: W
LayerCount: 2
Fore
SplineSet
1326 414 m 0,0,1
 1282 286 1282 286 1162 248 c 1,2,3
 1238 214 1238 214 1238 112 c 0,4,5
 1238 74 1238 74 1224 32 c 0,6,7
 1194 -50 1194 -50 1114 -109 c 128,-1,8
 1034 -168 1034 -168 940 -168 c 0,9,10
 872 -168 872 -168 812 -144 c 0,11,12
 742 -114 742 -114 742 -60 c 1,13,-1
 738 -38 l 1,14,15
 642 -200 642 -200 370 -200 c 0,16,17
 228 -200 228 -200 152 -134 c 0,18,19
 88 -80 88 -80 88 18 c 0,20,21
 88 70 88 70 108 124 c 0,22,23
 156 262 156 262 324 298 c 1,24,25
 226 338 226 338 226 466 c 0,26,27
 226 506 226 506 240 548 c 0,28,29
 318 772 318 772 660 772 c 0,30,31
 818 772 818 772 910 722 c 1,32,33
 964 758 964 758 1070 758 c 0,34,35
 1352 758 1352 758 1352 546 c 0,36,37
 1352 484 1352 484 1326 414 c 0,0,1
1116 456 m 0,38,39
 1134 508 1134 508 1134 550 c 0,40,41
 1134 670 1134 670 1022 670 c 0,42,43
 992 670 992 670 974 652 c 1,44,45
 986 616 986 616 986 586 c 0,46,47
 986 558 986 558 950 480 c 2,48,-1
 898 356 l 1,49,50
 708 356 708 356 708 416 c 0,51,52
 708 438 708 438 742 500 c 0,53,54
 760 536 760 536 769 561 c 128,-1,55
 778 586 778 586 778 606 c 0,56,57
 778 650 778 650 738 672 c 128,-1,58
 698 694 698 694 644 694 c 0,59,60
 550 694 550 694 484 610 c 1,61,-1
 526 612 l 1,62,63
 692 612 692 612 692 498 c 0,64,65
 692 466 692 466 678 426 c 0,66,67
 648 342 648 342 560 304 c 1,68,-1
 954 304 l 2,69,70
 1000 304 1000 304 1046 348 c 0,71,72
 1092 388 1092 388 1116 456 c 0,38,39
508 440 m 0,73,74
 512 452 512 452 517 476 c 128,-1,75
 522 500 522 500 524 512 c 0,76,77
 524 542 524 542 504 542 c 0,78,79
 480 542 480 542 416 464 c 1,80,-1
 414 434 l 1,81,-1
 412 404 l 2,82,83
 412 368 412 368 446 368 c 256,84,85
 480 368 480 368 508 440 c 0,73,74
970 76 m 0,86,87
 982 110 982 110 982 136 c 0,88,89
 982 210 982 210 918 210 c 0,90,91
 866 210 866 210 832 158 c 0,92,93
 804 110 804 110 752 -12 c 1,94,-1
 776 2 l 1,95,96
 806 -38 806 -38 850 -38 c 0,97,98
 928 -38 928 -38 970 76 c 0,86,87
674 234 m 1,99,-1
 548 234 l 2,100,101
 474 234 474 234 416 185 c 128,-1,102
 358 136 358 136 332 60 c 0,103,104
 318 18 318 18 318 -10 c 0,105,106
 318 -98 318 -98 410 -98 c 0,107,108
 480 -98 480 -98 538 -8 c 1,109,-1
 614 146 l 2,110,111
 646 208 646 208 674 234 c 1,99,-1
EndSplineSet
EndChar

StartChar: tm_nya
Encoding: 2974 2974 66
Width: 1596
GlyphClass: 2
Flags: W
LayerCount: 2
Fore
SplineSet
1628 180 m 0,0,1
 1556 -26 1556 -26 1355 -124 c 128,-1,2
 1154 -222 1154 -222 858 -222 c 0,3,4
 560 -222 560 -222 354 -128 c 0,5,6
 108 -20 108 -20 108 172 c 0,7,8
 108 196 108 196 111 220 c 128,-1,9
 114 244 114 244 130 284 c 0,10,11
 168 392 168 392 263 473 c 128,-1,12
 358 554 358 554 456 554 c 0,13,14
 514 554 514 554 518 524 c 1,15,16
 518 482 518 482 448 418 c 0,17,18
 370 346 370 346 349 291 c 128,-1,19
 328 236 328 236 328 186 c 0,20,21
 328 46 328 46 473 -36 c 128,-1,22
 618 -118 618 -118 844 -118 c 0,23,24
 1276 -118 1276 -118 1386 186 c 0,25,26
 1414 266 1414 266 1414 316 c 0,27,28
 1414 404 1414 404 1342 404 c 1,29,-1
 1308 398 l 1,30,31
 1194 108 1194 108 1182 66 c 0,32,33
 1178 46 1178 46 1154 -4 c 1,34,35
 1096 -4 1096 -4 1047 25 c 128,-1,36
 998 54 998 54 998 108 c 0,37,38
 998 142 998 142 1080 338 c 0,39,40
 1186 600 1186 600 1218 696 c 1,41,-1
 1130 700 l 1,42,43
 1010 700 1010 700 929 656 c 128,-1,44
 848 612 848 612 772 508 c 1,45,-1
 848 516 l 1,46,47
 1012 516 1012 516 1012 360 c 0,48,49
 1012 334 1012 334 1006 303 c 128,-1,50
 1000 272 1000 272 986 232 c 0,51,52
 960 154 960 154 890 84 c 0,53,54
 798 -4 798 -4 672 -4 c 0,55,56
 572 -4 572 -4 520 68 c 0,57,58
 482 122 482 122 482 232 c 0,59,60
 482 362 482 362 576 511 c 128,-1,61
 670 660 670 660 800 724 c 0,62,63
 894 768 894 768 1206 768 c 1,64,-1
 1294 764 l 1,65,-1
 1364 762 l 2,66,67
 1488 762 1488 762 1512 828 c 1,68,69
 1592 804 1592 804 1592 766 c 0,70,71
 1592 722 1592 722 1530 696 c 0,72,73
 1484 678 1484 678 1438 678 c 1,74,-1
 1358 504 l 1,75,76
 1478 504 1478 504 1563 450 c 128,-1,77
 1648 396 1648 396 1648 290 c 0,78,79
 1648 238 1648 238 1628 180 c 0,0,1
844 386 m 0,80,81
 844 434 844 434 812 434 c 0,82,83
 790 434 790 434 724 350 c 0,84,85
 668 276 668 276 654 241 c 128,-1,86
 640 206 640 206 640 180 c 1,87,-1
 666 100 l 1,88,89
 708 106 708 106 776 212 c 128,-1,90
 844 318 844 318 844 386 c 0,80,81
EndSplineSet
EndChar

StartChar: tm_tta
Encoding: 2975 2975 67
Width: 1024
GlyphClass: 2
Flags: W
LayerCount: 2
Fore
SplineSet
1022 46 m 1,0,-1
 904 52 l 2,1,2
 834 52 834 52 783 48 c 128,-1,3
 732 44 732 44 644 28 c 0,4,5
 476 0 476 0 362 0 c 0,6,7
 254 0 254 0 182 47 c 128,-1,8
 110 94 110 94 110 188 c 0,9,10
 110 262 110 262 219 495 c 128,-1,11
 328 728 328 728 328 770 c 1,12,13
 420 770 420 770 450 762 c 0,14,15
 512 750 512 750 512 702 c 0,16,17
 512 662 512 662 415 461 c 128,-1,18
 318 260 318 260 318 204 c 0,19,20
 318 166 318 166 350 128 c 1,21,22
 384 94 384 94 430 94 c 0,23,24
 454 94 454 94 512 102 c 128,-1,25
 570 110 570 110 658 128 c 0,26,27
 838 162 838 162 908 162 c 0,28,29
 986 162 986 162 1010 126 c 0,30,31
 1022 106 1022 106 1022 46 c 1,0,-1
EndSplineSet
EndChar

StartChar: tm_nna
Encoding: 2979 2979 68
Width: 1856
GlyphClass: 2
Flags: W
LayerCount: 2
Fore
SplineSet
2104 736 m 0,0,1
 2104 708 2104 708 2056 674 c 0,2,3
 2018 648 2018 648 1966 634 c 1,4,5
 1856 422 1856 422 1676 8 c 1,6,7
 1528 28 1528 28 1528 146 c 0,8,9
 1528 162 1528 162 1638 382 c 0,10,11
 1758 620 1758 620 1778 674 c 1,12,13
 1730 686 1730 686 1672 686 c 0,14,15
 1586 686 1586 686 1524 658 c 1,16,17
 1592 586 1592 586 1592 472 c 0,18,19
 1592 400 1592 400 1564 324 c 0,20,21
 1516 194 1516 194 1430 98 c 1,22,23
 1330 -6 1330 -6 1216 -6 c 0,24,25
 1058 -6 1058 -6 1014 86 c 1,26,27
 896 -4 896 -4 756 -4 c 0,28,29
 654 -4 654 -4 568 46 c 1,30,31
 454 -8 454 -8 340 -8 c 0,32,33
 130 -8 130 -8 130 202 c 0,34,35
 130 278 130 278 166 380 c 0,36,37
 226 554 226 554 380 664 c 128,-1,38
 534 774 534 774 738 774 c 0,39,40
 944 774 944 774 982 734 c 1,41,42
 1018 766 1018 766 1202 766 c 0,43,44
 1256 766 1256 766 1300 758 c 128,-1,45
 1344 750 1344 750 1402 726 c 1,46,47
 1472 764 1472 764 1634 764 c 0,48,49
 1674 764 1674 764 1722 763 c 128,-1,50
 1770 762 1770 762 1832 748 c 2,51,-1
 1926 732 l 1,52,53
 1950 732 1950 732 1990 758 c 0,54,55
 2026 786 2026 786 2038 808 c 1,56,57
 2104 808 2104 808 2104 736 c 0,0,1
1226 640 m 1,58,59
 1196 646 1196 646 1166 646 c 0,60,61
 1140 646 1140 646 1112 640 c 1,62,63
 1146 600 1146 600 1154 572 c 1,64,65
 1180 616 1180 616 1226 640 c 1,58,59
788 654 m 1,66,-1
 742 662 l 1,67,68
 674 662 674 662 595 620 c 128,-1,69
 516 578 516 578 492 516 c 1,70,71
 568 516 568 516 622 482 c 1,72,-1
 682 572 l 1,73,74
 734 636 734 636 788 654 c 1,66,-1
1404 404 m 0,75,76
 1406 410 1406 410 1412 440 c 128,-1,77
 1418 470 1418 470 1418 476 c 0,78,79
 1418 522 1418 522 1388 562 c 1,80,81
 1336 532 1336 532 1266 439 c 128,-1,82
 1196 346 1196 346 1170 272 c 0,83,84
 1154 220 1154 220 1154 184 c 0,85,86
 1154 126 1154 126 1194 126 c 0,87,88
 1238 126 1238 126 1304 212 c 0,89,90
 1334 252 1334 252 1359 299 c 128,-1,91
 1384 346 1384 346 1404 404 c 0,75,76
954 412 m 0,92,93
 970 462 970 462 974 494 c 1,94,-1
 954 556 l 1,95,96
 908 550 908 550 830 453 c 128,-1,97
 752 356 752 356 716 260 c 0,98,99
 700 212 700 212 700 174 c 0,100,101
 700 112 700 112 742 112 c 0,102,103
 776 112 776 112 848 214 c 0,104,105
 884 264 884 264 909 312 c 128,-1,106
 934 360 934 360 954 412 c 0,92,93
480 308 m 0,107,108
 500 368 500 368 500 410 c 0,109,110
 500 434 500 434 490 434 c 0,111,112
 388 434 388 434 322 264 c 0,113,114
 298 204 298 204 298 154 c 0,115,116
 298 100 298 100 326 100 c 0,117,118
 348 100 348 100 401 167 c 128,-1,119
 454 234 454 234 480 308 c 0,107,108
EndSplineSet
EndChar

StartChar: tm_ta
Encoding: 2980 2980 69
Width: 1056
GlyphClass: 2
Flags: W
LayerCount: 2
Fore
SplineSet
1100 212 m 0,0,1
 1020 -18 1020 -18 772 -104 c 0,2,3
 656 -144 656 -144 502 -144 c 0,4,5
 458 -144 458 -144 414 -144 c 1,6,7
 366 -138 366 -138 342 -136 c 2,8,-1
 202 -130 l 2,9,10
 182 -130 182 -130 166 -130 c 128,-1,11
 150 -130 150 -130 126 -134 c 1,12,13
 90 -134 90 -134 60 -145 c 128,-1,14
 30 -156 30 -156 0 -180 c 0,15,16
 -52 -220 -52 -220 -54 -248 c 1,17,-1
 -112 -218 l 2,18,19
 -146 -196 -146 -196 -146 -148 c 0,20,21
 -146 -106 -146 -106 -64 -74 c 0,22,23
 -22 -58 -22 -58 14 -50 c 128,-1,24
 50 -42 50 -42 94 -42 c 0,25,26
 132 -42 132 -42 184 -44 c 128,-1,27
 236 -46 236 -46 300 -52 c 2,28,-1
 470 -64 l 1,29,30
 614 -64 614 -64 721 16 c 128,-1,31
 828 96 828 96 878 240 c 0,32,33
 906 318 906 318 906 372 c 0,34,35
 906 466 906 466 828 482 c 1,36,37
 782 338 782 338 710 174 c 1,38,39
 602 0 602 0 400 0 c 0,40,41
 282 0 282 0 202 52 c 128,-1,42
 122 104 122 104 122 206 c 0,43,44
 122 250 122 250 140 304 c 0,45,46
 194 452 194 452 334 500 c 1,47,48
 316 536 316 536 316 562 c 0,49,50
 316 610 316 610 352 650 c 128,-1,51
 388 690 388 690 456 722 c 0,52,53
 576 774 576 774 732 774 c 1,54,-1
 800 770 l 1,55,-1
 870 768 l 1,56,57
 1022 768 1022 768 1030 854 c 1,58,59
 1144 854 1144 854 1144 802 c 0,60,61
 1144 738 1144 738 952 702 c 1,62,63
 894 622 894 622 860 562 c 1,64,65
 924 562 924 562 965 555 c 128,-1,66
 1006 548 1006 548 1046 528 c 1,67,68
 1124 474 1124 474 1124 342 c 0,69,70
 1124 282 1124 282 1100 212 c 0,0,1
720 700 m 1,71,72
 688 700 688 700 661 696 c 128,-1,73
 634 692 634 692 612 680 c 0,74,75
 524 638 524 638 516 540 c 1,76,-1
 640 546 l 1,77,78
 682 634 682 634 720 700 c 1,71,72
616 476 m 1,79,80
 414 440 414 440 346 252 c 0,81,82
 330 208 330 208 330 174 c 0,83,84
 330 100 330 100 400 100 c 0,85,86
 492 100 492 100 564 286 c 1,87,-1
 616 476 l 1,79,80
EndSplineSet
EndChar

StartChar: tm_na
Encoding: 2984 2984 70
Width: 1084
GlyphClass: 2
Flags: W
LayerCount: 2
Fore
SplineSet
1140 244 m 0,0,1
 1104 138 1104 138 1011 74 c 128,-1,2
 918 10 918 10 800 10 c 0,3,4
 752 10 752 10 714 28 c 128,-1,5
 676 46 676 46 676 82 c 0,6,7
 676 104 676 104 714 116 c 1,8,-1
 734 112 l 1,9,-1
 754 108 l 1,10,11
 858 108 858 108 918 268 c 0,12,13
 946 342 946 342 946 392 c 0,14,15
 946 464 946 464 888 464 c 1,16,-1
 806 440 l 1,17,18
 650 72 650 72 644 2 c 1,19,-1
 602 -2 l 1,20,21
 540 -2 540 -2 502 29 c 128,-1,22
 464 60 464 60 464 112 c 0,23,24
 464 128 464 128 489 192 c 128,-1,25
 514 256 514 256 564 364 c 0,26,27
 672 598 672 598 696 702 c 1,28,29
 586 702 586 702 522 614 c 0,30,31
 494 578 494 578 408 359 c 128,-1,32
 322 140 322 140 298 104 c 0,33,34
 230 4 230 4 154 4 c 0,35,36
 86 4 86 4 38 46 c 1,37,38
 50 58 50 58 61 71 c 128,-1,39
 72 84 72 84 84 106 c 2,40,-1
 116 164 l 1,41,42
 136 190 136 190 182 324 c 0,43,44
 240 494 240 494 276 564 c 0,45,46
 342 694 342 694 416 742 c 1,47,48
 492 786 492 786 626 786 c 0,49,50
 690 786 690 786 790 768 c 1,51,-1
 916 752 l 1,52,53
 956 752 956 752 1004 782 c 0,54,55
 1020 794 1020 794 1032 804 c 0,56,57
 1052 824 1052 824 1052 846 c 1,58,59
 1130 846 1130 846 1130 774 c 0,60,61
 1130 726 1130 726 1060 702 c 0,62,63
 1012 684 1012 684 960 684 c 2,64,-1
 910 686 l 1,65,-1
 850 542 l 1,66,67
 886 550 886 550 905 551 c 128,-1,68
 924 552 924 552 934 552 c 0,69,70
 1036 552 1036 552 1099 501 c 128,-1,71
 1162 450 1162 450 1162 358 c 0,72,73
 1162 302 1162 302 1140 244 c 0,0,1
EndSplineSet
EndChar

StartChar: tm_nnna
Encoding: 2985 2985 71
Width: 1498
GlyphClass: 2
Flags: W
LayerCount: 2
Fore
SplineSet
1750 732 m 1,0,1
 1744 666 1744 666 1628 642 c 1,2,3
 1598 584 1598 584 1560 504 c 128,-1,4
 1522 424 1522 424 1456 274 c 0,5,6
 1362 60 1362 60 1362 8 c 1,7,8
 1262 20 1262 20 1240 30 c 0,9,10
 1186 52 1186 52 1186 110 c 0,11,12
 1186 130 1186 130 1290 346 c 0,13,14
 1414 598 1414 598 1428 638 c 1,15,16
 1308 674 1308 674 1210 674 c 0,17,18
 1170 674 1170 674 1158 664 c 1,19,20
 1242 594 1242 594 1242 474 c 0,21,22
 1242 448 1242 448 1239 421 c 128,-1,23
 1236 394 1236 394 1220 352 c 0,24,25
 1160 186 1160 186 1010 78 c 0,26,27
 886 -12 886 -12 788 -12 c 0,28,29
 666 -12 666 -12 598 82 c 1,30,31
 484 4 484 4 358 4 c 0,32,33
 140 4 140 4 140 200 c 0,34,35
 140 264 140 264 170 354 c 0,36,37
 320 778 320 778 740 778 c 0,38,39
 800 778 800 778 855 770 c 128,-1,40
 910 762 910 762 994 738 c 1,41,42
 1036 764 1036 764 1106 764 c 0,43,44
 1140 764 1140 764 1188 758 c 128,-1,45
 1236 752 1236 752 1316 736 c 0,46,47
 1468 708 1468 708 1528 708 c 0,48,49
 1554 708 1554 708 1612 746 c 128,-1,50
 1670 784 1670 784 1682 808 c 1,51,52
 1750 808 1750 808 1750 732 c 1,0,1
806 650 m 1,53,54
 778 662 778 662 738 662 c 0,55,56
 674 662 674 662 608 632 c 0,57,58
 538 596 538 596 518 540 c 1,59,60
 598 540 598 540 652 506 c 1,61,-1
 706 582 l 1,62,63
 750 632 750 632 806 650 c 1,53,54
1054 486 m 0,64,65
 1054 546 1054 546 1002 584 c 1,66,67
 952 590 952 590 867 491 c 128,-1,68
 782 392 782 392 736 252 c 0,69,70
 728 224 728 224 727 208 c 128,-1,71
 726 192 726 192 726 184 c 0,72,73
 726 96 726 96 784 96 c 0,74,75
 862 96 862 96 958 240 c 128,-1,76
 1054 384 1054 384 1054 486 c 0,64,65
518 300 m 0,77,78
 530 330 530 330 530 386 c 0,79,80
 530 446 530 446 514 446 c 0,81,82
 376 446 376 446 308 262 c 0,83,84
 292 218 292 218 292 182 c 0,85,86
 292 100 292 100 344 100 c 0,87,88
 446 100 446 100 518 300 c 0,77,78
EndSplineSet
EndChar

StartChar: tm_pa
Encoding: 2986 2986 72
Width: 806
GlyphClass: 2
Flags: W
LayerCount: 2
Fore
SplineSet
1056 810 m 1,0,-1
 1012 762 l 2,1,2
 1002 750 1002 750 994 737 c 128,-1,3
 986 724 986 724 972 696 c 0,4,5
 932 604 932 604 889 444 c 128,-1,6
 846 284 846 284 824 242 c 0,7,8
 782 164 782 164 756 132 c 0,9,10
 720 90 720 90 633 45 c 128,-1,11
 546 0 546 0 426 0 c 0,12,13
 160 0 160 0 160 230 c 0,14,15
 160 290 160 290 238 478 c 128,-1,16
 316 666 316 666 316 720 c 1,17,-1
 308 768 l 1,18,-1
 390 768 l 2,19,20
 522 768 522 768 522 678 c 0,21,22
 522 662 522 662 438 470 c 0,23,24
 396 376 396 376 374 315 c 128,-1,25
 352 254 352 254 352 224 c 0,26,27
 352 106 352 106 462 106 c 0,28,29
 576 106 576 106 654 284 c 1,30,31
 684 396 684 396 715 499 c 128,-1,32
 746 602 746 602 790 734 c 1,33,34
 826 790 826 790 842 804 c 0,35,36
 874 832 874 832 944 832 c 0,37,38
 974 832 974 832 991 828 c 128,-1,39
 1008 824 1008 824 1056 810 c 1,0,-1
EndSplineSet
EndChar

StartChar: tm_ma
Encoding: 2990 2990 73
Width: 1024
GlyphClass: 2
Flags: W
LayerCount: 2
Fore
SplineSet
1162 468 m 0,0,1
 1084 250 1084 250 884 112 c 0,2,3
 824 72 824 72 694 30 c 0,4,5
 576 -4 576 -4 514 -4 c 0,6,7
 324 -4 324 -4 235 50 c 128,-1,8
 146 104 146 104 146 220 c 0,9,10
 146 274 146 274 236 476 c 0,11,12
 278 574 278 574 302 637 c 128,-1,13
 326 700 326 700 326 724 c 256,14,15
 326 748 326 748 318 764 c 1,16,17
 418 764 418 764 448 758 c 0,18,19
 512 744 512 744 512 684 c 0,20,21
 512 662 512 662 428 476 c 0,22,23
 352 302 352 302 346 240 c 1,24,25
 346 194 346 194 368 163 c 128,-1,26
 390 132 390 132 440 118 c 1,27,-1
 580 492 l 2,28,29
 622 608 622 608 643 671 c 128,-1,30
 664 734 664 734 668 758 c 1,31,-1
 662 788 l 1,32,-1
 782 794 l 1,33,-1
 902 800 l 1,34,35
 1062 800 1062 800 1126 766 c 128,-1,36
 1190 732 1190 732 1190 614 c 0,37,38
 1190 582 1190 582 1184 546 c 128,-1,39
 1178 510 1178 510 1162 468 c 0,0,1
960 512 m 0,40,41
 990 596 990 596 990 646 c 0,42,43
 990 716 990 716 918 716 c 0,44,45
 906 716 906 716 888 713 c 128,-1,46
 870 710 870 710 860 708 c 1,47,-1
 668 132 l 1,48,49
 852 216 852 216 960 512 c 0,40,41
EndSplineSet
EndChar

StartChar: tm_ya
Encoding: 2991 2991 74
Width: 1176
GlyphClass: 2
Flags: W
LayerCount: 2
Fore
SplineSet
1404 752 m 1,0,1
 1342 672 1342 672 1282 504 c 2,2,-1
 1186 238 l 1,3,4
 1132 112 1132 112 1058 62 c 0,5,6
 1014 32 1014 32 950 16 c 128,-1,7
 886 0 886 0 798 0 c 0,8,9
 642 0 642 0 528 78 c 1,10,11
 436 -10 436 -10 288 -10 c 0,12,13
 112 -10 112 -10 112 132 c 0,14,15
 112 158 112 158 118 189 c 128,-1,16
 124 220 124 220 138 263 c 128,-1,17
 152 306 152 306 240 484 c 0,18,19
 304 616 304 616 316 692 c 1,20,21
 480 692 480 692 480 588 c 0,22,23
 480 570 480 570 403 403 c 128,-1,24
 326 236 326 236 326 202 c 0,25,26
 326 114 326 114 394 114 c 0,27,28
 424 114 424 114 453 133 c 128,-1,29
 482 152 482 152 482 180 c 1,30,-1
 478 204 l 1,31,32
 478 240 478 240 582 454 c 128,-1,33
 686 668 686 668 686 710 c 1,34,35
 848 710 848 710 848 614 c 0,36,37
 848 590 848 590 770 430 c 128,-1,38
 692 270 692 270 686 214 c 1,39,40
 686 160 686 160 716 124 c 1,41,42
 752 92 752 92 796 92 c 0,43,44
 880 92 880 92 948 202 c 0,45,46
 986 268 986 268 1049 451 c 128,-1,47
 1112 634 1112 634 1168 714 c 0,48,49
 1216 780 1216 780 1284 780 c 0,50,51
 1364 780 1364 780 1404 752 c 1,0,1
EndSplineSet
EndChar

StartChar: tm_ra
Encoding: 2992 2992 75
Width: 842
GlyphClass: 2
Flags: W
LayerCount: 2
Fore
SplineSet
1104 768 m 0,0,1
 1104 684 1104 684 930 684 c 1,2,3
 792 384 792 384 650 -50 c 0,4,5
 620 -144 620 -144 540 -195 c 128,-1,6
 460 -246 460 -246 362 -246 c 0,7,8
 322 -246 322 -246 268 -234 c 128,-1,9
 214 -222 214 -222 138 -194 c 0,10,11
 -8 -142 -8 -142 -98 -142 c 0,12,13
 -150 -142 -150 -142 -195 -167 c 128,-1,14
 -240 -192 -240 -192 -240 -232 c 1,15,16
 -264 -232 -264 -232 -277 -230 c 128,-1,17
 -290 -228 -290 -228 -302 -216 c 0,18,19
 -324 -200 -324 -200 -324 -162 c 0,20,21
 -324 -114 -324 -114 -278 -77 c 128,-1,22
 -232 -40 -232 -40 -176 -40 c 0,23,24
 -136 -40 -136 -40 16 -82 c 128,-1,25
 168 -124 168 -124 246 -124 c 0,26,27
 416 -124 416 -124 456 8 c 0,28,29
 476 82 476 82 511 179 c 128,-1,30
 546 276 546 276 592 388 c 2,31,-1
 712 682 l 1,32,33
 566 682 566 682 508 606 c 0,34,35
 482 574 482 574 412 374 c 0,36,37
 330 150 330 150 300 98 c 0,38,39
 244 0 244 0 152 0 c 0,40,41
 70 0 70 0 12 50 c 1,42,43
 66 90 66 90 106 136 c 0,44,45
 124 158 124 158 199 374 c 128,-1,46
 274 590 274 590 298 636 c 0,47,48
 340 724 340 724 416 756 c 0,49,50
 474 780 474 780 578 780 c 0,51,52
 626 780 626 780 710 768 c 128,-1,53
 794 756 794 756 832 756 c 0,54,55
 1036 756 1036 756 1036 840 c 1,56,57
 1104 840 1104 840 1104 768 c 0,0,1
EndSplineSet
EndChar

StartChar: tm_rra
Encoding: 2993 2993 76
Width: 1082
GlyphClass: 2
Flags: W
LayerCount: 2
Fore
SplineSet
1158 332 m 0,0,1
 1086 122 1086 122 966 14 c 0,2,3
 778 -158 778 -158 488 -158 c 1,4,-1
 308 -146 l 2,5,6
 252 -146 252 -146 166 -140 c 128,-1,7
 80 -134 80 -134 52 -134 c 0,8,9
 -146 -134 -146 -134 -170 -232 c 1,10,11
 -268 -220 -268 -220 -268 -182 c 0,12,13
 -268 -60 -268 -60 28 -60 c 1,14,-1
 200 -66 l 1,15,-1
 384 -72 l 1,16,17
 530 -72 530 -72 630 -28 c 128,-1,18
 730 16 730 16 814 121 c 128,-1,19
 898 226 898 226 950 364 c 1,20,21
 988 478 988 478 988 558 c 0,22,23
 988 688 988 688 904 688 c 0,24,25
 882 688 882 688 862 682 c 128,-1,26
 842 676 842 676 816 660 c 1,27,28
 844 626 844 626 844 578 c 0,29,30
 844 544 844 544 740 319 c 128,-1,31
 636 94 636 94 630 30 c 1,32,-1
 608 30 l 2,33,34
 528 30 528 30 502 40 c 0,35,36
 434 58 434 58 434 114 c 0,37,38
 434 138 434 138 444 164 c 2,39,-1
 552 404 l 2,40,41
 632 574 632 574 632 608 c 0,42,43
 632 656 632 656 598 656 c 0,44,45
 552 656 552 656 504 596 c 0,46,47
 462 538 462 538 408 378 c 0,48,49
 342 182 342 182 320 142 c 0,50,51
 282 64 282 64 235 33 c 128,-1,52
 188 2 188 2 112 2 c 0,53,54
 70 2 70 2 16 32 c 1,55,-1
 60 68 l 2,56,57
 84 86 84 86 96 112 c 0,58,59
 144 210 144 210 198 378 c 0,60,61
 222 454 222 454 237 503 c 128,-1,62
 252 552 252 552 256 556 c 0,63,64
 310 662 310 662 392 710 c 0,65,66
 466 750 466 750 584 750 c 0,67,68
 660 750 660 750 730 722 c 1,69,70
 788 774 788 774 926 774 c 0,71,72
 1052 774 1052 774 1124 709 c 128,-1,73
 1196 644 1196 644 1196 524 c 0,74,75
 1196 438 1196 438 1158 332 c 0,0,1
EndSplineSet
EndChar

StartChar: tm_la
Encoding: 2994 2994 77
Width: 1236
GlyphClass: 2
Flags: W
LayerCount: 2
Fore
SplineSet
1324 338 m 0,0,1
 1274 196 1274 196 1156 102 c 0,2,3
 1030 0 1030 0 868 0 c 0,4,5
 782 0 782 0 714 34 c 128,-1,6
 646 68 646 68 632 132 c 1,7,8
 542 -12 542 -12 360 -12 c 0,9,10
 258 -12 258 -12 195 44 c 128,-1,11
 132 100 132 100 132 208 c 0,12,13
 132 288 132 288 167 383 c 128,-1,14
 202 478 202 478 340 620 c 0,15,16
 458 738 458 738 670 738 c 0,17,18
 826 738 826 738 914 682 c 1,19,-1
 920 766 l 1,20,21
 982 792 982 792 1032 792 c 0,22,23
 1176 792 1176 792 1267 719 c 128,-1,24
 1358 646 1358 646 1358 512 c 0,25,26
 1358 428 1358 428 1324 338 c 0,0,1
790 568 m 1,27,28
 790 616 790 616 767 639 c 128,-1,29
 744 662 744 662 694 662 c 0,30,31
 542 662 542 662 436 478 c 1,32,33
 480 498 480 498 526 498 c 0,34,35
 694 498 694 498 694 338 c 1,36,-1
 756 460 l 2,37,38
 784 520 784 520 790 568 c 1,27,28
1130 394 m 0,39,40
 1160 478 1160 478 1160 540 c 0,41,42
 1160 686 1160 686 1002 686 c 0,43,44
 960 686 960 686 942 662 c 1,45,46
 990 620 990 620 990 532 c 0,47,48
 990 492 990 492 922 364 c 0,49,50
 892 306 892 306 874 259 c 128,-1,51
 856 212 856 212 856 192 c 0,52,53
 856 132 856 132 912 132 c 0,54,55
 962 132 962 132 1028 213 c 128,-1,56
 1094 294 1094 294 1130 394 c 0,39,40
494 338 m 0,57,58
 494 396 494 396 460 396 c 0,59,60
 408 396 408 396 348 286 c 0,61,62
 306 208 306 208 306 146 c 0,63,64
 306 88 306 88 346 88 c 0,65,66
 394 88 394 88 446 184 c 0,67,68
 468 228 468 228 481 267 c 128,-1,69
 494 306 494 306 494 338 c 0,57,58
EndSplineSet
EndChar

StartChar: tm_lla
Encoding: 2995 2995 78
Width: 1420
GlyphClass: 2
Flags: W
LayerCount: 2
Fore
SplineSet
1654 704 m 0,0,1
 1654 678 1654 678 1625 642 c 128,-1,2
 1596 606 1596 606 1564 604 c 1,3,-1
 1446 616 l 1,4,5
 1414 566 1414 566 1374 491 c 128,-1,6
 1334 416 1334 416 1278 300 c 0,7,8
 1186 110 1186 110 1148 14 c 1,9,-1
 1030 52 l 1,10,11
 970 84 970 84 970 152 c 0,12,13
 970 176 970 176 990 208 c 0,14,15
 1078 364 1078 364 1136 474 c 0,16,17
 1188 574 1188 574 1222 652 c 1,18,-1
 1188 654 l 1,19,20
 1044 654 1044 654 994 610 c 1,21,22
 1026 570 1026 570 1026 512 c 0,23,24
 1026 420 1026 420 908 225 c 128,-1,25
 790 30 790 30 774 -20 c 1,26,27
 620 14 620 14 620 116 c 0,28,29
 620 132 620 132 642 182 c 1,30,-1
 738 336 l 1,31,32
 814 466 814 466 820 534 c 1,33,34
 820 584 820 584 789 617 c 128,-1,35
 758 650 758 650 706 650 c 0,36,37
 646 650 646 650 590 612 c 0,38,39
 572 600 572 600 545 577 c 128,-1,40
 518 554 518 554 480 518 c 1,41,-1
 524 520 l 1,42,43
 676 520 676 520 676 366 c 0,44,45
 676 304 676 304 649 243 c 128,-1,46
 622 182 622 182 568 116 c 0,47,48
 460 -10 460 -10 330 -10 c 0,49,50
 246 -10 246 -10 188 40 c 0,51,52
 122 96 122 96 122 208 c 0,53,54
 122 294 122 294 165 385 c 128,-1,55
 208 476 208 476 290 578 c 0,56,57
 426 742 426 742 680 742 c 0,58,59
 780 742 780 742 880 694 c 1,60,61
 960 762 960 762 1120 762 c 0,62,63
 1180 762 1180 762 1310 738 c 0,64,65
 1358 730 1358 730 1397 725 c 128,-1,66
 1436 720 1436 720 1446 720 c 0,67,68
 1480 720 1480 720 1518 737 c 128,-1,69
 1556 754 1556 754 1598 784 c 1,70,71
 1654 762 1654 762 1654 704 c 0,0,1
500 376 m 1,72,-1
 498 422 l 1,73,74
 482 428 482 428 470 428 c 0,75,76
 422 428 422 428 310 280 c 1,77,78
 292 236 292 236 285 210 c 128,-1,79
 278 184 278 184 278 164 c 0,80,81
 278 106 278 106 326 106 c 0,82,83
 372 106 372 106 433 209 c 128,-1,84
 494 312 494 312 500 376 c 1,72,-1
EndSplineSet
EndChar

StartChar: tm_llla
Encoding: 2996 2996 79
Width: 1058
GlyphClass: 2
Flags: W
LayerCount: 2
Fore
SplineSet
1180 448 m 0,0,1
 1106 240 1106 240 987 135 c 128,-1,2
 868 30 868 30 670 6 c 1,3,4
 698 -36 698 -36 764 -36 c 0,5,6
 842 -36 842 -36 926 34 c 1,7,8
 942 32 942 32 960 13 c 128,-1,9
 978 -6 978 -6 978 -22 c 0,10,11
 970 -74 970 -74 843 -128 c 128,-1,12
 716 -182 716 -182 538 -182 c 0,13,14
 464 -182 464 -182 434 -180 c 0,15,16
 366 -170 366 -170 324 -168 c 2,17,-1
 64 -154 l 2,18,19
 38 -154 38 -154 11 -160 c 128,-1,20
 -16 -166 -16 -166 -46 -180 c 0,21,22
 -102 -206 -102 -206 -114 -234 c 1,23,24
 -134 -230 -134 -230 -150 -207 c 128,-1,25
 -166 -184 -166 -184 -166 -158 c 0,26,27
 -166 -116 -166 -116 -72 -90 c 0,28,29
 -36 -80 -36 -80 7 -74 c 128,-1,30
 50 -68 50 -68 98 -68 c 0,31,32
 198 -68 198 -68 332 -82 c 0,33,34
 404 -90 404 -90 457 -94 c 128,-1,35
 510 -98 510 -98 556 -98 c 2,36,-1
 618 -94 l 1,37,-1
 522 -4 l 1,38,-1
 476 -4 l 2,39,40
 338 -4 338 -4 252 30 c 0,41,42
 144 72 144 72 144 174 c 0,43,44
 144 224 144 224 234 450 c 0,45,46
 276 556 276 556 300 624 c 128,-1,47
 324 692 324 692 324 712 c 2,48,-1
 324 764 l 1,49,50
 528 764 528 764 528 660 c 0,51,52
 528 634 528 634 444 424 c 128,-1,53
 360 214 360 214 360 186 c 0,54,55
 360 100 360 100 472 72 c 1,56,-1
 464 108 l 1,57,58
 464 136 464 136 554 370 c 0,59,60
 606 506 606 506 639 603 c 128,-1,61
 672 700 672 700 694 774 c 1,62,-1
 982 774 l 2,63,64
 1212 774 1212 774 1212 604 c 0,65,66
 1212 538 1212 538 1180 448 c 0,0,1
978 504 m 0,67,68
 1010 600 1010 600 1010 642 c 0,69,70
 1010 676 1010 676 990 688 c 0,71,72
 978 692 978 692 938 692 c 1,73,-1
 884 684 l 1,74,-1
 752 350 l 1,75,-1
 692 206 l 2,76,77
 664 140 664 140 658 82 c 1,78,79
 718 104 718 104 766 148 c 0,80,81
 894 274 894 274 978 504 c 0,67,68
EndSplineSet
EndChar

StartChar: tm_va
Encoding: 2997 2997 80
Width: 1294
GlyphClass: 2
Flags: W
LayerCount: 2
Fore
SplineSet
1550 802 m 1,0,1
 1510 790 1510 790 1488 750 c 0,2,3
 1456 690 1456 690 1376 446 c 1,4,-1
 1294 182 l 1,5,6
 1236 50 1236 50 1166 20 c 0,7,8
 1108 -4 1108 -4 1024 -4 c 2,9,-1
 898 2 l 1,10,-1
 762 10 l 2,11,12
 702 10 702 10 660 -19 c 128,-1,13
 618 -48 618 -48 604 -48 c 0,14,15
 564 -48 564 -48 564 26 c 1,16,17
 466 -60 466 -60 342 -60 c 0,18,19
 244 -60 244 -60 182 -1 c 128,-1,20
 120 58 120 58 120 166 c 0,21,22
 120 246 120 246 156 348 c 0,23,24
 228 544 228 544 359 633 c 128,-1,25
 490 722 490 722 746 722 c 0,26,27
 1048 722 1048 722 1048 494 c 0,28,29
 1048 422 1048 422 1016 332 c 0,30,31
 950 146 950 146 846 84 c 1,32,33
 912 84 912 84 965 103 c 128,-1,34
 1018 122 1018 122 1064 166 c 0,35,36
 1094 196 1094 196 1158 412 c 0,37,38
 1192 536 1192 536 1215 608 c 128,-1,39
 1238 680 1238 680 1250 706 c 0,40,41
 1316 838 1316 838 1468 838 c 0,42,43
 1520 838 1520 838 1550 802 c 1,0,1
796 342 m 0,44,45
 830 440 830 440 830 504 c 0,46,47
 830 638 830 638 714 638 c 0,48,49
 582 638 582 638 462 464 c 1,50,51
 504 476 504 476 548 476 c 0,52,53
 712 476 712 476 712 314 c 0,54,55
 712 190 712 190 608 64 c 1,56,57
 646 70 646 70 705 157 c 128,-1,58
 764 244 764 244 796 342 c 0,44,45
482 236 m 0,59,60
 504 298 504 298 504 354 c 0,61,62
 504 396 504 396 480 400 c 1,63,64
 428 400 428 400 374 292 c 1,65,66
 324 180 324 180 324 104 c 0,67,68
 324 42 324 42 364 42 c 0,69,70
 410 42 410 42 482 236 c 0,59,60
EndSplineSet
EndChar

StartChar: tm_ssa
Encoding: 2999 2999 81
Width: 1666
GlyphClass: 2
Flags: W
LayerCount: 2
Fore
SplineSet
1742 492 m 0,0,1
 1714 412 1714 412 1616 302 c 1,2,-1
 1430 116 l 1,3,4
 1644 116 1644 116 1694 134 c 1,5,6
 1694 90 1694 90 1684 74 c 0,7,8
 1666 46 1666 46 1618 24 c 1,9,-1
 1342 24 l 1,10,11
 1272 -56 1272 -56 1235 -116 c 128,-1,12
 1198 -176 1198 -176 1198 -218 c 0,13,14
 1198 -232 1198 -232 1228 -260 c 1,15,16
 1006 -260 1006 -260 1006 -106 c 0,17,18
 1006 -66 1006 -66 1074 22 c 1,19,20
 798 22 798 22 704 20 c 0,21,22
 652 16 652 16 602 12 c 1,23,24
 566 30 566 30 566 76 c 1,25,26
 474 -4 474 -4 364 -4 c 0,27,28
 266 -4 266 -4 202 62 c 0,29,30
 142 128 142 128 142 242 c 0,31,32
 142 330 142 330 176 424 c 0,33,34
 230 580 230 580 368 676 c 128,-1,35
 506 772 506 772 692 772 c 0,36,37
 842 772 842 772 952 697 c 128,-1,38
 1062 622 1062 622 1062 476 c 0,39,40
 1062 402 1062 402 1028 316 c 0,41,42
 970 162 970 162 890 108 c 1,43,-1
 1152 112 l 1,44,-1
 1294 254 l 1,45,46
 1112 296 1112 296 1112 444 c 0,47,48
 1112 494 1112 494 1132 548 c 0,49,50
 1216 786 1216 786 1488 786 c 0,51,52
 1598 786 1598 786 1678 733 c 128,-1,53
 1758 680 1758 680 1758 580 c 0,54,55
 1758 550 1758 550 1756 536 c 128,-1,56
 1754 522 1754 522 1742 492 c 0,0,1
1502 536 m 0,57,58
 1522 590 1522 590 1522 636 c 0,59,60
 1522 692 1522 692 1490 694 c 0,61,62
 1464 694 1464 694 1423 638 c 128,-1,63
 1382 582 1382 582 1358 514 c 128,-1,64
 1334 446 1334 446 1334 406 c 0,65,66
 1334 352 1334 352 1374 334 c 1,67,68
 1464 442 1464 442 1502 536 c 0,57,58
818 352 m 0,69,70
 852 450 852 450 852 518 c 0,71,72
 852 682 852 682 686 682 c 0,73,74
 544 682 544 682 446 492 c 1,75,-1
 500 496 l 1,76,77
 582 496 582 496 640 455 c 128,-1,78
 698 414 698 414 698 336 c 0,79,80
 698 220 698 220 594 104 c 1,81,82
 744 146 744 146 818 352 c 0,69,70
474 262 m 256,83,84
 498 328 498 328 498 366 c 0,85,86
 498 408 498 408 466 410 c 0,87,88
 422 410 422 410 376 332 c 1,89,90
 324 210 324 210 324 146 c 0,91,92
 324 90 324 90 366 90 c 0,93,94
 382 90 382 90 416 143 c 128,-1,95
 450 196 450 196 474 262 c 256,83,84
EndSplineSet
EndChar

StartChar: tm_sa
Encoding: 3000 3000 82
Width: 1692
GlyphClass: 2
Flags: W
LayerCount: 2
Fore
SplineSet
1774 320 m 0,0,1
 1654 0 1654 0 1322 0 c 0,2,3
 1034 0 1034 0 1034 188 c 0,4,5
 1034 200 1034 200 1048 237 c 128,-1,6
 1062 274 1062 274 1092 334 c 2,7,-1
 1176 516 l 1,8,-1
 1186 570 l 1,9,10
 1186 654 1186 654 1088 654 c 0,11,12
 1048 654 1048 654 1030 630 c 1,13,14
 1066 588 1066 588 1066 526 c 0,15,16
 1066 480 1066 480 1046 422 c 128,-1,17
 1026 364 1026 364 954 204 c 0,18,19
 890 64 890 64 876 2 c 1,20,21
 686 2 686 2 686 114 c 0,22,23
 686 146 686 146 744 268 c 0,24,25
 818 426 818 426 834 477 c 128,-1,26
 850 528 850 528 850 564 c 0,27,28
 850 688 850 688 710 688 c 0,29,30
 582 688 582 688 460 482 c 1,31,32
 482 494 482 494 526 494 c 0,33,34
 604 494 604 494 657 452 c 128,-1,35
 710 410 710 410 710 328 c 0,36,37
 710 278 710 278 690 220 c 0,38,39
 612 -2 612 -2 408 -2 c 0,40,41
 146 -2 146 -2 146 234 c 0,42,43
 146 320 146 320 180 416 c 0,44,45
 304 784 304 784 686 784 c 0,46,47
 822 784 822 784 938 714 c 1,48,49
 992 772 992 772 1120 772 c 0,50,51
 1252 772 1252 772 1348 694 c 1,52,53
 1348 780 1348 780 1444 780 c 0,54,55
 1588 780 1588 780 1697 699 c 128,-1,56
 1806 618 1806 618 1806 476 c 0,57,58
 1806 402 1806 402 1774 320 c 0,0,1
1546 360 m 0,59,60
 1584 468 1584 468 1584 538 c 0,61,62
 1584 682 1584 682 1452 682 c 0,63,64
 1416 682 1416 682 1386 652 c 1,65,66
 1422 610 1422 610 1422 542 c 0,67,68
 1422 518 1422 518 1411 486 c 128,-1,69
 1400 454 1400 454 1374 402 c 2,70,-1
 1306 256 l 1,71,72
 1292 214 1292 214 1292 184 c 0,73,74
 1292 106 1292 106 1342 106 c 0,75,76
 1456 106 1456 106 1546 360 c 0,59,60
520 364 m 0,77,78
 520 412 520 412 490 412 c 0,79,80
 456 412 456 412 426 376 c 2,81,-1
 376 308 l 1,82,83
 334 208 334 208 334 154 c 0,84,85
 334 102 334 102 378 90 c 0,86,87
 408 84 408 84 464 188 c 128,-1,88
 520 292 520 292 520 364 c 0,77,78
EndSplineSet
EndChar

StartChar: tm_ha
Encoding: 3001 3001 83
Width: 2100
GlyphClass: 2
Flags: W
LayerCount: 2
Fore
SplineSet
2166 296 m 0,0,1
 2076 46 2076 46 1858 -74 c 0,2,3
 1792 -110 1792 -110 1640 -140 c 128,-1,4
 1488 -170 1488 -170 1358 -170 c 1,5,6
 1242 -160 1242 -160 1120 -153 c 128,-1,7
 998 -146 998 -146 892 -146 c 1,8,-1
 466 -124 l 1,9,10
 176 -124 176 -124 128 -258 c 1,11,-1
 64 -240 l 2,12,13
 36 -232 36 -232 36 -186 c 0,14,15
 36 -106 36 -106 156 -64 c 0,16,17
 246 -34 246 -34 380 -34 c 0,18,19
 428 -34 428 -34 518 -40 c 0,20,21
 730 -54 730 -54 842 -54 c 256,22,23
 954 -54 954 -54 1118 -64 c 128,-1,24
 1282 -74 1282 -74 1334 -74 c 0,25,26
 1452 -74 1452 -74 1572 -30 c 0,27,28
 1716 24 1716 24 1794 122 c 128,-1,29
 1872 220 1872 220 1924 360 c 1,30,31
 1968 492 1968 492 1968 578 c 0,32,33
 1968 714 1968 714 1868 714 c 0,34,35
 1832 714 1832 714 1798 694 c 1,36,37
 1818 656 1818 656 1818 606 c 0,38,39
 1818 552 1818 552 1733 350 c 128,-1,40
 1648 148 1648 148 1642 86 c 1,41,-1
 1660 46 l 1,42,43
 1618 28 1618 28 1576 28 c 0,44,45
 1514 28 1514 28 1470 60 c 128,-1,46
 1426 92 1426 92 1426 152 c 0,47,48
 1426 176 1426 176 1520 397 c 128,-1,49
 1614 618 1614 618 1616 644 c 0,50,51
 1616 698 1616 698 1582 698 c 0,52,53
 1528 698 1528 698 1484 612 c 0,54,55
 1448 544 1448 544 1409 434 c 128,-1,56
 1370 324 1370 324 1330 186 c 0,57,58
 1318 136 1318 136 1250 78 c 0,59,60
 1172 10 1172 10 1098 10 c 0,61,62
 992 10 992 10 910 22 c 2,63,-1
 804 34 l 1,64,65
 724 34 724 34 642 -4 c 1,66,-1
 614 62 l 1,67,68
 530 -4 530 -4 412 -4 c 0,69,70
 142 -4 142 -4 142 228 c 0,71,72
 142 306 142 306 178 408 c 0,73,74
 232 568 232 568 370 666 c 0,75,76
 516 772 516 772 712 772 c 0,77,78
 892 772 892 772 995 699 c 128,-1,79
 1098 626 1098 626 1098 484 c 0,80,81
 1098 406 1098 406 1062 300 c 0,82,83
 1020 186 1020 186 964 112 c 1,84,85
 1078 134 1078 134 1132 266 c 1,86,87
 1176 404 1176 404 1270 658 c 1,88,89
 1342 816 1342 816 1552 816 c 0,90,91
 1666 816 1666 816 1746 754 c 1,92,93
 1854 800 1854 800 1956 800 c 0,94,95
 2214 800 2214 800 2214 540 c 0,96,97
 2214 434 2214 434 2166 296 c 0,0,1
830 292 m 0,98,99
 872 406 872 406 872 494 c 0,100,101
 872 584 872 584 829 632 c 128,-1,102
 786 680 786 680 724 680 c 0,103,104
 574 680 574 680 462 502 c 1,105,106
 504 516 504 516 576 516 c 0,107,108
 766 516 766 516 766 358 c 0,109,110
 766 224 766 224 662 108 c 1,111,-1
 728 98 l 1,112,113
 786 170 786 170 830 292 c 0,98,99
510 228 m 0,114,115
 550 338 550 338 550 394 c 256,116,117
 550 450 550 450 508 450 c 256,118,119
 466 450 466 450 434 388 c 2,120,-1
 374 276 l 1,121,122
 356 204 356 204 356 154 c 0,123,124
 356 78 356 78 400 78 c 0,125,126
 452 78 452 78 510 228 c 0,114,115
EndSplineSet
EndChar

StartChar: tm_aakaar
Encoding: 3006 3006 84
Width: 872
GlyphClass: 2
Flags: W
LayerCount: 2
Fore
SplineSet
1134 766 m 0,0,1
 1134 674 1134 674 962 674 c 1,2,3
 786 288 786 288 716 -2 c 1,4,5
 618 -2 618 -2 584 15 c 128,-1,6
 550 32 550 32 550 94 c 0,7,8
 550 126 550 126 638 338 c 0,9,10
 738 590 738 590 758 654 c 1,11,12
 640 654 640 654 566 627 c 128,-1,13
 492 600 492 600 474 562 c 0,14,15
 446 502 446 502 376 302 c 0,16,17
 324 162 324 162 277 75 c 128,-1,18
 230 -12 230 -12 140 -22 c 1,19,20
 54 -22 54 -22 8 26 c 1,21,-1
 58 64 l 2,22,23
 82 82 82 82 100 114 c 0,24,25
 152 214 152 214 206 389 c 128,-1,26
 260 564 260 564 286 612 c 0,27,28
 358 756 358 756 536 756 c 1,29,-1
 718 750 l 1,30,-1
 890 746 l 2,31,32
 920 746 920 746 936 748 c 128,-1,33
 952 750 952 750 986 762 c 0,34,35
 1062 786 1062 786 1062 830 c 1,36,37
 1134 830 1134 830 1134 766 c 0,0,1
EndSplineSet
EndChar

StartChar: tm_ikaar
Encoding: 3007 3007 85
Width: 530
GlyphClass: 2
Flags: W
LayerCount: 2
Fore
SplineSet
258 20 m 1,0,-1
 100 20 l 1,1,-1
 100 1022 l 2,2,3
 100 1362 100 1362 -106 1362 c 2,4,-1
 -172 1362 l 2,5,6
 -256 1362 -256 1362 -316 1296 c 128,-1,7
 -376 1230 -376 1230 -376 1136 c 2,8,-1
 -376 1088 l 2,9,10
 -376 1016 -376 1016 -332 974 c 1,11,-1
 -492 974 l 1,12,13
 -510 992 -510 992 -522 1024 c 1,14,-1
 -536 1088 l 1,15,-1
 -536 1136 l 2,16,17
 -536 1280 -536 1280 -438 1378 c 128,-1,18
 -340 1476 -340 1476 -172 1476 c 2,19,-1
 -106 1476 l 2,20,21
 62 1476 62 1476 160 1347 c 128,-1,22
 258 1218 258 1218 258 1022 c 2,23,-1
 258 20 l 1,0,-1
EndSplineSet
EndChar

StartChar: tm_iikaar
Encoding: 3008 3008 86
Width: 0
GlyphClass: 4
Flags: W
LayerCount: 2
Fore
SplineSet
-130 1342 m 2,0,1
 -130 1300 -130 1300 -180 1248 c 1,2,3
 -230 1204 -230 1204 -290 1204 c 2,4,-1
 -380 1204 l 2,5,6
 -456 1204 -456 1204 -508 1258 c 0,7,8
 -556 1312 -556 1312 -556 1390 c 2,9,-1
 -554 1434 l 2,10,11
 -554 1448 -554 1448 -540 1478 c 1,12,13
 -588 1478 -588 1478 -644 1428 c 128,-1,14
 -700 1378 -700 1378 -700 1318 c 2,15,-1
 -700 1270 l 2,16,17
 -700 1226 -700 1226 -680 1178 c 128,-1,18
 -660 1130 -660 1130 -630 1090 c 1,19,-1
 -790 1090 l 1,20,-1
 -812 1132 l 1,21,-1
 -832 1178 l 2,22,23
 -856 1242 -856 1242 -856 1270 c 2,24,-1
 -856 1342 l 2,25,26
 -856 1438 -856 1438 -759 1517 c 128,-1,27
 -662 1596 -662 1596 -546 1596 c 2,28,-1
 -414 1596 l 2,29,30
 -318 1596 -318 1596 -224 1541 c 128,-1,31
 -130 1486 -130 1486 -130 1408 c 2,32,-1
 -130 1342 l 2,0,1
-290 1388 m 2,33,-1
 -290 1430 l 2,34,35
 -290 1456 -290 1456 -300 1466 c 2,36,-1
 -324 1488 l 1,37,-1
 -358 1496 l 1,38,39
 -384 1496 -384 1496 -402 1481 c 128,-1,40
 -420 1466 -420 1466 -428 1430 c 1,41,-1
 -428 1388 l 2,42,43
 -428 1358 -428 1358 -410 1340 c 128,-1,44
 -392 1322 -392 1322 -358 1318 c 0,45,46
 -334 1318 -334 1318 -310 1336 c 1,47,48
 -290 1356 -290 1356 -290 1388 c 2,33,-1
EndSplineSet
EndChar

StartChar: tm_ukaar
Encoding: 3009 3009 87
Width: 537
GlyphClass: 4
Flags: W
LayerCount: 2
Fore
SplineSet
696 592 m 0,0,1
 676 530 676 530 582 490 c 0,2,3
 542 474 542 474 508 466 c 128,-1,4
 474 458 474 458 430 458 c 0,5,6
 198 458 198 458 198 630 c 1,7,-1
 70 624 l 2,8,9
 42 624 42 624 21 643 c 128,-1,10
 0 662 0 662 0 692 c 0,11,12
 0 714 0 714 18 736 c 1,13,-1
 40 736 l 2,14,15
 78 736 78 736 118 736 c 128,-1,16
 158 736 158 736 198 738 c 2,17,-1
 224 738 l 1,18,-1
 254 836 l 1,19,20
 278 850 278 850 318 850 c 0,21,22
 414 850 414 850 444 808 c 1,23,24
 444 790 444 790 426 748 c 1,25,-1
 558 752 l 2,26,27
 616 752 616 752 660 724 c 128,-1,28
 704 696 704 696 704 640 c 0,29,30
 704 616 704 616 696 592 c 0,0,1
472 604 m 1,31,-1
 462 646 l 1,32,-1
 392 644 l 1,33,-1
 382 610 l 1,34,35
 382 546 382 546 430 546 c 0,36,37
 466 546 466 546 472 604 c 1,31,-1
EndSplineSet
EndChar

StartChar: tm_uukaar
Encoding: 3010 3010 88
Width: 850
GlyphClass: 4
Flags: W
LayerCount: 2
Fore
SplineSet
846 510 m 0,0,1
 802 382 802 382 676 314 c 0,2,3
 572 256 572 256 404 256 c 0,4,5
 280 256 280 256 280 320 c 1,6,7
 286 382 286 382 326 382 c 1,8,-1
 390 368 l 1,9,10
 432 368 432 368 472 379 c 128,-1,11
 512 390 512 390 546 412 c 0,12,13
 618 460 618 460 648 542 c 0,14,15
 666 594 666 594 666 644 c 0,16,17
 666 722 666 722 619 775 c 128,-1,18
 572 828 572 828 498 828 c 0,19,20
 388 828 388 828 332 732 c 1,21,22
 350 744 350 744 496 744 c 0,23,24
 550 744 550 744 579 708 c 128,-1,25
 608 672 608 672 602 614 c 1,26,27
 602 572 602 572 583 540 c 128,-1,28
 564 508 564 508 524 478 c 0,29,30
 462 430 462 430 358 430 c 0,31,32
 132 430 132 430 132 624 c 1,33,-1
 -24 624 l 1,34,35
 -78 630 -78 630 -78 688 c 0,36,37
 -78 708 -78 708 -70 732 c 1,38,39
 -52 726 -52 726 5 724 c 128,-1,40
 62 722 62 722 150 722 c 1,41,42
 188 832 188 832 294 898 c 0,43,44
 388 952 388 952 524 952 c 0,45,46
 662 952 662 952 766 864 c 128,-1,47
 870 776 870 776 870 640 c 0,48,49
 870 582 870 582 846 510 c 0,0,1
408 634 m 1,50,-1
 304 632 l 1,51,-1
 302 604 l 1,52,53
 302 534 302 534 354 528 c 0,54,55
 378 528 378 528 397 555 c 128,-1,56
 416 582 416 582 416 608 c 0,57,58
 416 626 416 626 408 634 c 1,50,-1
EndSplineSet
EndChar

StartChar: tm_ekaar
Encoding: 3014 3014 89
Width: 1018
GlyphClass: 2
Flags: W
LayerCount: 2
Fore
SplineSet
1196 696 m 0,0,1
 1196 664 1196 664 1168 588 c 128,-1,2
 1140 512 1140 512 1088 398 c 0,3,4
 976 148 976 148 934 -16 c 1,5,-1
 816 8 l 1,6,7
 768 26 768 26 768 108 c 0,8,9
 768 140 768 140 874 388 c 0,10,11
 928 516 928 516 957 606 c 128,-1,12
 986 696 986 696 986 752 c 0,13,14
 986 818 986 818 924 850 c 0,15,16
 902 860 902 860 875 866 c 128,-1,17
 848 872 848 872 814 872 c 0,18,19
 672 872 672 872 514 636 c 1,20,-1
 610 636 l 2,21,22
 720 636 720 636 772 560 c 0,23,24
 794 530 794 530 802 496 c 128,-1,25
 810 462 810 462 810 412 c 0,26,27
 810 268 810 268 690 134 c 128,-1,28
 570 0 570 0 414 0 c 0,29,30
 304 0 304 0 240 56 c 0,31,32
 160 122 160 122 160 276 c 0,33,34
 160 352 160 352 181 427 c 128,-1,35
 202 502 202 502 246 586 c 0,36,37
 320 728 320 728 438 828 c 0,38,39
 598 960 598 960 838 960 c 0,40,41
 1196 960 1196 960 1196 696 c 0,0,1
624 458 m 0,42,43
 624 492 624 492 600 515 c 128,-1,44
 576 538 576 538 546 540 c 0,45,46
 506 540 506 540 471 524 c 128,-1,47
 436 508 436 508 398 468 c 1,48,49
 322 302 322 302 322 196 c 0,50,51
 322 152 322 152 345 122 c 128,-1,52
 368 92 368 92 398 92 c 0,53,54
 486 92 486 92 562 254 c 0,55,56
 592 318 592 318 608 369 c 128,-1,57
 624 420 624 420 624 458 c 0,42,43
EndSplineSet
EndChar

StartChar: tm_eekaar
Encoding: 3015 3015 90
Width: 1060
GlyphClass: 2
Flags: W
LayerCount: 2
Fore
SplineSet
1250 822 m 0,0,1
 1250 764 1250 764 1204 682 c 0,2,3
 1148 574 1148 574 1050 530 c 1,4,5
 1112 482 1112 482 1112 382 c 0,6,7
 1112 244 1112 244 984 110 c 0,8,9
 880 0 880 0 672 0 c 0,10,11
 470 0 470 0 340 66 c 0,12,13
 262 108 262 108 226 170 c 128,-1,14
 190 232 190 232 190 322 c 0,15,16
 190 386 190 386 211 459 c 128,-1,17
 232 532 232 532 276 626 c 0,18,19
 364 814 364 814 498 930 c 0,20,21
 650 1058 650 1058 888 1058 c 0,22,23
 1024 1058 1024 1058 1126 1008 c 0,24,25
 1250 948 1250 948 1250 822 c 0,0,1
1070 882 m 0,26,27
 1070 892 1070 892 1034 928 c 1,28,29
 958 928 958 928 908 844 c 0,30,31
 886 802 886 802 875 772 c 128,-1,32
 864 742 864 742 864 710 c 0,33,34
 864 698 864 698 876 678 c 128,-1,35
 888 658 888 658 902 656 c 0,36,37
 960 650 960 650 1020 742 c 0,38,39
 1042 782 1042 782 1056 817 c 128,-1,40
 1070 852 1070 852 1070 882 c 0,26,27
756 572 m 1,41,42
 722 604 722 604 706 644 c 128,-1,43
 690 684 690 684 690 728 c 0,44,45
 690 778 690 778 707 822 c 128,-1,46
 724 866 724 866 756 902 c 1,47,48
 640 860 640 860 524 634 c 0,49,50
 456 498 456 498 419 401 c 128,-1,51
 382 304 382 304 382 252 c 0,52,53
 382 128 382 128 522 86 c 1,54,55
 458 142 458 142 458 216 c 0,56,57
 458 298 458 298 521 397 c 128,-1,58
 584 496 584 496 646 536 c 0,59,60
 688 560 688 560 756 572 c 1,41,42
852 466 m 0,61,62
 772 466 772 466 690 326 c 0,63,64
 626 216 626 216 620 144 c 0,65,66
 620 104 620 104 700 86 c 1,67,-1
 758 106 l 1,68,69
 796 138 796 138 860 260 c 0,70,71
 908 348 908 348 908 410 c 0,72,73
 908 466 908 466 852 466 c 0,61,62
EndSplineSet
EndChar

StartChar: tm_aikaar
Encoding: 3016 3016 91
Width: 1392
GlyphClass: 2
Flags: W
LayerCount: 2
Fore
SplineSet
1502 430 m 0,0,1
 1502 286 1502 286 1332 140 c 0,2,3
 1170 2 1170 2 1016 2 c 1,4,5
 1034 36 1034 36 1106 106 c 0,6,7
 1186 182 1186 182 1218 231 c 128,-1,8
 1250 280 1250 280 1266 330 c 128,-1,9
 1282 380 1282 380 1282 436 c 0,10,11
 1282 482 1282 482 1274 520 c 128,-1,12
 1266 558 1266 558 1242 602 c 0,13,14
 1190 694 1190 694 1112 694 c 1,15,-1
 1068 690 l 1,16,17
 1098 656 1098 656 1121 595 c 128,-1,18
 1144 534 1144 534 1144 476 c 0,19,20
 1144 402 1144 402 1113 330 c 128,-1,21
 1082 258 1082 258 1018 182 c 0,22,23
 894 32 894 32 750 32 c 0,24,25
 692 32 692 32 652 50 c 0,26,27
 632 62 632 62 586 104 c 1,28,29
 450 8 450 8 364 8 c 0,30,31
 270 8 270 8 209 61 c 128,-1,32
 148 114 148 114 148 222 c 256,33,34
 148 330 148 330 191 422 c 128,-1,35
 234 514 234 514 320 598 c 0,36,37
 488 760 488 760 720 760 c 0,38,39
 832 760 832 760 892 740 c 1,40,41
 924 768 924 768 1146 768 c 0,42,43
 1302 768 1302 768 1402 685 c 128,-1,44
 1502 602 1502 602 1502 430 c 0,0,1
764 654 m 1,45,-1
 708 658 l 1,46,47
 582 658 582 658 452 516 c 1,48,-1
 476 518 l 1,49,-1
 500 520 l 1,50,51
 562 520 562 520 596 488 c 1,52,53
 648 580 648 580 764 654 c 1,45,-1
970 522 m 0,54,55
 970 540 970 540 958 564 c 2,56,-1
 938 602 l 1,57,58
 906 594 906 594 852 560 c 1,59,60
 806 502 806 502 760 402 c 0,61,62
 738 348 738 348 725 301 c 128,-1,63
 712 254 712 254 712 216 c 0,64,65
 712 192 712 192 724 160 c 128,-1,66
 736 128 736 128 754 124 c 1,67,68
 818 124 818 124 896 274 c 0,69,70
 932 344 932 344 951 406 c 128,-1,71
 970 468 970 468 970 522 c 0,54,55
512 370 m 0,72,73
 512 424 512 424 464 424 c 0,74,75
 414 424 414 424 368 384 c 1,76,77
 298 276 298 276 298 172 c 0,78,79
 298 154 298 154 311 128 c 128,-1,80
 324 102 324 102 346 102 c 0,81,82
 408 102 408 102 460 201 c 128,-1,83
 512 300 512 300 512 370 c 0,72,73
EndSplineSet
EndChar

StartChar: tm_halant
Encoding: 3021 3021 95
Width: 0
GlyphClass: 4
Flags: W
LayerCount: 2
Fore
SplineSet
-496 1388 m 0,0,1
 -496 1326 -496 1326 -536 1285 c 128,-1,2
 -576 1244 -576 1244 -646 1244 c 0,3,4
 -712 1244 -712 1244 -750 1284 c 0,5,6
 -784 1324 -784 1324 -784 1394 c 0,7,8
 -784 1460 -784 1460 -742 1496 c 128,-1,9
 -700 1532 -700 1532 -640 1532 c 0,10,11
 -574 1532 -574 1532 -532 1484 c 0,12,13
 -496 1442 -496 1442 -496 1388 c 0,0,1
EndSplineSet
EndChar

StartChar: tm_two
Encoding: 3048 3048 98
Width: 1425
GlyphClass: 2
Flags: W
LayerCount: 2
Fore
SplineSet
1244 70 m 1,0,-1
 1226 0 l 1,1,-1
 586 0 l 2,2,3
 429 0 429 0 429 106 c 0,4,5
 429 153 429 153 478 181.5 c 128,-1,6
 527 210 527 210 586 210 c 2,7,-1
 779 210 l 2,8,9
 867 210 867 210 928 271.5 c 128,-1,10
 989 333 989 333 989 420 c 0,11,12
 989 500 989 500 945 560.5 c 128,-1,13
 901 621 901 621 831 621 c 0,14,15
 793 621 793 621 744 595 c 1,16,17
 814 555 814 555 814 437 c 0,18,19
 814 382 814 382 772.5 344.5 c 128,-1,20
 731 307 731 307 675 307 c 0,21,22
 618 307 618 307 580 351 c 128,-1,23
 542 395 542 395 542 455 c 0,24,25
 542 565 542 565 646.5 632.5 c 128,-1,26
 751 700 751 700 884 700 c 0,27,28
 987 700 987 700 1058 629 c 128,-1,29
 1129 558 1129 558 1129 455 c 0,30,31
 1129 321 1129 321 1025.5 230.5 c 128,-1,32
 922 140 922 140 779 140 c 2,33,-1
 595 140 l 2,34,35
 551 140 551 140 551 106 c 0,36,37
 551 70 551 70 604 70 c 2,38,-1
 1244 70 l 1,0,-1
675 560 m 1,39,40
 621 516 621 516 621 473 c 0,41,42
 621 386 621 386 666 386 c 0,43,44
 709 386 709 386 709 473 c 0,45,46
 709 518 709 518 675 560 c 1,39,40
EndSplineSet
EndChar

StartChar: tm_three
Encoding: 3049 3049 99
Width: 1424
GlyphClass: 2
Flags: W
LayerCount: 2
Fore
SplineSet
1270 70 m 1,0,-1
 1252 0 l 1,1,-1
 640 0 l 1,2,-1
 657 70 l 1,3,-1
 780 70 l 2,4,5
 874 70 874 70 941 130.5 c 128,-1,6
 1008 191 1008 191 1008 280 c 0,7,8
 1008 317 1008 317 982.5 342.5 c 128,-1,9
 957 368 957 368 920 368 c 0,10,11
 890 368 890 368 865 341 c 128,-1,12
 840 314 840 314 833 280 c 2,13,-1
 815 193 l 1,14,-1
 675 193 l 1,15,-1
 764 630 l 1,16,-1
 571 630 l 1,17,-1
 444 0 l 1,18,-1
 378 0 l 1,19,-1
 517 700 l 1,20,-1
 1095 700 l 1,21,-1
 1077 630 l 1,22,-1
 902 630 l 1,23,-1
 859 403 l 1,24,25
 918 455 918 455 990 455 c 0,26,27
 1057 455 1057 455 1102.5 403.5 c 128,-1,28
 1148 352 1148 352 1148 280 c 0,29,30
 1148 209 1148 209 1090 151 c 128,-1,31
 1032 93 1032 93 947 70 c 1,32,-1
 1270 70 l 1,0,-1
EndSplineSet
EndChar

StartChar: tm_four
Encoding: 3050 3050 100
Width: 1427
GlyphClass: 2
Flags: W
LayerCount: 2
Fore
SplineSet
915 316 m 1,0,-1
 644 316 l 2,1,2
 601 316 601 316 570.5 291 c 128,-1,3
 540 266 540 266 540 228 c 0,4,5
 540 158 540 158 609.5 114 c 128,-1,6
 679 70 679 70 766 70 c 0,7,8
 811 70 811 70 844 99.5 c 128,-1,9
 877 129 877 129 887 175 c 2,10,-1
 915 316 l 1,0,-1
979 630 m 1,11,-1
 784 630 l 1,12,-1
 735 386 l 1,13,-1
 930 386 l 1,14,-1
 979 630 l 1,11,-1
1042 245 m 2,15,16
 1017 125 1017 125 940 62.5 c 128,-1,17
 863 0 863 0 766 0 c 0,18,19
 651 0 651 0 559.5 64 c 128,-1,20
 468 128 468 128 468 228 c 0,21,22
 468 294 468 294 520.5 340 c 128,-1,23
 573 386 573 386 644 386 c 2,24,-1
 669 386 l 1,25,-1
 731 700 l 1,26,-1
 1344 700 l 1,27,-1
 1329 630 l 1,28,-1
 1118 630 l 1,29,-1
 1068 386 l 1,30,-1
 1232 386 l 1,31,-1
 1248 464 l 1,32,-1
 1309 464 l 1,33,-1
 1279 316 l 1,34,-1
 1055 316 l 1,35,-1
 1042 245 l 2,15,16
EndSplineSet
EndChar

StartChar: tm_five
Encoding: 3051 3051 101
Width: 1424
GlyphClass: 2
Flags: W
LayerCount: 2
Fore
SplineSet
1412 517 m 1,0,-1
 1359 526 l 1,1,2
 1369 563 1369 563 1369 598 c 0,3,4
 1369 723 1369 723 1253.5 825.5 c 128,-1,5
 1138 928 1138 928 965 928 c 0,6,7
 728 928 728 928 575.5 716 c 128,-1,8
 423 504 423 504 423 228 c 0,9,10
 423 -43 423 -43 515 -179.5 c 128,-1,11
 607 -316 607 -316 790 -316 c 0,12,13
 979 -316 979 -316 1103.5 -163.5 c 128,-1,14
 1228 -11 1228 -11 1228 193 c 0,15,16
 1228 257 1228 257 1200 304.5 c 128,-1,17
 1172 352 1172 352 1126 352 c 0,18,19
 1099 352 1099 352 1072.5 336.5 c 128,-1,20
 1046 321 1046 321 1039 298 c 2,21,-1
 980 0 l 1,22,-1
 840 0 l 1,23,-1
 965 630 l 1,24,-1
 759 630 l 1,25,-1
 634 0 l 1,26,-1
 566 0 l 1,27,-1
 706 700 l 1,28,-1
 1237 700 l 1,29,-1
 1219 630 l 1,30,-1
 1105 630 l 1,31,-1
 1057 386 l 1,32,33
 1101 437 1101 437 1171 437 c 0,34,35
 1261 437 1261 437 1314.5 368.5 c 128,-1,36
 1368 300 1368 300 1368 193 c 0,37,38
 1368 -47 1368 -47 1202.5 -216 c 128,-1,39
 1037 -385 1037 -385 799 -385 c 0,40,41
 589 -385 589 -385 471.5 -223 c 128,-1,42
 354 -61 354 -61 354 193 c 0,43,44
 354 513 354 513 519 764 c 128,-1,45
 684 1015 684 1015 948 1015 c 0,46,47
 1152 1015 1152 1015 1288.5 889.5 c 128,-1,48
 1425 764 1425 764 1425 613 c 0,49,50
 1425 566 1425 566 1412 517 c 1,0,-1
EndSplineSet
EndChar

StartChar: tm_six
Encoding: 3052 3052 102
Width: 1424
GlyphClass: 2
Flags: W
LayerCount: 2
Fore
SplineSet
784 316 m 1,0,-1
 513 316 l 2,1,2
 469 316 469 316 438 291 c 128,-1,3
 407 266 407 266 407 228 c 0,4,5
 407 158 407 158 477 114 c 128,-1,6
 547 70 547 70 635 70 c 0,7,8
 680 70 680 70 713 99.5 c 128,-1,9
 746 129 746 129 756 175 c 2,10,-1
 784 316 l 1,0,-1
846 630 m 1,11,-1
 653 630 l 1,12,-1
 603 386 l 1,13,-1
 798 386 l 1,14,-1
 846 630 l 1,11,-1
910 245 m 2,15,16
 884 125 884 125 808 62.5 c 128,-1,17
 732 0 732 0 635 0 c 0,18,19
 518 0 518 0 428 64 c 128,-1,20
 338 128 338 128 338 228 c 0,21,22
 338 294 338 294 389.5 340 c 128,-1,23
 441 386 441 386 513 386 c 2,24,-1
 537 386 l 1,25,-1
 600 700 l 1,26,-1
 1229 700 l 1,27,-1
 1213 630 l 1,28,-1
 988 630 l 1,29,-1
 938 386 l 1,30,-1
 1422 386 l 1,31,-1
 1410 316 l 1,32,-1
 1353 316 l 1,33,-1
 1291 0 l 1,34,-1
 1151 0 l 1,35,-1
 1213 316 l 1,36,-1
 1116 316 l 1,37,-1
 1055 0 l 1,38,-1
 967 0 l 1,39,-1
 1028 316 l 1,40,-1
 924 316 l 1,41,-1
 910 245 l 2,15,16
EndSplineSet
EndChar

StartChar: tm_seven
Encoding: 3053 3053 103
Width: 1425
GlyphClass: 2
Flags: W
LayerCount: 2
Fore
SplineSet
643 88 m 1,0,1
 706 88 706 88 753 128 c 128,-1,2
 800 168 800 168 800 228 c 0,3,4
 800 269 800 269 781 301 c 128,-1,5
 762 333 762 333 729 333 c 0,6,7
 684 333 684 333 654.5 296.5 c 128,-1,8
 625 260 625 260 625 210 c 0,9,10
 625 135 625 135 643 88 c 1,0,1
1042 0 m 1,11,-1
 1167 630 l 1,12,-1
 852 630 l 2,13,14
 704 630 704 630 594.5 540.5 c 128,-1,15
 485 451 485 451 485 316 c 0,16,17
 485 247 485 247 507 194.5 c 128,-1,18
 529 142 529 142 572 106 c 1,19,20
 555 135 555 135 555 228 c 256,21,22
 555 321 555 321 614.5 388 c 128,-1,23
 674 455 674 455 765 455 c 0,24,25
 837 455 837 455 884 398 c 128,-1,26
 931 341 931 341 931 263 c 0,27,28
 931 155 931 155 863 77.5 c 128,-1,29
 795 0 795 0 695 0 c 0,30,31
 576 0 576 0 495.5 94 c 128,-1,32
 415 188 415 188 415 316 c 0,33,34
 415 481 415 481 545.5 590.5 c 128,-1,35
 676 700 676 700 852 700 c 2,36,-1
 1430 700 l 1,37,-1
 1412 630 l 1,38,-1
 1307 630 l 1,39,-1
 1181 0 l 1,40,-1
 1042 0 l 1,11,-1
EndSplineSet
EndChar

StartChar: tm_eight
Encoding: 3054 3054 104
Width: 1427
GlyphClass: 2
Flags: W
LayerCount: 2
Fore
SplineSet
849 629 m 1,0,1
 745 611 745 611 670 548.5 c 128,-1,2
 595 486 595 486 595 402 c 0,3,4
 595 338 595 338 638.5 291 c 128,-1,5
 682 244 682 244 744 244 c 0,6,7
 817 244 817 244 864 307.5 c 128,-1,8
 911 371 911 371 911 454 c 0,9,10
 911 580 911 580 849 629 c 1,0,1
1024 140 m 1,11,-1
 411 140 l 2,12,13
 381 140 381 140 357 125 c 128,-1,14
 333 110 333 110 333 87 c 0,15,16
 333 43 333 43 412 -13.5 c 128,-1,17
 491 -70 491 -70 639 -70 c 0,18,19
 743 -70 743 -70 839.5 -18 c 128,-1,20
 936 34 936 34 1024 140 c 1,11,-1
1414 -245 m 1,21,-1
 1269 -245 l 1,22,-1
 1348 140 l 1,23,-1
 1164 140 l 1,24,25
 1051 4 1051 4 915 -63.5 c 128,-1,26
 779 -131 779 -131 621 -131 c 0,27,28
 421 -131 421 -131 311.5 -52.5 c 128,-1,29
 202 26 202 26 202 123 c 0,30,31
 202 160 202 160 233 184.5 c 128,-1,32
 264 209 264 209 307 209 c 2,33,-1
 666 209 l 1,34,35
 604 231 604 231 565 284.5 c 128,-1,36
 526 338 526 338 526 402 c 0,37,38
 526 534 526 534 652 617 c 128,-1,39
 778 700 778 700 937 700 c 0,40,41
 1069 700 1069 700 1169 620.5 c 128,-1,42
 1269 541 1269 541 1269 420 c 0,43,44
 1269 306 1269 306 1213 209 c 1,45,-1
 1364 209 l 1,46,-1
 1463 700 l 1,47,-1
 1603 700 l 1,48,-1
 1414 -245 l 1,21,-1
989 620 m 1,49,50
 1042 530 1042 530 1042 411 c 0,51,52
 1042 267 1042 267 919 209 c 1,53,-1
 1077 209 l 1,54,55
 1146 308 1146 308 1146 402 c 0,56,57
 1146 486 1146 486 1103 553 c 128,-1,58
 1060 620 1060 620 989 620 c 1,49,50
EndSplineSet
EndChar

StartChar: tm_nine
Encoding: 3055 3055 105
Width: 1427
GlyphClass: 2
Flags: W
LayerCount: 2
Fore
SplineSet
692 316 m 1,0,-1
 422 316 l 2,1,2
 379 316 379 316 348 291 c 128,-1,3
 317 266 317 266 317 228 c 0,4,5
 317 158 317 158 387 114 c 128,-1,6
 457 70 457 70 544 70 c 0,7,8
 589 70 589 70 622 99.5 c 128,-1,9
 655 129 655 129 665 175 c 2,10,-1
 692 316 l 1,0,-1
756 630 m 1,11,-1
 562 630 l 1,12,-1
 513 386 l 1,13,-1
 707 386 l 1,14,-1
 756 630 l 1,11,-1
1157 175 m 0,15,16
 1157 259 1157 259 1052 298 c 1,17,18
 982 240 982 240 982 158 c 0,19,20
 982 121 982 121 1007.5 95.5 c 128,-1,21
 1033 70 1033 70 1068 70 c 0,22,23
 1107 70 1107 70 1132 101.5 c 128,-1,24
 1157 133 1157 133 1157 175 c 0,15,16
1297 0 m 1,25,26
 1375 93 1375 93 1375 193 c 0,27,28
 1375 263 1375 263 1332.5 315.5 c 128,-1,29
 1290 368 1290 368 1226 368 c 0,30,31
 1163 368 1163 368 1113 342 c 1,32,33
 1167 322 1167 322 1201 276.5 c 128,-1,34
 1235 231 1235 231 1235 175 c 0,35,36
 1235 104 1235 104 1187 52 c 128,-1,37
 1139 0 1139 0 1068 0 c 0,38,39
 1005 0 1005 0 958.5 46.5 c 128,-1,40
 912 93 912 93 912 158 c 0,41,42
 912 257 912 257 982 316 c 1,43,-1
 833 316 l 1,44,-1
 819 245 l 2,45,46
 795 125 795 125 718.5 62.5 c 128,-1,47
 642 0 642 0 544 0 c 0,48,49
 428 0 428 0 337 64 c 128,-1,50
 246 128 246 128 246 228 c 0,51,52
 246 294 246 294 299 340 c 128,-1,53
 352 386 352 386 422 386 c 2,54,-1
 446 386 l 1,55,-1
 508 700 l 1,56,-1
 1122 700 l 1,57,-1
 1104 630 l 1,58,-1
 896 630 l 1,59,-1
 847 386 l 1,60,-1
 947 386 l 2,61,62
 1014 386 1014 386 1052 368 c 1,63,64
 1111 420 1111 420 1226 420 c 0,65,66
 1327 420 1327 420 1399.5 354.5 c 128,-1,67
 1472 289 1472 289 1472 193 c 0,68,69
 1472 109 1472 109 1410 0 c 1,70,-1
 1297 0 l 1,25,26
EndSplineSet
EndChar

StartChar: tm_ten
Encoding: 3056 3056 106
Width: 1260
GlyphClass: 2
Flags: W
LayerCount: 2
Fore
SplineSet
597 149 m 1,0,1
 558 74 558 74 508 37 c 128,-1,2
 458 0 458 0 395 0 c 0,3,4
 302 0 302 0 242 64 c 128,-1,5
 182 128 182 128 182 200 c 0,6,7
 182 224 182 224 186 244 c 2,8,-1
 279 700 l 1,9,-1
 419 700 l 1,10,-1
 325 244 l 2,11,12
 320 223 320 223 320 205 c 0,13,14
 320 155 320 155 346.5 112.5 c 128,-1,15
 373 70 373 70 413 70 c 0,16,17
 472 70 472 70 525 146 c 128,-1,18
 578 222 578 222 606 359 c 2,19,-1
 675 700 l 1,20,-1
 815 700 l 1,21,-1
 746 351 l 2,22,23
 728 262 728 262 728 204 c 0,24,25
 728 150 728 150 760.5 110 c 128,-1,26
 793 70 793 70 841 70 c 0,27,28
 957 70 957 70 1026 204 c 128,-1,29
 1095 338 1095 338 1095 500 c 0,30,31
 1095 691 1095 691 995.5 840 c 128,-1,32
 896 989 896 989 737 989 c 1,33,-1
 755 1042 l 1,34,35
 960 1042 960 1042 1097.5 880.5 c 128,-1,36
 1235 719 1235 719 1235 500 c 0,37,38
 1235 300 1235 300 1118.5 150 c 128,-1,39
 1002 0 1002 0 824 0 c 0,40,41
 739 0 739 0 673.5 40.5 c 128,-1,42
 608 81 608 81 597 149 c 1,0,1
EndSplineSet
EndChar

StartChar: tm_hundred
Encoding: 3057 3057 107
Width: 1166
GlyphClass: 2
Flags: W
LayerCount: 2
Fore
SplineSet
1284 700 m 1,0,-1
 1267 629 l 1,1,-1
 1117 629 l 1,2,-1
 991 0 l 1,3,-1
 851 0 l 1,4,-1
 977 629 l 1,5,-1
 770 629 l 1,6,-1
 644 0 l 1,7,-1
 504 0 l 1,8,-1
 599 472 l 2,9,10
 606 507 606 507 606 534 c 0,11,12
 606 579 606 579 589 613 c 128,-1,13
 572 647 572 647 540 647 c 0,14,15
 483 647 483 647 440 595.5 c 128,-1,16
 397 544 397 544 382 472 c 2,17,-1
 285 0 l 1,18,-1
 146 0 l 1,19,-1
 242 472 l 2,20,21
 263 577 263 577 336.5 647 c 128,-1,22
 410 717 410 717 503 717 c 0,23,24
 567 717 567 717 614 679.5 c 128,-1,25
 661 642 661 642 661 585 c 1,26,-1
 685 700 l 1,27,-1
 1284 700 l 1,0,-1
EndSplineSet
EndChar

StartChar: tm_thousand
Encoding: 3058 3058 108
Width: 1256
GlyphClass: 2
Flags: W
LayerCount: 2
Fore
SplineSet
551 316 m 1,0,-1
 280 316 l 2,1,2
 237 316 237 316 206 291 c 128,-1,3
 175 266 175 266 175 228 c 0,4,5
 175 158 175 158 245.5 114 c 128,-1,6
 316 70 316 70 402 70 c 0,7,8
 447 70 447 70 480 99.5 c 128,-1,9
 513 129 513 129 523 175 c 2,10,-1
 551 316 l 1,0,-1
615 630 m 1,11,-1
 420 630 l 1,12,-1
 371 386 l 1,13,-1
 565 386 l 1,14,-1
 615 630 l 1,11,-1
677 245 m 2,15,16
 653 125 653 125 576 62.5 c 128,-1,17
 499 0 499 0 402 0 c 0,18,19
 285 0 285 0 195 64 c 128,-1,20
 105 128 105 128 105 228 c 0,21,22
 105 294 105 294 156.5 340 c 128,-1,23
 208 386 208 386 280 386 c 2,24,-1
 304 386 l 1,25,-1
 367 700 l 1,26,-1
 997 700 l 1,27,-1
 983 630 l 1,28,-1
 755 630 l 1,29,-1
 705 386 l 1,30,-1
 1120 386 l 1,31,-1
 1105 316 l 1,32,-1
 971 316 l 1,33,-1
 945 175 l 1,34,35
 990 228 990 228 1067 228 c 0,36,37
 1134 228 1134 228 1179.5 176 c 128,-1,38
 1225 124 1225 124 1225 53 c 0,39,40
 1225 -78 1225 -78 1108 -161 c 128,-1,41
 991 -244 991 -244 840 -244 c 0,42,43
 740 -244 740 -244 542 -205 c 0,44,45
 346 -167 346 -167 244 -167 c 0,46,47
 181 -167 181 -167 134 -206.5 c 128,-1,48
 87 -246 87 -246 87 -307 c 0,49,50
 87 -384 87 -384 158 -411 c 1,51,-1
 149 -445 l 1,52,53
 82 -433 82 -433 36.5 -387 c 128,-1,54
 -9 -341 -9 -341 -9 -280 c 0,55,56
 -9 -205 -9 -205 70.5 -159.5 c 128,-1,57
 150 -114 150 -114 244 -114 c 0,58,59
 346 -114 346 -114 542 -153 c 0,60,61
 740 -192 740 -192 840 -192 c 0,62,63
 938 -192 938 -192 1011.5 -135 c 128,-1,64
 1085 -78 1085 -78 1085 9 c 0,65,66
 1085 61 1085 61 1061 100.5 c 128,-1,67
 1037 140 1037 140 997 140 c 256,68,69
 957 140 957 140 927 88 c 1,70,-1
 910 0 l 1,71,-1
 769 0 l 1,72,-1
 831 316 l 1,73,-1
 691 316 l 1,74,-1
 677 245 l 2,15,16
EndSplineSet
EndChar

StartChar: zerowidthnonjoiner
Encoding: 8204 8204 109
Width: 0
GlyphClass: 2
Flags: W
LayerCount: 2
Fore
SplineSet
315 1225 m 1,0,-1
 -34 -516 l 1,1,-1
 -103 -516 l 1,2,-1
 244 1225 l 1,3,-1
 315 1225 l 1,0,-1
EndSplineSet
EndChar

StartChar: zerowidthjoiner
Encoding: 8205 8205 110
Width: 0
GlyphClass: 2
Flags: W
LayerCount: 2
Fore
SplineSet
415 997 m 1,0,-1
 363 953 l 1,1,-1
 270 1073 l 1,2,-1
 -24 -441 l 1,3,-1
 -87 -441 l 1,4,-1
 206 1073 l 1,5,-1
 65 953 l 1,6,-1
 32 997 l 1,7,-1
 210 1145 l 1,8,-1
 89 1292 l 1,9,-1
 140 1334 l 1,10,-1
 260 1185 l 1,11,-1
 437 1334 l 1,12,-1
 472 1292 l 1,13,-1
 294 1145 l 1,14,-1
 415 997 l 1,0,-1
EndSplineSet
EndChar

StartChar: u2013
Encoding: 8211 8211 111
Width: 722
GlyphClass: 2
Flags: W
LayerCount: 2
Fore
SplineSet
733 319 m 1,0,-1
 -12 319 l 1,1,-1
 -12 370 l 1,2,-1
 733 370 l 1,3,-1
 733 319 l 1,0,-1
EndSplineSet
EndChar

StartChar: u2014
Encoding: 8212 8212 112
Width: 1284
GlyphClass: 2
Flags: W
LayerCount: 2
Fore
SplineSet
1296 318 m 1,0,-1
 -13 319 l 1,1,-1
 -13 371 l 1,2,-1
 1296 370 l 1,3,-1
 1296 318 l 1,0,-1
EndSplineSet
EndChar

StartChar: u2018
Encoding: 65539 -1 113
Width: 444
GlyphClass: 2
Flags: W
LayerCount: 2
Fore
SplineSet
314 1192 m 1,0,-1
 314 988 l 1,1,-1
 126 988 l 1,2,-1
 126 1148 l 2,3,4
 126 1218 126 1218 132 1260 c 128,-1,5
 138 1302 138 1302 156 1338 c 0,6,7
 198 1408 198 1408 286 1456 c 1,8,-1
 330 1388 l 1,9,10
 278 1370 278 1370 250 1319 c 128,-1,11
 222 1268 222 1268 222 1192 c 1,12,-1
 314 1192 l 1,0,-1
EndSplineSet
EndChar

StartChar: u2019
Encoding: 65540 -1 114
Width: 444
GlyphClass: 2
Flags: W
LayerCount: 2
Fore
SplineSet
122 1242 m 1,0,-1
 122 1446 l 1,1,-1
 310 1446 l 1,2,-1
 310 1286 l 2,3,4
 310 1162 310 1162 280 1096 c 1,5,6
 242 1024 242 1024 148 978 c 1,7,-1
 106 1046 l 1,8,9
 152 1064 152 1064 182 1113 c 128,-1,10
 212 1162 212 1162 212 1242 c 1,11,-1
 122 1242 l 1,0,-1
EndSplineSet
EndChar

StartChar: u201C
Encoding: 65541 -1 115
Width: 666
GlyphClass: 2
Flags: W
LayerCount: 2
Fore
SplineSet
270 1192 m 1,0,-1
 270 988 l 1,1,-1
 82 988 l 1,2,-1
 82 1148 l 2,3,4
 82 1218 82 1218 88 1260 c 128,-1,5
 94 1302 94 1302 112 1338 c 0,6,7
 154 1408 154 1408 242 1456 c 1,8,-1
 286 1388 l 1,9,10
 234 1370 234 1370 206 1319 c 128,-1,11
 178 1268 178 1268 178 1192 c 1,12,-1
 270 1192 l 1,0,-1
572 1192 m 1,13,-1
 572 988 l 1,14,-1
 384 988 l 1,15,-1
 384 1148 l 2,16,17
 384 1286 384 1286 419 1347 c 128,-1,18
 454 1408 454 1408 544 1456 c 1,19,-1
 588 1388 l 1,20,21
 536 1370 536 1370 508 1319 c 128,-1,22
 480 1268 480 1268 480 1192 c 1,23,-1
 572 1192 l 1,13,-1
EndSplineSet
EndChar

StartChar: u201D
Encoding: 65542 -1 116
Width: 666
GlyphClass: 2
Flags: W
LayerCount: 2
Fore
SplineSet
84 1242 m 1,0,-1
 84 1446 l 1,1,-1
 274 1446 l 1,2,-1
 274 1286 l 2,3,4
 274 1162 274 1162 244 1096 c 1,5,6
 206 1024 206 1024 112 978 c 1,7,-1
 70 1046 l 1,8,9
 116 1064 116 1064 146 1113 c 128,-1,10
 176 1162 176 1162 176 1242 c 1,11,-1
 84 1242 l 1,0,-1
388 1242 m 1,12,-1
 388 1446 l 1,13,-1
 576 1446 l 1,14,-1
 576 1286 l 2,15,16
 576 1162 576 1162 546 1096 c 1,17,18
 504 1022 504 1022 416 978 c 1,19,-1
 372 1046 l 1,20,21
 422 1064 422 1064 451 1116 c 128,-1,22
 480 1168 480 1168 480 1242 c 1,23,-1
 388 1242 l 1,12,-1
EndSplineSet
EndChar

StartChar: u2026
Encoding: 8230 8230 117
Width: 1283
GlyphClass: 2
Flags: W
LayerCount: 2
Fore
SplineSet
265 136 m 0,0,1
 298 136 298 136 320.5 114 c 128,-1,2
 343 92 343 92 343 58 c 0,3,4
 343 26 343 26 320.5 3 c 128,-1,5
 298 -20 298 -20 265 -20 c 0,6,7
 233 -20 233 -20 210 3 c 128,-1,8
 187 26 187 26 187 58 c 0,9,10
 187 92 187 92 210 114 c 128,-1,11
 233 136 233 136 265 136 c 0,0,1
638 136 m 256,12,13
 670 136 670 136 693 114 c 128,-1,14
 716 92 716 92 716 58 c 0,15,16
 716 26 716 26 692.5 3 c 128,-1,17
 669 -20 669 -20 638 -20 c 0,18,19
 606 -20 606 -20 583 3 c 128,-1,20
 560 26 560 26 560 58 c 0,21,22
 560 92 560 92 583 114 c 128,-1,23
 606 136 606 136 638 136 c 256,12,13
1010 136 m 0,24,25
 1043 136 1043 136 1066 114 c 128,-1,26
 1089 92 1089 92 1089 58 c 0,27,28
 1089 26 1089 26 1065.5 3 c 128,-1,29
 1042 -20 1042 -20 1010 -20 c 256,30,31
 978 -20 978 -20 955.5 3 c 128,-1,32
 933 26 933 26 933 58 c 0,33,34
 933 92 933 92 955.5 114 c 128,-1,35
 978 136 978 136 1010 136 c 0,24,25
EndSplineSet
EndChar

StartChar: u2212
Encoding: 8722 8722 118
Width: 974
GlyphClass: 2
Flags: W
LayerCount: 2
Fore
SplineSet
133 450 m 1,0,-1
 133 508 l 1,1,-1
 894 508 l 1,2,-1
 894 450 l 1,3,-1
 133 450 l 1,0,-1
EndSplineSet
EndChar

StartChar: u25CC
Encoding: 9676 9676 119
Width: 1167
GlyphClass: 2
Flags: W
LayerCount: 2
Fore
SplineSet
654 665 m 0,0,1
 626 665 626 665 612 679 c 128,-1,2
 598 693 598 693 598 724 c 0,3,4
 598 746 598 746 615 762.5 c 128,-1,5
 632 779 632 779 654 779 c 0,6,7
 683 779 683 779 697.5 765 c 128,-1,8
 712 751 712 751 712 724 c 0,9,10
 712 693 712 693 697.5 679 c 128,-1,11
 683 665 683 665 654 665 c 0,0,1
840 616 m 0,12,13
 811 616 811 616 796.5 630.5 c 128,-1,14
 782 645 782 645 782 674 c 0,15,16
 782 701 782 701 796.5 715 c 128,-1,17
 811 729 811 729 840 729 c 0,18,19
 862 729 862 729 879 713 c 128,-1,20
 896 697 896 697 896 674 c 0,21,22
 896 645 896 645 882 630.5 c 128,-1,23
 868 616 868 616 840 616 c 0,12,13
470 616 m 0,24,25
 442 616 442 616 428 630.5 c 128,-1,26
 414 645 414 645 414 674 c 0,27,28
 414 697 414 697 431 713 c 128,-1,29
 448 729 448 729 470 729 c 0,30,31
 494 729 494 729 510 713 c 128,-1,32
 526 697 526 697 526 674 c 0,33,34
 526 645 526 645 512.5 630.5 c 128,-1,35
 499 616 499 616 470 616 c 0,24,25
973 482 m 0,36,37
 951 482 951 482 933.5 498 c 128,-1,38
 916 514 916 514 916 538 c 0,39,40
 916 567 916 567 930.5 581 c 128,-1,41
 945 595 945 595 973 595 c 256,42,43
 1001 595 1001 595 1014.5 581 c 128,-1,44
 1028 567 1028 567 1028 538 c 0,45,46
 1028 514 1028 514 1012 498 c 128,-1,47
 996 482 996 482 973 482 c 0,36,37
336 482 m 0,48,49
 307 482 307 482 293 495.5 c 128,-1,50
 279 509 279 509 279 538 c 256,51,52
 279 567 279 567 293 581 c 128,-1,53
 307 595 307 595 336 595 c 0,54,55
 364 595 364 595 378 581 c 128,-1,56
 392 567 392 567 392 538 c 0,57,58
 392 514 392 514 375 498 c 128,-1,59
 358 482 358 482 336 482 c 0,48,49
1024 298 m 0,60,61
 994 298 994 298 979.5 311.5 c 128,-1,62
 965 325 965 325 965 354 c 0,63,64
 965 382 965 382 979.5 396 c 128,-1,65
 994 410 994 410 1024 410 c 0,66,67
 1046 410 1046 410 1063 393 c 128,-1,68
 1080 376 1080 376 1080 354 c 0,69,70
 1080 331 1080 331 1063 314.5 c 128,-1,71
 1046 298 1046 298 1024 298 c 0,60,61
287 298 m 0,72,73
 257 298 257 298 243 311.5 c 128,-1,74
 229 325 229 325 229 354 c 0,75,76
 229 382 229 382 243 396 c 128,-1,77
 257 410 257 410 287 410 c 0,78,79
 310 410 310 410 326.5 393 c 128,-1,80
 343 376 343 376 343 354 c 0,81,82
 343 331 343 331 326.5 314.5 c 128,-1,83
 310 298 310 298 287 298 c 0,72,73
973 112 m 256,84,85
 945 112 945 112 930.5 126.5 c 128,-1,86
 916 141 916 141 916 169 c 0,87,88
 916 193 916 193 933.5 209.5 c 128,-1,89
 951 226 951 226 973 226 c 0,90,91
 996 226 996 226 1012 209.5 c 128,-1,92
 1028 193 1028 193 1028 169 c 0,93,94
 1028 141 1028 141 1014.5 126.5 c 128,-1,95
 1001 112 1001 112 973 112 c 256,84,85
336 112 m 0,96,97
 307 112 307 112 293 126.5 c 128,-1,98
 279 141 279 141 279 169 c 0,99,100
 279 198 279 198 293 212 c 128,-1,101
 307 226 307 226 336 226 c 0,102,103
 358 226 358 226 375 209.5 c 128,-1,104
 392 193 392 193 392 169 c 0,105,106
 392 141 392 141 378 126.5 c 128,-1,107
 364 112 364 112 336 112 c 0,96,97
840 -22 m 0,108,109
 811 -22 811 -22 796.5 -8 c 128,-1,110
 782 6 782 6 782 34 c 0,111,112
 782 63 782 63 796.5 78 c 128,-1,113
 811 93 811 93 840 93 c 0,114,115
 863 93 863 93 879.5 75 c 128,-1,116
 896 57 896 57 896 34 c 256,117,118
 896 11 896 11 879 -5.5 c 128,-1,119
 862 -22 862 -22 840 -22 c 0,108,109
470 -22 m 0,120,121
 448 -22 448 -22 431 -5.5 c 128,-1,122
 414 11 414 11 414 34 c 256,123,124
 414 57 414 57 430.5 75 c 128,-1,125
 447 93 447 93 470 93 c 0,126,127
 495 93 495 93 510.5 75 c 128,-1,128
 526 57 526 57 526 34 c 256,129,130
 526 11 526 11 510 -5.5 c 128,-1,131
 494 -22 494 -22 470 -22 c 0,120,121
654 -72 m 0,132,133
 632 -72 632 -72 615 -55 c 128,-1,134
 598 -38 598 -38 598 -16 c 0,135,136
 598 14 598 14 612 28.5 c 128,-1,137
 626 43 626 43 654 43 c 0,138,139
 683 43 683 43 697.5 28.5 c 128,-1,140
 712 14 712 14 712 -16 c 0,141,142
 712 -44 712 -44 697.5 -58 c 128,-1,143
 683 -72 683 -72 654 -72 c 0,132,133
EndSplineSet
EndChar

StartChar: tm_k_ikaar
Encoding: 65543 -1 120
Width: 1088
GlyphClass: 2
Flags: W
LayerCount: 2
Fore
SplineSet
1374 818 m 0,0,1
 1374 776 1374 776 1308 659 c 128,-1,2
 1242 542 1242 542 1242 512 c 1,3,4
 1168 512 1168 512 1110 538 c 0,5,6
 1076 552 1076 552 1076 592 c 0,7,8
 1076 608 1076 608 1124 681 c 128,-1,9
 1172 754 1172 754 1172 806 c 0,10,11
 1172 896 1172 896 1058 896 c 0,12,13
 892 896 892 896 892 778 c 2,14,-1
 892 756 l 1,15,16
 914 756 914 756 934 761 c 128,-1,17
 954 766 954 766 1004 782 c 128,-1,18
 1054 798 1054 798 1066 818 c 1,19,20
 1134 818 1134 818 1134 770 c 0,21,22
 1134 680 1134 680 1000 680 c 1,23,-1
 956 682 l 1,24,-1
 896 594 l 1,25,26
 1000 594 1000 594 1076 532 c 0,27,28
 1142 480 1142 480 1142 392 c 0,29,30
 1142 320 1142 320 1113 253 c 128,-1,31
 1084 186 1084 186 1028 128 c 0,32,33
 918 18 918 18 776 18 c 0,34,35
 654 18 654 18 602 76 c 1,36,37
 500 2 500 2 374 2 c 0,38,39
 272 2 272 2 199 62 c 128,-1,40
 126 122 126 122 126 226 c 0,41,42
 126 346 126 346 192 439 c 128,-1,43
 258 532 258 532 370 568 c 1,44,-1
 370 614 l 2,45,46
 370 692 370 692 462 742 c 0,47,48
 538 780 538 780 634 780 c 1,49,-1
 678 778 l 1,50,-1
 676 798 l 1,51,-1
 676 822 l 2,52,53
 676 994 676 994 1044 994 c 0,54,55
 1102 994 1102 994 1146 986 c 128,-1,56
 1190 978 1190 978 1248 954 c 0,57,58
 1374 908 1374 908 1374 818 c 0,0,1
752 696 m 1,59,-1
 722 696 l 2,60,61
 594 696 594 696 556 586 c 1,62,-1
 622 586 l 1,63,-1
 690 584 l 1,64,65
 704 630 704 630 752 696 c 1,59,-1
948 380 m 0,66,67
 948 436 948 436 936 464 c 0,68,69
 918 500 918 500 854 500 c 1,70,-1
 806 372 l 2,71,72
 778 296 778 296 740 230 c 1,73,-1
 692 156 l 1,74,75
 692 138 692 138 724 136 c 0,76,77
 794 136 794 136 871 219 c 128,-1,78
 948 302 948 302 948 380 c 0,66,67
650 488 m 1,79,80
 490 460 490 460 408 394 c 128,-1,81
 326 328 326 328 326 224 c 0,82,83
 326 126 326 126 400 126 c 0,84,85
 476 126 476 126 538 224 c 0,86,87
 580 292 580 292 634 442 c 2,88,-1
 650 488 l 1,79,80
EndSplineSet
Ligature2: "'psts' Post Base Substitutions lookup 8 subtable" tm_ka tm_ikaar
EndChar

StartChar: tm_ng_ikaar
Encoding: 65544 -1 121
Width: 1518
GlyphClass: 2
Flags: W
LayerCount: 2
Fore
SplineSet
956 8 m 2,0,-1
 864 22 l 1,1,2
 814 22 814 22 776 0 c 1,3,-1
 726 26 l 2,4,5
 704 38 704 38 704 78 c 256,6,7
 704 118 704 118 742 130 c 2,8,-1
 786 140 l 1,9,10
 896 228 896 228 896 376 c 0,11,12
 896 448 896 448 852 448 c 0,13,14
 826 448 826 448 806 426 c 1,15,16
 658 52 658 52 670 8 c 1,17,18
 476 8 476 8 488 118 c 1,19,-1
 500 166 l 1,20,-1
 678 656 l 1,21,22
 600 644 600 644 548 624 c 0,23,24
 494 600 494 600 422 404 c 0,25,26
 322 130 322 130 292 76 c 0,27,28
 244 -12 244 -12 150 -12 c 0,29,30
 90 -12 90 -12 18 36 c 1,31,32
 48 54 48 54 84 90 c 0,33,34
 108 112 108 112 186 341 c 128,-1,35
 264 570 264 570 284 604 c 0,36,37
 364 744 364 744 558 744 c 1,38,-1
 676 738 l 1,39,-1
 794 732 l 1,40,41
 958 732 958 732 1008 818 c 1,42,43
 1070 804 1070 804 1070 754 c 0,44,45
 1070 712 1070 712 1026 690 c 128,-1,46
 982 668 982 668 896 668 c 1,47,48
 892 654 892 654 876 611 c 128,-1,49
 860 568 860 568 838 518 c 1,50,51
 874 530 874 530 916 530 c 0,52,53
 1110 530 1110 530 1110 336 c 0,54,55
 1110 260 1110 260 1058 180 c 0,56,57
 1026 126 1026 126 988 98 c 1,58,59
 1020 94 1020 94 1032 94 c 0,60,61
 1048 96 1048 96 1056 96 c 0,62,63
 1128 106 1128 106 1140 112 c 0,64,65
 1174 124 1174 124 1214 160 c 0,66,67
 1256 202 1256 202 1310 346 c 0,68,69
 1394 570 1394 570 1408 598 c 1,70,71
 1324 614 1324 614 1266 656 c 0,72,73
 1188 708 1188 708 1188 796 c 0,74,75
 1188 900 1188 900 1340 978 c 1,76,77
 1474 1042 1474 1042 1632 1042 c 0,78,79
 1770 1042 1770 1042 1906 975 c 128,-1,80
 2042 908 2042 908 2042 808 c 0,81,82
 2042 766 2042 766 1874 400 c 0,83,84
 1714 46 1714 46 1708 -6 c 1,85,86
 1694 -10 1694 -10 1670 -10 c 128,-1,87
 1646 -10 1646 -10 1632 -10 c 0,88,89
 1518 8 1518 8 1518 88 c 0,90,91
 1518 146 1518 146 1660 434 c 0,92,93
 1730 578 1730 578 1767 671 c 128,-1,94
 1804 764 1804 764 1804 808 c 0,95,96
 1804 952 1804 952 1640 952 c 0,97,98
 1564 952 1564 952 1496 907 c 128,-1,99
 1428 862 1428 862 1428 792 c 0,100,101
 1428 754 1428 754 1440 738 c 1,102,-1
 1470 722 l 1,103,104
 1512 788 1512 788 1620 788 c 0,105,106
 1678 788 1678 788 1734 760 c 1,107,108
 1686 718 1686 718 1596 514 c 1,109,-1
 1450 158 l 2,110,111
 1380 -14 1380 -14 1190 -14 c 0,112,113
 1158 -14 1158 -14 1080 -8 c 128,-1,114
 1002 -2 1002 -2 956 8 c 2,0,-1
EndSplineSet
Ligature2: "'psts' Post Base Substitutions lookup 8 subtable" tm_nga tm_ikaar
EndChar

StartChar: tm_c_ikaar
Encoding: 65545 -1 122
Width: 1156
GlyphClass: 2
Flags: W
LayerCount: 2
Fore
SplineSet
1350 772 m 0,0,1
 1350 688 1350 688 1210 384 c 0,2,3
 1082 102 1082 102 1090 34 c 1,4,5
 1038 34 1038 34 980 58 c 0,6,7
 916 88 916 88 910 142 c 0,8,9
 910 168 910 168 920 188 c 2,10,-1
 944 234 l 1,11,-1
 1090 538 l 2,12,13
 1130 624 1130 624 1154 693 c 128,-1,14
 1178 762 1178 762 1178 796 c 0,15,16
 1178 850 1178 850 1134 882 c 0,17,18
 1124 890 1124 890 1106 896 c 0,19,20
 1076 908 1076 908 1040 908 c 0,21,22
 878 908 878 908 878 796 c 0,23,24
 878 770 878 770 924 746 c 1,25,26
 960 752 960 752 980 774 c 1,27,-1
 998 814 l 1,28,29
 1014 816 1014 816 1031 812 c 128,-1,30
 1048 808 1048 808 1072 795 c 128,-1,31
 1096 782 1096 782 1100 766 c 1,32,33
 1076 684 1076 684 924 670 c 1,34,35
 862 596 862 596 838 546 c 1,36,37
 952 564 952 564 976 614 c 1,38,39
 1058 600 1058 600 1058 552 c 0,40,41
 1058 512 1058 512 983 472 c 128,-1,42
 908 432 908 432 842 432 c 2,43,-1
 794 434 l 1,44,-1
 746 292 l 2,45,46
 716 214 716 214 684 162 c 0,47,48
 574 -16 574 -16 358 -16 c 0,49,50
 248 -16 248 -16 183 41 c 128,-1,51
 118 98 118 98 118 220 c 0,52,53
 118 284 118 284 147 344 c 128,-1,54
 176 404 176 404 230 460 c 128,-1,55
 284 516 284 516 330 534 c 1,56,57
 308 556 308 556 308 596 c 0,58,59
 308 666 308 666 367 713 c 128,-1,60
 426 760 426 760 522 760 c 2,61,-1
 676 754 l 1,62,-1
 672 802 l 1,63,64
 690 982 690 982 1022 982 c 0,65,66
 1150 982 1150 982 1250 923 c 128,-1,67
 1350 864 1350 864 1350 772 c 0,0,1
726 686 m 1,68,-1
 702 688 l 1,69,-1
 674 688 l 2,70,71
 652 688 652 688 630 685 c 128,-1,72
 608 682 608 682 576 666 c 0,73,74
 516 638 516 638 516 586 c 2,75,-1
 516 554 l 1,76,-1
 644 554 l 1,77,78
 684 642 684 642 726 686 c 1,68,-1
610 468 m 1,79,-1
 576 470 l 1,80,81
 466 470 466 470 384 364 c 0,82,83
 344 314 344 314 323 266 c 128,-1,84
 302 218 302 218 302 164 c 0,85,86
 302 80 302 80 354 80 c 0,87,88
 420 80 420 80 468 146 c 0,89,90
 504 196 504 196 610 468 c 1,79,-1
EndSplineSet
Ligature2: "'psts' Post Base Substitutions lookup 8 subtable" tm_ca tm_ikaar
EndChar

StartChar: tm_j_ikaar
Encoding: 65546 -1 123
Width: 1556
GlyphClass: 2
Flags: W
LayerCount: 2
Fore
SplineSet
1734 804 m 0,0,1
 1734 772 1734 772 1602 376 c 0,2,3
 1540 180 1540 180 1506 58 c 128,-1,4
 1472 -64 1472 -64 1472 -102 c 2,5,-1
 1470 -152 l 1,6,-1
 1418 -158 l 1,7,8
 1352 -158 1352 -158 1303 -127 c 128,-1,9
 1254 -96 1254 -96 1254 -44 c 0,10,11
 1254 -6 1254 -6 1382 366 c 0,12,13
 1446 556 1446 556 1479 666 c 128,-1,14
 1512 776 1512 776 1512 808 c 0,15,16
 1512 916 1512 916 1410 916 c 0,17,18
 1278 916 1278 916 1240 752 c 1,19,-1
 1234 718 l 1,20,21
 1344 662 1344 662 1344 536 c 0,22,23
 1344 452 1344 452 1299 368 c 128,-1,24
 1254 284 1254 284 1166 248 c 1,25,26
 1226 206 1226 206 1226 120 c 0,27,28
 1226 90 1226 90 1224 76 c 128,-1,29
 1222 62 1222 62 1210 32 c 0,30,31
 1180 -52 1180 -52 1103 -106 c 128,-1,32
 1026 -160 1026 -160 932 -160 c 0,33,34
 722 -160 722 -160 722 -28 c 1,35,36
 688 -104 688 -104 576 -148 c 0,37,38
 528 -168 528 -168 477 -178 c 128,-1,39
 426 -188 426 -188 364 -188 c 0,40,41
 62 -188 62 -188 62 28 c 0,42,43
 62 78 62 78 82 136 c 0,44,45
 136 294 136 294 280 330 c 1,46,47
 204 372 204 372 204 464 c 0,48,49
 204 506 204 506 222 554 c 0,50,51
 258 658 258 658 390 718 c 0,52,53
 498 768 498 768 648 768 c 0,54,55
 730 768 730 768 794 754 c 128,-1,56
 858 740 858 740 902 716 c 1,57,58
 914 722 914 722 947 704 c 128,-1,59
 980 686 980 686 998 692 c 0,60,61
 1024 706 1024 706 1024 790 c 0,62,63
 1024 892 1024 892 1120 956 c 0,64,65
 1204 1010 1204 1010 1342 1010 c 0,66,67
 1496 1010 1496 1010 1615 954 c 128,-1,68
 1734 898 1734 898 1734 804 c 0,0,1
1106 452 m 0,69,70
 1124 500 1124 500 1124 542 c 0,71,72
 1124 666 1124 666 1008 666 c 0,73,74
 986 666 986 666 964 650 c 1,75,76
 974 630 974 630 974 598 c 256,77,78
 974 566 974 566 964 538 c 1,79,80
 926 470 926 470 886 362 c 1,81,-1
 840 362 l 2,82,83
 806 362 806 362 786 366 c 0,84,85
 704 378 704 378 692 416 c 1,86,-1
 756 560 l 1,87,-1
 764 598 l 1,88,89
 764 640 764 640 724 666 c 0,90,91
 712 674 712 674 694 680 c 0,92,93
 662 692 662 692 626 692 c 0,94,95
 528 692 528 692 470 610 c 1,96,-1
 532 614 l 1,97,98
 682 614 682 614 682 502 c 0,99,100
 682 454 682 454 648 398 c 128,-1,101
 614 342 614 342 544 318 c 1,102,103
 614 318 614 318 759 313 c 128,-1,104
 904 308 904 308 952 308 c 1,105,106
 1066 350 1066 350 1106 452 c 0,69,70
500 468 m 1,107,-1
 508 510 l 1,108,109
 508 546 508 546 486 548 c 0,110,111
 440 548 440 548 410 480 c 0,112,113
 398 450 398 450 398 418 c 0,114,115
 398 376 398 376 430 374 c 0,116,117
 464 374 464 374 500 468 c 1,107,-1
972 152 m 0,118,119
 972 214 972 214 898 214 c 0,120,121
 844 214 844 214 796 134 c 0,122,123
 782 110 782 110 734 -4 c 1,124,125
 742 10 742 10 760 8 c 1,126,127
 784 -32 784 -32 840 -32 c 0,128,129
 878 -32 878 -32 925 32 c 128,-1,130
 972 96 972 96 972 152 c 0,118,119
660 242 m 1,131,-1
 512 246 l 2,132,133
 456 246 456 246 397 197 c 128,-1,134
 338 148 338 148 310 76 c 0,135,136
 308 70 308 70 302 40 c 128,-1,137
 296 10 296 10 296 4 c 0,138,139
 296 -84 296 -84 386 -84 c 0,140,141
 456 -84 456 -84 522 14 c 1,142,-1
 600 168 l 2,143,144
 622 208 622 208 660 242 c 1,131,-1
EndSplineSet
Ligature2: "'psts' Post Base Substitutions lookup 8 subtable" tm_ja tm_ikaar
EndChar

StartChar: tm_ny_ikaar
Encoding: 65547 -1 124
Width: 1560
GlyphClass: 2
Flags: W
LayerCount: 2
Fore
SplineSet
844 386 m 0,0,1
 844 434 844 434 812 434 c 0,2,3
 790 434 790 434 724 350 c 0,4,5
 668 276 668 276 654 241 c 128,-1,6
 640 206 640 206 640 180 c 1,7,-1
 666 100 l 1,8,9
 708 106 708 106 776 212 c 128,-1,10
 844 318 844 318 844 386 c 0,0,1
1512 828 m 1,11,12
 1592 804 1592 804 1592 766 c 0,13,14
 1592 722 1592 722 1530 696 c 0,15,16
 1484 678 1484 678 1438 678 c 1,17,-1
 1358 504 l 1,18,19
 1478 504 1478 504 1563 450 c 128,-1,20
 1648 396 1648 396 1648 290 c 0,21,22
 1648 238 1648 238 1628 180 c 0,23,24
 1556 -26 1556 -26 1355 -124 c 128,-1,25
 1154 -222 1154 -222 858 -222 c 0,26,27
 560 -222 560 -222 354 -128 c 0,28,29
 108 -20 108 -20 108 172 c 0,30,31
 108 196 108 196 111 220 c 128,-1,32
 114 244 114 244 130 284 c 0,33,34
 168 392 168 392 263 473 c 128,-1,35
 358 554 358 554 456 554 c 0,36,37
 514 554 514 554 518 524 c 1,38,39
 518 482 518 482 448 418 c 0,40,41
 370 346 370 346 349 291 c 128,-1,42
 328 236 328 236 328 186 c 0,43,44
 328 46 328 46 473 -36 c 128,-1,45
 618 -118 618 -118 844 -118 c 0,46,47
 1276 -118 1276 -118 1386 186 c 0,48,49
 1414 266 1414 266 1414 316 c 0,50,51
 1414 404 1414 404 1342 404 c 1,52,-1
 1308 398 l 1,53,54
 1194 108 1194 108 1182 66 c 0,55,56
 1178 46 1178 46 1154 -4 c 1,57,58
 1096 -4 1096 -4 1047 25 c 128,-1,59
 998 54 998 54 998 108 c 0,60,61
 998 142 998 142 1080 338 c 0,62,63
 1186 600 1186 600 1218 696 c 1,64,-1
 1130 700 l 1,65,66
 1010 700 1010 700 929 656 c 128,-1,67
 848 612 848 612 772 508 c 1,68,-1
 848 516 l 1,69,70
 1012 516 1012 516 1012 360 c 0,71,72
 1012 334 1012 334 1006 303 c 128,-1,73
 1000 272 1000 272 986 232 c 0,74,75
 960 154 960 154 890 84 c 0,76,77
 798 -4 798 -4 672 -4 c 0,78,79
 572 -4 572 -4 520 68 c 0,80,81
 482 122 482 122 482 232 c 0,82,83
 482 362 482 362 576 511 c 128,-1,84
 670 660 670 660 800 724 c 0,85,86
 894 768 894 768 1206 768 c 1,87,88
 1202 788 1202 788 1198 810 c 128,-1,89
 1194 832 1194 832 1196 842 c 0,90,91
 1226 924 1226 924 1358 996 c 0,92,93
 1418 1026 1418 1026 1524 1045 c 128,-1,94
 1630 1064 1630 1064 1704 1064 c 0,95,96
 1786 1064 1786 1064 1853 1052 c 128,-1,97
 1920 1040 1920 1040 1976 1012 c 0,98,99
 2080 966 2080 966 2080 874 c 0,100,101
 2080 804 2080 804 2053 715 c 128,-1,102
 2026 626 2026 626 1974 510 c 0,103,104
 1916 378 1916 378 1884 269 c 128,-1,105
 1852 160 1852 160 1852 74 c 1,106,107
 1818 62 1818 62 1782 62 c 0,108,109
 1722 62 1722 62 1684 90 c 128,-1,110
 1646 118 1646 118 1646 166 c 0,111,112
 1646 212 1646 212 1754 494 c 128,-1,113
 1862 776 1862 776 1862 852 c 0,114,115
 1862 904 1862 904 1818 946 c 0,116,117
 1774 984 1774 984 1716 984 c 0,118,119
 1630 984 1630 984 1542 945 c 128,-1,120
 1454 906 1454 906 1430 838 c 0,121,122
 1428 834 1428 834 1428 808 c 0,123,124
 1428 778 1428 778 1430 768 c 1,125,126
 1468 768 1468 768 1483 780 c 128,-1,127
 1498 792 1498 792 1512 828 c 1,11,12
EndSplineSet
Ligature2: "'psts' Post Base Substitutions lookup 8 subtable" tm_nya tm_ikaar
EndChar

StartChar: tm_tt_ikaar
Encoding: 65548 -1 125
Width: 1030
GlyphClass: 2
Flags: W
LayerCount: 2
Fore
SplineSet
1138 488 m 0,0,1
 1102 374 1102 374 894 138 c 1,2,3
 1040 138 1040 138 1040 62 c 1,4,-1
 1034 16 l 1,5,6
 962 28 962 28 810 28 c 1,7,8
 664 -166 664 -166 664 -216 c 1,9,-1
 678 -258 l 1,10,11
 668 -260 668 -260 646 -260 c 0,12,13
 610 -260 610 -260 556 -242 c 0,14,15
 468 -212 468 -212 468 -142 c 0,16,17
 468 -122 468 -122 475 -101 c 128,-1,18
 482 -80 482 -80 540 6 c 1,19,-1
 412 -2 l 1,20,21
 308 -2 308 -2 234 38 c 0,22,23
 190 62 190 62 166 99 c 128,-1,24
 142 136 142 136 142 186 c 0,25,26
 142 276 142 276 262 495 c 128,-1,27
 382 714 382 714 388 766 c 1,28,29
 432 766 432 766 457 763 c 128,-1,30
 482 760 482 760 504 752 c 0,31,32
 560 734 560 734 560 686 c 0,33,34
 560 648 560 648 457 451 c 128,-1,35
 354 254 354 254 348 198 c 0,36,37
 348 162 348 162 385 127 c 128,-1,38
 422 92 422 92 464 92 c 0,39,40
 496 92 496 92 541 98 c 128,-1,41
 586 104 586 104 616 108 c 1,42,-1
 728 254 l 1,43,44
 662 268 662 268 621 324 c 128,-1,45
 580 380 580 380 580 460 c 0,46,47
 580 520 580 520 604 575 c 128,-1,48
 628 630 628 630 672 676 c 0,49,50
 760 764 760 764 896 764 c 0,51,52
 1004 764 1004 764 1078 712 c 128,-1,53
 1152 660 1152 660 1152 570 c 0,54,55
 1152 530 1152 530 1138 488 c 0,0,1
944 586 m 1,56,-1
 952 626 l 1,57,58
 952 674 952 674 926 674 c 0,59,60
 872 674 872 674 809 568 c 128,-1,61
 746 462 746 462 746 402 c 0,62,63
 746 356 746 356 786 356 c 0,64,65
 812 356 812 356 876 458 c 0,66,67
 926 540 926 540 944 586 c 1,56,-1
EndSplineSet
Ligature2: "'psts' Post Base Substitutions lookup 8 subtable" tm_tta tm_ikaar
EndChar

StartChar: tm_nn_ikaar
Encoding: 65549 -1 126
Width: 2176
GlyphClass: 2
Flags: W
LayerCount: 2
Fore
SplineSet
2346 648 m 0,0,1
 2314 554 2314 554 2178 292 c 0,2,3
 2060 58 2060 58 2058 32 c 2,4,-1
 2050 -16 l 1,5,6
 1980 -4 1980 -4 1936 30 c 0,7,8
 1882 66 1882 66 1882 110 c 1,9,10
 1900 144 1900 144 1912 168 c 0,11,12
 1952 246 1952 246 2002 336 c 0,13,14
 2132 574 2132 574 2170 684 c 0,15,16
 2186 728 2186 728 2186 762 c 0,17,18
 2186 874 2186 874 2048 874 c 0,19,20
 1892 874 1892 874 1892 768 c 0,21,22
 1892 756 1892 756 1912 738 c 2,23,-1
 1940 712 l 1,24,25
 1976 722 1976 722 2036 784 c 1,26,-1
 2078 766 l 2,27,28
 2096 754 2096 754 2096 722 c 0,29,30
 2096 682 2096 682 2042 646 c 0,31,32
 2000 622 2000 622 1962 616 c 1,33,-1
 1656 -4 l 1,34,35
 1580 18 1580 18 1554 42 c 0,36,37
 1514 76 1514 76 1514 140 c 1,38,39
 1550 206 1550 206 1656 420 c 0,40,41
 1716 538 1716 538 1776 658 c 1,42,43
 1736 670 1736 670 1684 670 c 0,44,45
 1596 670 1596 670 1518 638 c 1,46,47
 1588 570 1588 570 1588 444 c 0,48,49
 1588 370 1588 370 1557 296 c 128,-1,50
 1526 222 1526 222 1466 148 c 0,51,52
 1342 -6 1342 -6 1184 -6 c 0,53,54
 1058 -6 1058 -6 1004 90 c 1,55,56
 890 4 890 4 758 4 c 0,57,58
 624 4 624 4 560 70 c 1,59,60
 476 4 476 4 332 4 c 0,61,62
 122 4 122 4 122 206 c 0,63,64
 122 278 122 278 154 368 c 0,65,66
 298 772 298 772 746 772 c 0,67,68
 880 772 880 772 970 734 c 1,69,70
 1060 758 1060 758 1168 758 c 0,71,72
 1302 758 1302 758 1394 718 c 1,73,74
 1474 746 1474 746 1580 746 c 0,75,76
 1632 746 1632 746 1692 740 c 1,77,78
 1686 762 1686 762 1686 780 c 256,79,80
 1686 798 1686 798 1692 820 c 0,81,82
 1710 892 1710 892 1804 930 c 0,83,84
 1882 960 1882 960 1988 960 c 0,85,86
 2136 960 2136 960 2240 902 c 0,87,88
 2360 836 2360 836 2360 724 c 0,89,90
 2360 688 2360 688 2346 648 c 0,0,1
1224 636 m 1,91,-1
 1158 636 l 2,92,93
 1124 636 1124 636 1110 632 c 1,94,-1
 1144 572 l 1,95,96
 1182 610 1182 610 1224 636 c 1,91,-1
784 656 m 1,97,-1
 726 660 l 1,98,99
 600 660 600 660 472 518 c 1,100,101
 482 520 482 520 504 520 c 0,102,103
 566 520 566 520 606 486 c 1,104,105
 666 588 666 588 784 656 c 1,97,-1
1410 472 m 0,106,107
 1410 522 1410 522 1384 556 c 1,108,109
 1216 418 1216 418 1160 260 c 0,110,111
 1146 218 1146 218 1146 182 c 0,112,113
 1146 126 1146 126 1180 126 c 0,114,115
 1240 126 1240 126 1324 246 c 0,116,117
 1366 306 1366 306 1388 362 c 128,-1,118
 1410 418 1410 418 1410 472 c 0,106,107
952 416 m 0,119,120
 968 460 968 460 968 494 c 0,121,122
 968 532 968 532 948 560 c 1,123,124
 782 442 782 442 710 264 c 0,125,126
 704 246 704 246 700 228 c 128,-1,127
 696 210 696 210 696 188 c 0,128,129
 696 120 696 120 730 120 c 0,130,131
 776 120 776 120 850 224 c 0,132,133
 916 318 916 318 952 416 c 0,119,120
490 360 m 0,134,135
 502 394 502 394 502 412 c 0,136,137
 502 436 502 436 470 438 c 0,138,139
 424 438 424 438 372 384 c 1,140,141
 290 232 290 232 290 162 c 0,142,143
 290 118 290 118 316 116 c 0,144,145
 356 116 356 116 416 208 c 0,146,147
 460 278 460 278 490 360 c 0,134,135
EndSplineSet
Ligature2: "'psts' Post Base Substitutions lookup 8 subtable" tm_nna tm_ikaar
EndChar

StartChar: tm_t_ikaar
Encoding: 65550 -1 127
Width: 1134
GlyphClass: 2
Flags: W
LayerCount: 2
Fore
SplineSet
1424 888 m 0,0,1
 1424 856 1424 856 1364 720 c 1,2,3
 1312 590 1312 590 1308 562 c 1,4,5
 1262 562 1262 562 1234 566 c 128,-1,6
 1206 570 1206 570 1196 574 c 0,7,8
 1138 586 1138 586 1138 634 c 0,9,10
 1138 662 1138 662 1172 728 c 0,11,12
 1190 764 1190 764 1199 789 c 128,-1,13
 1208 814 1208 814 1208 834 c 0,14,15
 1208 946 1208 946 1102 946 c 0,16,17
 1032 946 1032 946 979 910 c 128,-1,18
 926 874 926 874 926 812 c 0,19,20
 926 786 926 786 934 770 c 1,21,22
 1012 784 1012 784 1034 854 c 1,23,-1
 1064 862 l 1,24,25
 1096 862 1096 862 1119 843 c 128,-1,26
 1142 824 1142 824 1142 792 c 0,27,28
 1142 724 1142 724 956 700 c 1,29,30
 920 658 920 658 862 550 c 1,31,32
 1122 550 1122 550 1122 364 c 0,33,34
 1122 290 1122 290 1088 196 c 0,35,36
 1026 16 1026 16 864 -76 c 0,37,38
 728 -150 728 -150 474 -150 c 0,39,40
 452 -150 452 -150 416 -148 c 128,-1,41
 380 -146 380 -146 330 -140 c 2,42,-1
 172 -130 l 1,43,44
 102 -130 102 -130 40 -173 c 128,-1,45
 -22 -216 -22 -216 -44 -274 c 1,46,47
 -82 -268 -82 -268 -117 -228 c 128,-1,48
 -152 -188 -152 -188 -152 -148 c 0,49,50
 -152 -112 -152 -112 -77 -77 c 128,-1,51
 -2 -42 -2 -42 68 -42 c 0,52,53
 152 -42 152 -42 270 -56 c 1,54,-1
 472 -70 l 1,55,56
 610 -70 610 -70 714 7 c 128,-1,57
 818 84 818 84 862 208 c 0,58,59
 894 304 894 304 894 360 c 0,60,61
 894 452 894 452 826 478 c 1,62,63
 800 402 800 402 779 346 c 128,-1,64
 758 290 758 290 714 190 c 1,65,66
 600 -8 600 -8 398 -8 c 0,67,68
 282 -8 282 -8 200 55 c 128,-1,69
 118 118 118 118 118 216 c 0,70,71
 118 400 118 400 326 504 c 1,72,73
 318 530 318 530 318 564 c 0,74,75
 318 596 318 596 330 632 c 0,76,77
 350 696 350 696 458 738 c 0,78,79
 556 772 556 772 682 772 c 0,80,81
 702 772 702 772 720 772 c 128,-1,82
 738 772 738 772 764 768 c 1,83,-1
 718 806 l 2,84,85
 700 822 700 822 696 844 c 1,86,87
 696 944 696 944 836 1002 c 0,88,89
 952 1048 952 1048 1104 1048 c 0,90,91
 1238 1048 1238 1048 1331 1011 c 128,-1,92
 1424 974 1424 974 1424 888 c 0,0,1
714 702 m 1,93,94
 536 702 536 702 514 534 c 1,95,-1
 642 542 l 1,96,-1
 714 702 l 1,93,94
614 476 m 1,97,98
 404 436 404 436 344 276 c 0,99,100
 324 216 324 216 324 178 c 0,101,102
 324 100 324 100 392 100 c 0,103,104
 492 100 492 100 570 320 c 1,105,106
 584 384 584 384 614 476 c 1,97,98
EndSplineSet
Ligature2: "'psts' Post Base Substitutions lookup 8 subtable" tm_ta tm_ikaar
EndChar

StartChar: tm_n_ikaar
Encoding: 65551 -1 128
Width: 1068
GlyphClass: 2
Flags: W
LayerCount: 2
Fore
SplineSet
1330 832 m 0,0,1
 1330 806 1330 806 1269 687 c 128,-1,2
 1208 568 1208 568 1204 534 c 1,3,4
 1112 544 1112 544 1094 550 c 0,5,6
 1038 568 1038 568 1038 614 c 0,7,8
 1038 626 1038 626 1079 698 c 128,-1,9
 1120 770 1120 770 1126 818 c 1,10,11
 1126 918 1126 918 1008 918 c 0,12,13
 946 918 946 918 900 886 c 0,14,15
 872 866 872 866 856 843 c 128,-1,16
 840 820 840 820 840 788 c 0,17,18
 840 770 840 770 854 742 c 1,19,20
 900 748 900 748 939 779 c 128,-1,21
 978 810 978 810 980 842 c 1,22,23
 1062 842 1062 842 1062 782 c 0,24,25
 1062 740 1062 740 1010 711 c 128,-1,26
 958 682 958 682 854 682 c 1,27,-1
 800 538 l 1,28,29
 822 546 822 546 842 550 c 128,-1,30
 862 554 862 554 892 554 c 0,31,32
 1098 554 1098 554 1098 362 c 0,33,34
 1098 306 1098 306 1078 248 c 0,35,36
 1042 150 1042 150 961 84 c 128,-1,37
 880 18 880 18 774 18 c 0,38,39
 736 18 736 18 698 33 c 128,-1,40
 660 48 660 48 654 72 c 0,41,42
 644 116 644 116 730 116 c 256,43,44
 816 116 816 116 870 268 c 0,45,46
 898 348 898 348 898 398 c 0,47,48
 898 468 898 468 844 468 c 0,49,50
 824 468 824 468 762 440 c 1,51,52
 616 48 616 48 628 12 c 1,53,-1
 568 4 l 1,54,55
 518 4 518 4 484 36 c 128,-1,56
 450 68 450 68 450 120 c 0,57,58
 450 142 450 142 546 382 c 0,59,60
 590 492 590 492 615 565 c 128,-1,61
 640 638 640 638 640 660 c 2,62,-1
 640 690 l 1,63,64
 580 696 580 696 532 654 c 0,65,66
 510 632 510 632 464 558 c 0,67,68
 436 512 436 512 388 346 c 128,-1,69
 340 180 340 180 296 106 c 1,70,71
 236 -8 236 -8 148 -8 c 0,72,73
 110 -8 110 -8 46 30 c 1,74,-1
 102 110 l 2,75,76
 122 142 122 142 187 355 c 128,-1,77
 252 568 252 568 300 638 c 0,78,79
 388 770 388 770 584 770 c 1,80,-1
 624 768 l 1,81,-1
 622 816 l 1,82,83
 622 1020 622 1020 990 1020 c 0,84,85
 1066 1020 1066 1020 1117 1012 c 128,-1,86
 1168 1004 1168 1004 1222 980 c 0,87,88
 1330 932 1330 932 1330 832 c 0,0,1
EndSplineSet
Ligature2: "'psts' Post Base Substitutions lookup 8 subtable" tm_na tm_ikaar
EndChar

StartChar: tm_nnn_ikaar
Encoding: 65552 -1 129
Width: 1810
GlyphClass: 2
Flags: W
LayerCount: 2
Fore
SplineSet
2004 688 m 0,0,1
 1988 642 1988 642 1954 562 c 128,-1,2
 1920 482 1920 482 1868 370 c 0,3,4
 1826 278 1826 278 1805 227 c 128,-1,5
 1784 176 1784 176 1780 158 c 2,6,-1
 1740 20 l 1,7,8
 1714 10 1714 10 1682 10 c 0,9,10
 1624 10 1624 10 1583 38 c 128,-1,11
 1542 66 1542 66 1542 120 c 1,12,-1
 1670 420 l 2,13,14
 1804 728 1804 728 1804 804 c 0,15,16
 1804 854 1804 854 1761 893 c 128,-1,17
 1718 932 1718 932 1662 932 c 0,18,19
 1578 932 1578 932 1512 884 c 0,20,21
 1454 838 1454 838 1448 776 c 0,22,23
 1448 740 1448 740 1466 728 c 1,24,-1
 1506 724 l 1,25,26
 1566 730 1566 730 1660 824 c 1,27,28
 1724 792 1724 792 1728 764 c 1,29,-1
 1724 746 l 1,30,31
 1692 654 1692 654 1588 642 c 1,32,33
 1524 506 1524 506 1450 332 c 0,34,35
 1400 210 1400 210 1371 129 c 128,-1,36
 1342 48 1342 48 1334 8 c 1,37,38
 1158 32 1158 32 1158 130 c 0,39,40
 1158 148 1158 148 1238 344 c 0,41,42
 1282 454 1282 454 1314 532 c 0,43,44
 1354 628 1354 628 1380 680 c 1,45,46
 1354 688 1354 688 1332 692 c 128,-1,47
 1310 696 1310 696 1278 696 c 0,48,49
 1208 696 1208 696 1136 668 c 1,50,51
 1230 578 1230 578 1230 482 c 0,52,53
 1230 426 1230 426 1208 368 c 0,54,55
 1160 228 1160 228 1040 114 c 0,56,57
 976 56 976 56 911 24 c 128,-1,58
 846 -8 846 -8 780 -8 c 0,59,60
 664 -8 664 -8 576 78 c 1,61,62
 498 12 498 12 348 12 c 0,63,64
 258 12 258 12 196 66 c 128,-1,65
 134 120 134 120 134 220 c 0,66,67
 134 284 134 284 160 360 c 0,68,69
 240 592 240 592 394 692 c 0,70,71
 526 776 526 776 746 776 c 0,72,73
 770 776 770 776 801 775 c 128,-1,74
 832 774 832 774 872 760 c 1,75,-1
 964 738 l 1,76,77
 1008 750 1008 750 1064 755 c 128,-1,78
 1120 760 1120 760 1188 760 c 2,79,-1
 1224 760 l 1,80,-1
 1218 800 l 1,81,82
 1218 876 1218 876 1366 941 c 128,-1,83
 1514 1006 1514 1006 1626 1006 c 0,84,85
 1686 1006 1686 1006 1742 998 c 128,-1,86
 1798 990 1798 990 1852 972 c 0,87,88
 1970 936 1970 936 2014 872 c 0,89,90
 2034 842 2034 842 2034 808 c 0,91,92
 2034 776 2034 776 2004 688 c 0,0,1
820 658 m 1,93,-1
 770 662 l 1,94,95
 590 662 590 662 482 542 c 1,96,97
 502 544 502 544 510 544 c 0,98,99
 586 544 586 544 628 496 c 1,100,101
 706 616 706 616 820 658 c 1,93,-1
980 404 m 0,102,103
 1008 484 1008 484 1008 518 c 0,104,105
 1008 546 1008 546 984 588 c 1,106,107
 862 522 862 522 780 300 c 0,108,109
 748 204 748 204 748 154 c 0,110,111
 748 100 748 100 780 100 c 0,112,113
 822 100 822 100 890 212 c 0,114,115
 944 306 944 306 980 404 c 0,102,103
516 344 m 0,116,117
 528 374 528 374 532 408 c 1,118,119
 532 446 532 446 500 448 c 0,120,121
 462 448 462 448 406 386 c 1,122,123
 322 242 322 242 322 154 c 0,124,125
 322 106 322 106 348 106 c 0,126,127
 420 106 420 106 516 344 c 0,116,117
EndSplineSet
Ligature2: "'psts' Post Base Substitutions lookup 8 subtable" tm_nnna tm_ikaar
EndChar

StartChar: tm_p_ikaar
Encoding: 65553 -1 130
Width: 1148
GlyphClass: 2
Flags: W
LayerCount: 2
Fore
SplineSet
1350 832 m 0,0,1
 1350 802 1350 802 1278 574 c 1,2,-1
 1092 18 l 1,3,4
 1040 18 1040 18 980 44 c 0,5,6
 908 78 908 78 908 142 c 0,7,8
 908 162 908 162 1022 462 c 128,-1,9
 1136 762 1136 762 1142 826 c 1,10,11
 1142 934 1142 934 1002 934 c 0,12,13
 922 934 922 934 850 894 c 0,14,15
 760 842 760 842 760 772 c 0,16,17
 760 730 760 730 792 718 c 1,18,-1
 800 734 l 1,19,20
 830 778 830 778 854 798 c 0,21,22
 888 822 888 822 958 822 c 0,23,24
 1010 822 1010 822 1068 798 c 1,25,-1
 1028 764 l 1,26,27
 1004 738 1004 738 984 694 c 0,28,29
 950 614 950 614 900 447 c 128,-1,30
 850 280 850 280 828 240 c 0,31,32
 786 162 786 162 762 132 c 0,33,34
 726 90 726 90 640 46 c 128,-1,35
 554 2 554 2 434 2 c 0,36,37
 294 2 294 2 228 56 c 128,-1,38
 162 110 162 110 162 226 c 0,39,40
 162 288 162 288 241 469 c 128,-1,41
 320 650 320 650 326 720 c 1,42,-1
 320 744 l 1,43,-1
 316 766 l 1,44,-1
 398 766 l 2,45,46
 530 766 530 766 530 676 c 0,47,48
 530 660 530 660 446 468 c 0,49,50
 404 374 404 374 382 313 c 128,-1,51
 360 252 360 252 360 222 c 0,52,53
 360 104 360 104 470 104 c 0,54,55
 582 104 582 104 660 282 c 1,56,-1
 760 610 l 1,57,58
 558 610 558 610 558 770 c 0,59,60
 558 832 558 832 591 880 c 128,-1,61
 624 928 624 928 690 966 c 0,62,63
 802 1028 802 1028 960 1028 c 0,64,65
 1108 1028 1108 1028 1229 975 c 128,-1,66
 1350 922 1350 922 1350 832 c 0,0,1
EndSplineSet
Ligature2: "'psts' Post Base Substitutions lookup 8 subtable" tm_pa tm_ikaar
EndChar

StartChar: tm_m_ikaar
Encoding: 65554 -1 131
Width: 1316
GlyphClass: 2
Flags: W
LayerCount: 2
Fore
SplineSet
1524 776 m 0,0,1
 1524 716 1524 716 1395 428 c 128,-1,2
 1266 140 1266 140 1246 58 c 1,3,-1
 1242 16 l 1,4,5
 1178 16 1178 16 1129 43 c 128,-1,6
 1080 70 1080 70 1080 128 c 0,7,8
 1080 174 1080 174 1214 448 c 0,9,10
 1282 590 1282 590 1317 677 c 128,-1,11
 1352 764 1352 764 1352 806 c 0,12,13
 1352 856 1352 856 1312 883 c 128,-1,14
 1272 910 1272 910 1210 910 c 0,15,16
 1074 910 1074 910 1062 808 c 0,17,18
 1062 780 1062 780 1066 772 c 1,19,20
 1172 738 1172 738 1172 608 c 0,21,22
 1172 544 1172 544 1142 456 c 0,23,24
 1064 228 1064 228 866 102 c 0,25,26
 800 62 800 62 686 28 c 1,27,28
 574 0 574 0 494 0 c 0,29,30
 340 0 340 0 234 60 c 0,31,32
 160 102 160 102 160 220 c 0,33,34
 160 294 160 294 254 498 c 0,35,36
 342 694 342 694 346 728 c 1,37,-1
 342 766 l 1,38,39
 380 766 380 766 412 762 c 128,-1,40
 444 758 444 758 464 752 c 0,41,42
 522 734 522 734 522 682 c 0,43,44
 522 664 522 664 436 484 c 128,-1,45
 350 304 350 304 350 240 c 0,46,47
 350 142 350 142 432 114 c 1,48,-1
 672 736 l 1,49,-1
 670 786 l 1,50,-1
 860 786 l 1,51,-1
 868 850 l 1,52,53
 920 994 920 994 1172 994 c 0,54,55
 1322 994 1322 994 1423 929 c 128,-1,56
 1524 864 1524 864 1524 776 c 0,0,1
954 524 m 0,57,58
 984 606 984 606 984 644 c 0,59,60
 984 702 984 702 910 702 c 0,61,62
 900 702 900 702 881 699 c 128,-1,63
 862 696 862 696 850 694 c 1,64,-1
 650 126 l 1,65,66
 834 200 834 200 954 524 c 0,57,58
EndSplineSet
Ligature2: "'psts' Post Base Substitutions lookup 8 subtable" tm_ma tm_ikaar
EndChar

StartChar: tm_y_ikaar
Encoding: 65555 -1 132
Width: 1442
GlyphClass: 2
Flags: W
LayerCount: 2
Fore
SplineSet
1626 726 m 0,0,1
 1626 694 1626 694 1505 377 c 128,-1,2
 1384 60 1384 60 1378 -6 c 1,3,4
 1194 -6 1194 -6 1194 104 c 0,5,6
 1194 128 1194 128 1302 400 c 128,-1,7
 1410 672 1410 672 1416 742 c 1,8,9
 1416 882 1416 882 1242 882 c 0,10,11
 1168 882 1168 882 1102 842 c 0,12,13
 1022 794 1022 794 1022 726 c 0,14,15
 1022 704 1022 704 1046 680 c 1,16,17
 1070 664 1070 664 1104 658 c 1,18,19
 1162 772 1162 772 1242 772 c 0,20,21
 1312 772 1312 772 1354 744 c 1,22,23
 1328 712 1328 712 1304 658 c 128,-1,24
 1280 604 1280 604 1248 516 c 0,25,26
 1168 290 1168 290 1150 250 c 0,27,28
 1090 122 1090 122 1034 74 c 0,29,30
 950 8 950 8 768 8 c 0,31,32
 616 8 616 8 514 86 c 1,33,34
 418 0 418 0 280 0 c 0,35,36
 106 0 106 0 106 138 c 0,37,38
 106 190 106 190 128 248 c 1,39,-1
 232 474 l 2,40,41
 266 544 266 544 286 598 c 128,-1,42
 306 652 306 652 306 688 c 1,43,44
 384 688 384 688 425 660 c 128,-1,45
 466 632 466 632 466 586 c 0,46,47
 466 564 466 564 389 404 c 128,-1,48
 312 244 312 244 312 212 c 0,49,50
 312 122 312 122 382 122 c 0,51,52
 466 122 466 122 466 218 c 0,53,54
 466 238 466 238 562 450 c 128,-1,55
 658 662 658 662 664 706 c 1,56,57
 818 706 818 706 818 614 c 0,58,59
 818 568 818 568 743 419 c 128,-1,60
 668 270 668 270 668 228 c 0,61,62
 668 104 668 104 772 104 c 0,63,64
 854 104 854 104 912 194 c 0,65,66
 952 256 952 256 1018 444 c 0,67,68
 1040 512 1040 512 1066 566 c 1,69,70
 984 566 984 566 910 618 c 0,71,72
 836 666 836 666 836 744 c 0,73,74
 836 858 836 858 956 934 c 0,75,76
 1056 1000 1056 1000 1196 1000 c 0,77,78
 1364 1000 1364 1000 1495 926 c 128,-1,79
 1626 852 1626 852 1626 726 c 0,0,1
EndSplineSet
Ligature2: "'psts' Post Base Substitutions lookup 8 subtable" tm_ya tm_ikaar
EndChar

StartChar: tm_r_ikaar
Encoding: 65556 -1 133
Width: 1190
GlyphClass: 2
Flags: W
LayerCount: 2
Fore
SplineSet
606 368 m 2,0,-1
 736 676 l 1,1,2
 546 658 546 658 500 556 c 1,3,4
 430 370 430 370 308 92 c 1,5,6
 252 0 252 0 162 0 c 0,7,8
 74 0 74 0 20 60 c 1,9,10
 68 80 68 80 114 138 c 0,11,12
 138 170 138 170 207 360 c 128,-1,13
 276 550 276 550 302 598 c 0,14,15
 352 694 352 694 390 722 c 0,16,17
 452 768 452 768 586 768 c 0,18,19
 606 768 606 768 627 768 c 128,-1,20
 648 768 648 768 676 764 c 1,21,-1
 670 808 l 1,22,23
 670 894 670 894 761 953 c 128,-1,24
 852 1012 852 1012 1012 1012 c 0,25,26
 1166 1012 1166 1012 1256 976 c 0,27,28
 1320 952 1320 952 1364 886 c 0,29,30
 1400 826 1400 826 1400 776 c 0,31,32
 1400 704 1400 704 1260 408 c 0,33,34
 1194 262 1194 262 1157 162 c 128,-1,35
 1120 62 1120 62 1120 14 c 1,36,37
 1076 14 1076 14 1006 38 c 0,38,39
 926 70 926 70 926 124 c 0,40,41
 926 152 926 152 1070 432 c 0,42,43
 1142 572 1142 572 1179 666 c 128,-1,44
 1216 760 1216 760 1216 810 c 256,45,46
 1216 860 1216 860 1173 895 c 128,-1,47
 1130 930 1130 930 1066 930 c 0,48,49
 1006 930 1006 930 956 901 c 128,-1,50
 906 872 906 872 898 804 c 0,51,52
 898 772 898 772 942 752 c 1,53,54
 1054 766 1054 766 1066 834 c 1,55,56
 1134 822 1134 822 1134 762 c 0,57,58
 1134 674 1134 674 954 674 c 1,59,60
 908 580 908 580 802 322 c 0,61,62
 780 266 780 266 748 174 c 0,63,64
 732 126 732 126 662 -48 c 0,65,66
 640 -102 640 -102 622 -130 c 0,67,68
 598 -168 598 -168 558 -192 c 0,69,70
 478 -244 478 -244 380 -244 c 0,71,72
 340 -244 340 -244 286 -232 c 128,-1,73
 232 -220 232 -220 156 -192 c 0,74,75
 10 -140 10 -140 -80 -140 c 0,76,77
 -132 -140 -132 -140 -177 -165 c 128,-1,78
 -222 -190 -222 -190 -222 -230 c 1,79,80
 -246 -230 -246 -230 -259 -228 c 128,-1,81
 -272 -226 -272 -226 -284 -214 c 0,82,83
 -306 -198 -306 -198 -306 -160 c 0,84,85
 -306 -112 -306 -112 -260 -75 c 128,-1,86
 -214 -38 -214 -38 -158 -38 c 0,87,88
 -118 -38 -118 -38 34 -80 c 128,-1,89
 186 -122 186 -122 264 -122 c 0,90,91
 344 -122 344 -122 391 -90 c 128,-1,92
 438 -58 438 -58 474 12 c 1,93,94
 474 26 474 26 519 148 c 128,-1,95
 564 270 564 270 606 368 c 2,0,-1
EndSplineSet
Ligature2: "'psts' Post Base Substitutions lookup 8 subtable" tm_ra tm_ikaar
EndChar

StartChar: tm_rr_ikaar
Encoding: 65557 -1 134
Width: 1436
GlyphClass: 2
Flags: W
LayerCount: 2
Fore
SplineSet
1656 884 m 0,0,1
 1656 814 1656 814 1629 725 c 128,-1,2
 1602 636 1602 636 1550 520 c 0,3,4
 1492 388 1492 388 1460 279 c 128,-1,5
 1428 170 1428 170 1428 84 c 1,6,7
 1394 72 1394 72 1358 72 c 0,8,9
 1298 72 1298 72 1260 100 c 128,-1,10
 1222 128 1222 128 1222 176 c 0,11,12
 1222 222 1222 222 1330 504 c 128,-1,13
 1438 786 1438 786 1438 862 c 0,14,15
 1438 914 1438 914 1394 956 c 0,16,17
 1350 994 1350 994 1292 994 c 0,18,19
 1136 994 1136 994 1086 848 c 0,20,21
 1080 836 1080 836 1086 804 c 2,22,-1
 1090 756 l 1,23,24
 1208 696 1208 696 1208 524 c 0,25,26
 1208 474 1208 474 1200 431 c 128,-1,27
 1192 388 1192 388 1170 324 c 0,28,29
 996 -164 996 -164 496 -164 c 1,30,-1
 316 -152 l 2,31,32
 256 -152 256 -152 170 -146 c 128,-1,33
 84 -140 84 -140 56 -140 c 0,34,35
 18 -140 18 -140 -15 -146 c 128,-1,36
 -48 -152 -48 -152 -80 -168 c 0,37,38
 -144 -198 -144 -198 -156 -250 c 1,39,40
 -258 -238 -258 -238 -258 -200 c 0,41,42
 -246 -64 -246 -64 32 -64 c 2,43,-1
 396 -64 l 2,44,45
 806 -64 806 -64 964 372 c 0,46,47
 1002 486 1002 486 1002 570 c 0,48,49
 1002 706 1002 706 918 706 c 0,50,51
 856 706 856 706 830 662 c 1,52,53
 856 622 856 622 856 580 c 0,54,55
 856 546 856 546 752 323 c 128,-1,56
 648 100 648 100 642 34 c 1,57,58
 548 34 548 34 506 46 c 0,59,60
 440 64 440 64 440 124 c 0,61,62
 440 158 440 158 542 370 c 128,-1,63
 644 582 644 582 644 610 c 0,64,65
 644 658 644 658 606 658 c 0,66,67
 566 658 566 658 542 640 c 1,68,-1
 510 596 l 2,69,70
 470 540 470 540 414 376 c 0,71,72
 350 184 350 184 328 140 c 0,73,74
 290 62 290 62 242 30 c 128,-1,75
 194 -2 194 -2 116 -2 c 0,76,77
 74 -2 74 -2 22 28 c 1,78,79
 52 48 52 48 100 110 c 1,80,81
 146 202 146 202 204 376 c 2,82,-1
 264 558 l 1,83,84
 364 762 364 762 598 762 c 0,85,86
 680 762 680 762 742 734 c 1,87,88
 780 762 780 762 862 778 c 1,89,90
 846 822 846 822 852 852 c 1,91,92
 882 934 882 934 1016 1004 c 128,-1,93
 1150 1074 1150 1074 1280 1074 c 0,94,95
 1362 1074 1362 1074 1429 1062 c 128,-1,96
 1496 1050 1496 1050 1552 1022 c 0,97,98
 1656 976 1656 976 1656 884 c 0,0,1
EndSplineSet
Ligature2: "'psts' Post Base Substitutions lookup 8 subtable" tm_rra tm_ikaar
EndChar

StartChar: tm_l_ikaar
Encoding: 65558 -1 135
Width: 1594
GlyphClass: 2
Flags: W
LayerCount: 2
Fore
SplineSet
1806 830 m 0,0,1
 1806 814 1806 814 1690 470 c 128,-1,2
 1574 126 1574 126 1574 16 c 1,3,4
 1476 16 1476 16 1434 30 c 0,5,6
 1366 54 1366 54 1366 126 c 0,7,8
 1366 156 1366 156 1504 570 c 1,9,-1
 1580 790 l 1,10,11
 1580 856 1580 856 1535 890 c 128,-1,12
 1490 924 1490 924 1394 924 c 0,13,14
 1230 924 1230 924 1206 754 c 1,15,16
 1292 718 1292 718 1349 639 c 128,-1,17
 1406 560 1406 560 1406 460 c 0,18,19
 1406 396 1406 396 1384 340 c 0,20,21
 1348 232 1348 232 1274 146 c 0,22,23
 1154 4 1154 4 920 4 c 0,24,25
 688 4 688 4 656 140 c 1,26,27
 560 -8 560 -8 376 -8 c 0,28,29
 268 -8 268 -8 204 44 c 0,30,31
 132 102 132 102 132 212 c 0,32,33
 132 248 132 248 140 290 c 128,-1,34
 148 332 148 332 166 380 c 0,35,36
 208 502 208 502 354 648 c 0,37,38
 478 772 478 772 698 772 c 0,39,40
 790 772 790 772 870 753 c 128,-1,41
 950 734 950 734 970 702 c 1,42,-1
 966 726 l 1,43,44
 966 784 966 784 1011 855 c 128,-1,45
 1056 926 1056 926 1136 976 c 0,46,47
 1242 1038 1242 1038 1400 1038 c 0,48,49
 1472 1038 1472 1038 1540 1024 c 128,-1,50
 1608 1010 1608 1010 1672 980 c 0,51,52
 1806 918 1806 918 1806 830 c 0,0,1
822 596 m 0,53,54
 822 694 822 694 720 694 c 0,55,56
 572 694 572 694 452 502 c 1,57,58
 498 522 498 522 546 522 c 0,59,60
 718 522 718 522 718 354 c 1,61,-1
 786 484 l 2,62,63
 804 520 804 520 813 547 c 128,-1,64
 822 574 822 574 822 596 c 0,53,54
1190 548 m 1,65,66
 1196 600 1196 600 1156 644 c 0,67,68
 1122 686 1122 686 1064 686 c 0,69,70
 1046 686 1046 686 1004 668 c 1,71,72
 1032 624 1032 624 1032 546 c 0,73,74
 1032 496 1032 496 960 378 c 0,75,76
 896 272 896 272 890 226 c 1,77,78
 890 120 890 120 960 120 c 0,79,80
 1068 120 1068 120 1154 364 c 0,81,82
 1190 466 1190 466 1190 548 c 1,65,66
510 354 m 1,83,84
 516 416 516 416 480 416 c 0,85,86
 430 416 430 416 360 302 c 1,87,88
 340 252 340 252 332 226 c 128,-1,89
 324 200 324 200 320 172 c 1,90,91
 320 96 320 96 360 96 c 0,92,93
 414 96 414 96 466 196 c 0,94,95
 510 284 510 284 510 354 c 1,83,84
EndSplineSet
Ligature2: "'psts' Post Base Substitutions lookup 8 subtable" tm_la tm_ikaar
EndChar

StartChar: tm_ll_ikaar
Encoding: 65559 -1 136
Width: 1744
GlyphClass: 2
Flags: W
LayerCount: 2
Fore
SplineSet
1964 838 m 0,0,1
 1964 786 1964 786 1828 426 c 0,2,3
 1706 98 1706 98 1706 44 c 1,4,-1
 1648 40 l 1,5,6
 1512 40 1512 40 1512 140 c 0,7,8
 1512 174 1512 174 1626 462 c 128,-1,9
 1740 750 1740 750 1740 814 c 0,10,11
 1740 900 1740 900 1696 928 c 0,12,13
 1662 948 1662 948 1588 948 c 0,14,15
 1502 948 1502 948 1441 902 c 128,-1,16
 1380 856 1380 856 1380 782 c 0,17,18
 1380 756 1380 756 1390 744 c 2,19,-1
 1418 722 l 1,20,21
 1532 722 1532 722 1568 800 c 1,22,23
 1600 802 1600 802 1630 787 c 128,-1,24
 1660 772 1660 772 1660 744 c 0,25,26
 1660 636 1660 636 1526 636 c 1,27,-1
 1440 644 l 1,28,29
 1422 586 1422 586 1300 310 c 0,30,31
 1208 102 1208 102 1208 40 c 1,32,33
 1164 40 1164 40 1137 43 c 128,-1,34
 1110 46 1110 46 1084 54 c 0,35,36
 1012 72 1012 72 1012 126 c 0,37,38
 1012 148 1012 148 1040 221 c 128,-1,39
 1068 294 1068 294 1120 414 c 0,40,41
 1218 638 1218 638 1212 680 c 1,42,43
 1056 680 1056 680 1020 662 c 1,44,45
 1054 630 1054 630 1054 582 c 0,46,47
 1054 530 1054 530 952 302 c 128,-1,48
 850 74 850 74 842 30 c 1,49,-1
 726 50 l 1,50,51
 664 68 664 68 664 126 c 0,52,53
 664 158 664 158 752 352 c 0,54,55
 834 538 834 538 840 582 c 1,56,57
 840 628 840 628 804 656 c 0,58,59
 794 662 794 662 771 672 c 128,-1,60
 748 682 748 682 716 682 c 0,61,62
 580 682 580 682 478 536 c 1,63,-1
 526 540 l 1,64,65
 606 540 606 540 658 497 c 128,-1,66
 710 454 710 454 710 372 c 0,67,68
 710 254 710 254 616 134 c 0,69,70
 514 -2 514 -2 378 -2 c 0,71,72
 258 -2 258 -2 199 70 c 128,-1,73
 140 142 140 142 140 248 c 0,74,75
 140 290 140 290 146 326 c 128,-1,76
 152 362 152 362 168 404 c 0,77,78
 226 570 226 570 351 672 c 128,-1,79
 476 774 476 774 638 774 c 0,80,81
 718 774 718 774 786 762 c 128,-1,82
 854 750 854 750 924 722 c 1,83,84
 960 758 960 758 1122 758 c 1,85,-1
 1160 756 l 1,86,-1
 1154 792 l 1,87,88
 1154 832 1154 832 1189 873 c 128,-1,89
 1224 914 1224 914 1292 954 c 0,90,91
 1426 1030 1426 1030 1592 1030 c 0,92,93
 1730 1030 1730 1030 1847 980 c 128,-1,94
 1964 930 1964 930 1964 838 c 0,0,1
500 292 m 0,95,96
 526 370 526 370 526 402 c 0,97,98
 526 444 526 444 494 446 c 0,99,100
 438 446 438 446 346 274 c 1,101,102
 310 186 310 186 310 132 c 0,103,104
 310 76 310 76 346 76 c 0,105,106
 368 76 368 76 422 142 c 1,107,108
 470 208 470 208 500 292 c 0,95,96
EndSplineSet
Ligature2: "'psts' Post Base Substitutions lookup 8 subtable" tm_lla tm_ikaar
EndChar

StartChar: tm_lll_ikaar
Encoding: 65560 -1 137
Width: 1358
GlyphClass: 2
Flags: W
LayerCount: 2
Fore
SplineSet
1540 652 m 1,0,-1
 1408 338 l 2,1,2
 1364 234 1364 234 1341 165 c 128,-1,3
 1318 96 1318 96 1318 54 c 1,4,5
 1218 78 1218 78 1196 92 c 0,6,7
 1140 118 1140 118 1140 172 c 0,8,9
 1140 210 1140 210 1222 372 c 0,10,11
 1252 432 1252 432 1288 512 c 0,12,13
 1334 610 1334 610 1358 672 c 0,14,15
 1396 774 1396 774 1396 828 c 0,16,17
 1396 892 1396 892 1348 916 c 0,18,19
 1316 932 1316 932 1238 932 c 0,20,21
 1094 932 1094 932 1094 826 c 0,22,23
 1094 812 1094 812 1102 796 c 2,24,-1
 1124 764 l 1,25,26
 1218 746 1218 746 1218 610 c 0,27,28
 1218 538 1218 538 1182 432 c 0,29,30
 1110 230 1110 230 946 102 c 0,31,32
 852 30 852 30 674 6 c 1,33,34
 708 -30 708 -30 778 -30 c 0,35,36
 816 -30 816 -30 862 -8 c 0,37,38
 916 14 916 14 940 44 c 1,39,40
 1000 14 1000 14 1000 -12 c 1,41,42
 976 -82 976 -82 838 -136 c 0,43,44
 708 -184 708 -184 566 -184 c 0,45,46
 528 -184 528 -184 440 -179 c 128,-1,47
 352 -174 352 -174 318 -174 c 2,48,-1
 74 -166 l 1,49,50
 -52 -166 -52 -166 -112 -244 c 1,51,52
 -164 -218 -164 -218 -164 -176 c 0,53,54
 -164 -128 -164 -128 -66 -98 c 0,55,56
 12 -76 12 -76 98 -76 c 0,57,58
 142 -76 142 -76 172 -78 c 0,59,60
 320 -88 320 -88 358 -88 c 0,61,62
 432 -88 432 -88 496 -90 c 128,-1,63
 560 -92 560 -92 622 -94 c 1,64,65
 578 -42 578 -42 534 -4 c 1,66,-1
 492 -4 l 2,67,68
 474 -4 474 -4 456 -4 c 0,69,70
 432 0 432 0 420 0 c 0,71,72
 362 0 362 0 322 9 c 128,-1,73
 282 18 282 18 242 40 c 0,74,75
 150 86 150 86 150 184 c 0,76,77
 150 232 150 232 235 446 c 128,-1,78
 320 660 320 660 326 726 c 1,79,-1
 324 772 l 1,80,81
 428 772 428 772 464 758 c 1,82,83
 532 740 532 740 532 672 c 0,84,85
 532 630 532 630 453 442 c 128,-1,86
 374 254 374 254 368 192 c 1,87,88
 368 104 368 104 478 78 c 1,89,-1
 474 118 l 2,90,91
 474 158 474 158 567 403 c 128,-1,92
 660 648 660 648 694 786 c 1,93,-1
 890 780 l 1,94,95
 882 804 882 804 882 830 c 0,96,97
 882 930 882 930 1004 980 c 0,98,99
 1096 1020 1096 1020 1232 1020 c 0,100,101
 1326 1020 1326 1020 1414 986 c 0,102,103
 1502 956 1502 956 1538 902 c 0,104,105
 1576 838 1576 838 1576 806 c 0,106,107
 1576 760 1576 760 1540 652 c 1,0,-1
974 488 m 0,108,109
 1018 614 1018 614 1018 662 c 0,110,111
 1018 694 1018 694 1004 701 c 128,-1,112
 990 708 990 708 950 708 c 1,113,-1
 892 700 l 1,114,115
 796 460 796 460 662 90 c 1,116,117
 860 162 860 162 974 488 c 0,108,109
EndSplineSet
Ligature2: "'psts' Post Base Substitutions lookup 8 subtable" tm_llla tm_ikaar
EndChar

StartChar: tm_v_ikaar
Encoding: 65561 -1 138
Width: 1690
GlyphClass: 2
Flags: W
LayerCount: 2
Fore
SplineSet
1918 804 m 0,0,1
 1918 762 1918 762 1750 396 c 0,2,3
 1590 42 1590 42 1584 -10 c 1,4,5
 1570 -14 1570 -14 1546 -14 c 128,-1,6
 1522 -14 1522 -14 1508 -14 c 0,7,8
 1394 4 1394 4 1394 84 c 0,9,10
 1394 142 1394 142 1536 430 c 0,11,12
 1606 574 1606 574 1643 667 c 128,-1,13
 1680 760 1680 760 1680 804 c 0,14,15
 1680 948 1680 948 1516 948 c 0,16,17
 1440 948 1440 948 1372 903 c 128,-1,18
 1304 858 1304 858 1304 788 c 0,19,20
 1304 750 1304 750 1316 734 c 1,21,-1
 1346 718 l 1,22,23
 1388 784 1388 784 1496 784 c 0,24,25
 1554 784 1554 784 1610 756 c 1,26,27
 1562 714 1562 714 1472 510 c 1,28,-1
 1326 154 l 2,29,30
 1256 -18 1256 -18 1066 -18 c 0,31,32
 1002 -18 1002 -18 902 2 c 0,33,34
 860 10 860 10 816 16 c 128,-1,35
 772 22 772 22 748 22 c 0,36,37
 686 22 686 22 648 0 c 2,38,-1
 606 -24 l 1,39,40
 558 -24 558 -24 558 28 c 1,41,-1
 562 52 l 1,42,43
 468 -12 468 -12 364 -12 c 0,44,45
 262 -12 262 -12 198 40 c 0,46,47
 128 98 128 98 128 206 c 0,48,49
 128 280 128 280 160 368 c 0,50,51
 228 558 228 558 352 654 c 0,52,53
 492 758 492 758 716 758 c 0,54,55
 1096 758 1096 758 1096 522 c 0,56,57
 1096 450 1096 450 1064 360 c 0,58,59
 1004 192 1004 192 864 94 c 1,60,61
 896 90 896 90 908 90 c 0,62,63
 924 92 924 92 932 92 c 0,64,65
 1004 102 1004 102 1016 108 c 0,66,67
 1050 120 1050 120 1090 156 c 0,68,69
 1132 198 1132 198 1186 342 c 0,70,71
 1270 566 1270 566 1284 594 c 1,72,73
 1200 610 1200 610 1142 652 c 0,74,75
 1064 704 1064 704 1064 792 c 0,76,77
 1064 896 1064 896 1216 974 c 1,78,79
 1350 1038 1350 1038 1508 1038 c 0,80,81
 1646 1038 1646 1038 1782 971 c 128,-1,82
 1918 904 1918 904 1918 804 c 0,0,1
856 428 m 0,83,84
 878 490 878 490 878 538 c 0,85,86
 878 664 878 664 756 664 c 0,87,88
 670 664 670 664 612 624 c 0,89,90
 564 592 564 592 500 508 c 1,91,-1
 560 514 l 1,92,93
 740 514 740 514 740 366 c 0,94,95
 740 220 740 220 610 90 c 1,96,-1
 642 96 l 1,97,98
 694 138 694 138 759 237 c 128,-1,99
 824 336 824 336 856 428 c 0,83,84
512 316 m 0,100,101
 534 378 534 378 534 416 c 0,102,103
 534 452 534 452 512 452 c 0,104,105
 458 452 458 452 358 286 c 1,106,107
 322 204 322 204 322 146 c 0,108,109
 322 90 322 90 364 90 c 0,110,111
 386 90 386 90 433 161 c 128,-1,112
 480 232 480 232 512 316 c 0,100,101
EndSplineSet
Ligature2: "'psts' Post Base Substitutions lookup 8 subtable" tm_va tm_ikaar
EndChar

StartChar: tm_ss_ikaar
Encoding: 65562 -1 139
Width: 2020
GlyphClass: 2
Flags: W
LayerCount: 2
Fore
SplineSet
2196 652 m 2,0,-1
 2042 288 l 1,1,-1
 1984 144 l 1,2,3
 1960 72 1960 72 1954 24 c 1,4,-1
 1960 -4 l 1,5,6
 1828 -4 1828 -4 1780 32 c 0,7,8
 1748 56 1748 56 1748 118 c 0,9,10
 1748 156 1748 156 1840 352 c 0,11,12
 1892 470 1892 470 1928 555 c 128,-1,13
 1964 640 1964 640 1978 678 c 0,14,15
 2002 744 2002 744 2002 794 c 0,16,17
 2002 920 2002 920 1854 920 c 0,18,19
 1772 920 1772 920 1722 870 c 128,-1,20
 1672 820 1672 820 1672 746 c 0,21,22
 1672 722 1672 722 1676 710 c 1,23,24
 1718 682 1718 682 1740 645 c 128,-1,25
 1762 608 1762 608 1762 556 c 0,26,27
 1762 528 1762 528 1760 514 c 128,-1,28
 1758 500 1758 500 1746 472 c 0,29,30
 1716 386 1716 386 1614 278 c 0,31,32
 1590 252 1590 252 1545 209 c 128,-1,33
 1500 166 1500 166 1424 96 c 1,34,35
 1664 96 1664 96 1676 118 c 1,36,37
 1688 104 1688 104 1690 84 c 0,38,39
 1690 58 1690 58 1658 32 c 0,40,41
 1626 10 1626 10 1590 10 c 2,42,-1
 1334 10 l 1,43,44
 1204 -132 1204 -132 1192 -224 c 1,45,46
 1198 -234 1198 -234 1205 -242 c 128,-1,47
 1212 -250 1212 -250 1222 -262 c 1,48,49
 1000 -262 1000 -262 1000 -116 c 0,50,51
 1000 -72 1000 -72 1070 10 c 1,52,-1
 594 10 l 1,53,54
 582 18 582 18 562 74 c 1,55,56
 468 -2 468 -2 362 -2 c 0,57,58
 266 -2 266 -2 202 64 c 0,59,60
 142 130 142 130 142 242 c 0,61,62
 142 326 142 326 174 416 c 0,63,64
 228 574 228 574 371 670 c 128,-1,65
 514 766 514 766 694 766 c 0,66,67
 850 766 850 766 954 692 c 0,68,69
 1066 610 1066 610 1066 468 c 0,70,71
 1066 398 1066 398 1038 320 c 0,72,73
 990 184 990 184 892 106 c 1,74,-1
 1148 100 l 1,75,-1
 1294 242 l 1,76,77
 1228 254 1228 254 1178 292 c 0,78,79
 1114 344 1114 344 1114 428 c 0,80,81
 1114 470 1114 470 1132 524 c 0,82,83
 1174 640 1174 640 1262 704 c 128,-1,84
 1350 768 1350 768 1454 768 c 1,85,86
 1454 1004 1454 1004 1844 1004 c 0,87,88
 1968 1004 1968 1004 2062 972 c 0,89,90
 2224 920 2224 920 2224 786 c 0,91,92
 2224 724 2224 724 2196 652 c 2,0,-1
1516 544 m 0,93,94
 1530 594 1530 594 1530 622 c 0,95,96
 1530 672 1530 672 1496 672 c 0,97,98
 1466 672 1466 672 1425 619 c 128,-1,99
 1384 566 1384 566 1360 488 c 128,-1,100
 1336 410 1336 410 1336 376 c 256,101,102
 1336 342 1336 342 1374 318 c 1,103,104
 1474 426 1474 426 1516 544 c 0,93,94
830 372 m 0,105,106
 858 452 858 452 858 512 c 0,107,108
 858 672 858 672 692 672 c 0,109,110
 554 672 554 672 446 486 c 1,111,112
 470 492 470 492 514 492 c 0,113,114
 698 492 698 492 698 336 c 0,115,116
 698 224 698 224 608 116 c 1,117,-1
 644 114 l 1,118,119
 762 184 762 184 830 372 c 0,105,106
482 264 m 0,120,121
 502 324 502 324 502 354 c 0,122,123
 502 400 502 400 462 400 c 0,124,125
 408 400 408 400 367 315 c 128,-1,126
 326 230 326 230 326 150 c 0,127,128
 326 90 326 90 360 90 c 0,129,130
 384 90 384 90 422 142 c 0,131,132
 458 198 458 198 482 264 c 0,120,121
EndSplineSet
Ligature2: "'psts' Post Base Substitutions lookup 8 subtable" tm_ssa tm_ikaar
EndChar

StartChar: tm_s_ikaar
Encoding: 65563 -1 140
Width: 1954
GlyphClass: 2
Flags: W
LayerCount: 2
Fore
SplineSet
2160 830 m 0,0,1
 2160 814 2160 814 2046 472 c 0,2,3
 1990 304 1990 304 1958 188 c 128,-1,4
 1926 72 1926 72 1926 16 c 1,5,6
 1826 16 1826 16 1786 30 c 0,7,8
 1718 54 1718 54 1718 126 c 0,9,10
 1718 156 1718 156 1858 570 c 2,11,-1
 1932 788 l 1,12,13
 1932 924 1932 924 1746 924 c 0,14,15
 1582 924 1582 924 1558 756 c 1,16,17
 1646 720 1646 720 1702 641 c 128,-1,18
 1758 562 1758 562 1758 464 c 0,19,20
 1758 400 1758 400 1736 344 c 0,21,22
 1616 4 1616 4 1272 4 c 0,23,24
 1160 4 1160 4 1081 48 c 128,-1,25
 1002 92 1002 92 1002 186 c 0,26,27
 1002 198 1002 198 1021 244 c 128,-1,28
 1040 290 1040 290 1078 368 c 0,29,30
 1152 528 1152 528 1152 558 c 0,31,32
 1152 660 1152 660 1060 660 c 0,33,34
 1032 660 1032 660 1002 628 c 1,35,36
 1036 578 1036 578 1036 530 c 0,37,38
 1036 480 1036 480 1004 392 c 0,39,40
 980 326 980 326 906 166 c 0,41,42
 846 34 846 34 846 6 c 1,43,44
 798 6 798 6 773 10 c 128,-1,45
 748 14 748 14 730 22 c 0,46,47
 666 46 666 46 666 120 c 0,48,49
 666 156 666 156 716 268 c 2,50,-1
 800 464 l 2,51,52
 810 490 810 490 816 518 c 128,-1,53
 822 546 822 546 822 570 c 0,54,55
 822 688 822 688 692 688 c 0,56,57
 566 688 566 688 454 490 c 1,58,-1
 512 498 l 1,59,60
 590 498 590 498 642 452 c 0,61,62
 694 410 694 410 694 328 c 0,63,64
 694 276 694 276 672 220 c 0,65,66
 640 124 640 124 565 64 c 128,-1,67
 490 4 490 4 394 4 c 0,68,69
 286 4 286 4 213 71 c 128,-1,70
 140 138 140 138 140 252 c 0,71,72
 140 330 140 330 172 420 c 0,73,74
 302 784 302 784 668 784 c 0,75,76
 802 784 802 784 908 716 c 1,77,78
 976 772 976 772 1086 772 c 0,79,80
 1226 772 1226 772 1314 696 c 1,81,-1
 1312 722 l 2,82,83
 1312 734 1312 734 1330 752 c 1,84,85
 1348 882 1348 882 1467 960 c 128,-1,86
 1586 1038 1586 1038 1752 1038 c 0,87,88
 1898 1038 1898 1038 2029 978 c 128,-1,89
 2160 918 2160 918 2160 830 c 0,0,1
1504 368 m 0,90,91
 1542 478 1542 478 1542 546 c 0,92,93
 1542 682 1542 682 1416 682 c 0,94,95
 1384 682 1384 682 1348 660 c 1,96,97
 1382 616 1382 616 1382 558 c 256,98,99
 1382 500 1382 500 1321 372 c 128,-1,100
 1260 244 1260 244 1254 176 c 1,101,102
 1254 112 1254 112 1308 112 c 0,103,104
 1408 112 1408 112 1504 368 c 0,90,91
490 276 m 0,105,106
 510 336 510 336 510 364 c 0,107,108
 510 416 510 416 470 416 c 0,109,110
 434 416 434 416 384 352 c 1,111,112
 328 250 328 250 328 164 c 0,113,114
 328 94 328 94 372 94 c 0,115,116
 390 94 390 94 428 153 c 128,-1,117
 466 212 466 212 490 276 c 0,105,106
EndSplineSet
Ligature2: "'psts' Post Base Substitutions lookup 8 subtable" tm_sa tm_ikaar
EndChar

StartChar: tm_h_ikaar
Encoding: 65564 -1 141
Width: 2416
GlyphClass: 2
Flags: W
LayerCount: 2
Fore
SplineSet
2632 890 m 0,0,1
 2632 856 2632 856 2584 712 c 2,2,-1
 2522 516 l 1,3,-1
 2402 128 l 1,4,-1
 2402 84 l 1,5,6
 2354 66 2354 66 2304 66 c 0,7,8
 2188 66 2188 66 2188 152 c 0,9,10
 2188 200 2188 200 2290 488 c 0,11,12
 2338 626 2338 626 2366 725 c 128,-1,13
 2394 824 2394 824 2394 866 c 0,14,15
 2394 924 2394 924 2354 958 c 128,-1,16
 2314 992 2314 992 2254 992 c 0,17,18
 2162 992 2162 992 2102 946 c 0,19,20
 2042 904 2042 904 2034 836 c 1,21,22
 2202 800 2202 800 2202 570 c 0,23,24
 2202 468 2202 468 2160 344 c 0,25,26
 2070 92 2070 92 1846 -34 c 0,27,28
 1784 -68 1784 -68 1641 -101 c 128,-1,29
 1498 -134 1498 -134 1380 -134 c 2,30,-1
 918 -128 l 1,31,-1
 478 -122 l 2,32,33
 342 -122 342 -122 286 -138 c 0,34,35
 166 -168 166 -168 134 -260 c 1,36,-1
 74 -242 l 2,37,38
 46 -236 46 -236 46 -188 c 0,39,40
 46 -116 46 -116 135 -75 c 128,-1,41
 224 -34 224 -34 394 -34 c 2,42,-1
 846 -34 l 1,43,-1
 1320 -42 l 2,44,45
 1552 -42 1552 -42 1718 90 c 0,46,47
 1854 202 1854 202 1916 388 c 0,48,49
 1938 452 1938 452 1950 510 c 128,-1,50
 1962 568 1962 568 1962 614 c 0,51,52
 1962 692 1962 692 1924 728 c 1,53,-1
 1836 750 l 1,54,55
 1818 750 1818 750 1808 740 c 2,56,-1
 1790 722 l 1,57,58
 1808 698 1808 698 1808 658 c 0,59,60
 1808 596 1808 596 1764 478 c 2,61,-1
 1678 256 l 2,62,63
 1646 166 1646 166 1646 132 c 0,64,65
 1646 108 1646 108 1658 84 c 1,66,67
 1622 66 1622 66 1578 66 c 0,68,69
 1514 66 1514 66 1472 94 c 128,-1,70
 1430 122 1430 122 1430 184 c 0,71,72
 1430 200 1430 200 1519 422 c 128,-1,73
 1608 644 1608 644 1612 674 c 0,74,75
 1616 694 1616 694 1604 711 c 128,-1,76
 1592 728 1592 728 1574 728 c 0,77,78
 1514 728 1514 728 1473 647 c 128,-1,79
 1432 566 1432 566 1382 400 c 1,80,81
 1340 244 1340 244 1322 214 c 0,82,83
 1230 32 1230 32 1104 32 c 1,84,-1
 942 38 l 1,85,-1
 806 46 l 1,86,87
 726 46 726 46 644 8 c 1,88,-1
 626 20 l 1,89,90
 610 38 610 38 608 70 c 1,91,92
 566 34 566 34 512 17 c 128,-1,93
 458 0 458 0 394 0 c 0,94,95
 266 0 266 0 199 60 c 128,-1,96
 132 120 132 120 132 226 c 0,97,98
 132 298 132 298 168 404 c 0,99,100
 226 566 226 566 362 668 c 0,101,102
 506 776 506 776 706 776 c 0,103,104
 882 776 882 776 987 699 c 128,-1,105
 1092 622 1092 622 1092 484 c 0,106,107
 1092 412 1092 412 1060 324 c 0,108,109
 1016 198 1016 198 940 120 c 1,110,111
 1002 126 1002 126 1062 186 c 0,112,113
 1110 232 1110 232 1132 288 c 1,114,-1
 1186 488 l 2,115,116
 1222 628 1222 628 1260 694 c 0,117,118
 1340 840 1340 840 1558 840 c 0,119,120
 1630 840 1630 840 1750 780 c 1,121,122
 1740 798 1740 798 1800 822 c 1,123,124
 1800 870 1800 870 1841 916 c 128,-1,125
 1882 962 1882 962 1962 1006 c 0,126,127
 2100 1078 2100 1078 2248 1078 c 0,128,129
 2424 1078 2424 1078 2528 1030 c 128,-1,130
 2632 982 2632 982 2632 890 c 0,0,1
834 340 m 0,131,132
 862 420 862 420 862 486 c 0,133,134
 862 578 862 578 817 630 c 128,-1,135
 772 682 772 682 714 682 c 0,136,137
 564 682 564 682 452 498 c 1,138,139
 488 516 488 516 568 516 c 0,140,141
 644 516 644 516 696 480 c 0,142,143
 752 436 752 436 752 356 c 0,144,145
 752 218 752 218 638 100 c 1,146,-1
 700 98 l 1,147,148
 792 226 792 226 834 340 c 0,131,132
506 244 m 0,149,150
 544 352 544 352 544 394 c 0,151,152
 544 448 544 448 502 448 c 0,153,154
 430 448 430 448 390 355 c 128,-1,155
 350 262 350 262 350 162 c 0,156,157
 350 76 350 76 392 76 c 0,158,159
 442 76 442 76 506 244 c 0,149,150
EndSplineSet
Ligature2: "'psts' Post Base Substitutions lookup 8 subtable" tm_ha tm_ikaar
EndChar

StartChar: tm_k_iikaar
Encoding: 65565 -1 142
Width: 1072
GlyphClass: 2
Flags: W
LayerCount: 2
Fore
SplineSet
1354 1002 m 0,0,1
 1354 926 1354 926 1282 880 c 0,2,3
 1218 842 1218 842 1136 842 c 256,4,5
 1054 842 1054 842 996 872 c 0,6,7
 930 908 930 908 936 976 c 1,8,9
 882 918 882 918 872 836 c 0,10,11
 872 810 872 810 881 789 c 128,-1,12
 890 768 890 768 912 748 c 1,13,-1
 958 748 l 2,14,15
 996 748 996 748 1030 766 c 1,16,-1
 1078 802 l 1,17,18
 1098 802 1098 802 1128 782 c 128,-1,19
 1158 762 1158 762 1158 732 c 1,20,21
 1116 666 1116 666 968 666 c 1,22,23
 948 646 948 646 904 574 c 1,24,-1
 950 574 l 2,25,26
 1030 574 1030 574 1094 512 c 0,27,28
 1158 454 1158 454 1158 370 c 0,29,30
 1158 226 1158 226 1038 110 c 0,31,32
 930 2 930 2 802 2 c 0,33,34
 664 2 664 2 610 62 c 1,35,36
 512 -18 512 -18 380 -18 c 0,37,38
 280 -18 280 -18 202 36 c 0,39,40
 122 96 122 96 122 216 c 0,41,42
 122 398 122 398 312 524 c 0,43,44
 326 534 326 534 374 546 c 1,45,-1
 372 570 l 1,46,-1
 372 598 l 2,47,48
 372 668 372 668 443 712 c 128,-1,49
 514 756 514 756 622 756 c 2,50,-1
 704 754 l 1,51,52
 672 792 672 792 672 846 c 0,53,54
 672 994 672 994 848 1080 c 0,55,56
 952 1132 952 1132 1110 1132 c 0,57,58
 1204 1132 1204 1132 1279 1099 c 128,-1,59
 1354 1066 1354 1066 1354 1002 c 0,0,1
1178 988 m 1,60,61
 1178 1048 1178 1048 1096 1048 c 1,62,-1
 1068 1046 l 1,63,64
 1026 1024 1026 1024 1022 990 c 1,65,66
 1022 932 1022 932 1108 932 c 0,67,68
 1172 932 1172 932 1178 988 c 1,60,61
758 686 m 1,69,70
 608 686 608 686 560 564 c 1,71,-1
 696 564 l 1,72,73
 720 630 720 630 758 686 c 1,69,70
962 372 m 0,74,75
 962 434 962 434 936 460 c 0,76,77
 920 476 920 476 864 482 c 1,78,-1
 792 294 l 1,79,80
 744 188 744 188 698 140 c 1,81,82
 704 124 704 124 734 120 c 1,83,84
 800 120 800 120 880 200 c 0,85,86
 920 240 920 240 941 282 c 128,-1,87
 962 324 962 324 962 372 c 0,74,75
664 494 m 1,88,89
 600 494 600 494 561 487 c 128,-1,90
 522 480 522 480 498 464 c 0,91,92
 436 426 436 426 381 344 c 128,-1,93
 326 262 326 262 326 200 c 0,94,95
 326 108 326 108 398 108 c 0,96,97
 484 108 484 108 548 214 c 0,98,99
 578 264 578 264 642 430 c 1,100,-1
 664 494 l 1,88,89
EndSplineSet
Ligature2: "'abvs' Above Base Substitutions lookup 6 subtable" tm_ka tm_iikaar
EndChar

StartChar: tm_ng_iikaar
Encoding: 65566 -1 143
Width: 1578
GlyphClass: 2
Flags: W
LayerCount: 2
Fore
SplineSet
956 8 m 1,0,-1
 864 22 l 1,1,2
 814 22 814 22 776 0 c 1,3,-1
 726 26 l 2,4,5
 704 38 704 38 704 78 c 256,6,7
 704 118 704 118 742 130 c 2,8,-1
 786 140 l 1,9,10
 896 228 896 228 896 376 c 0,11,12
 896 448 896 448 852 448 c 0,13,14
 826 448 826 448 806 426 c 1,15,16
 658 52 658 52 670 8 c 1,17,18
 476 8 476 8 488 118 c 1,19,-1
 500 166 l 1,20,-1
 678 656 l 1,21,22
 600 644 600 644 548 624 c 0,23,24
 494 600 494 600 422 404 c 0,25,26
 322 130 322 130 292 76 c 0,27,28
 244 -12 244 -12 150 -12 c 0,29,30
 90 -12 90 -12 18 36 c 1,31,32
 48 54 48 54 84 90 c 0,33,34
 108 112 108 112 186 341 c 128,-1,35
 264 570 264 570 284 604 c 0,36,37
 364 744 364 744 558 744 c 1,38,-1
 676 738 l 1,39,-1
 794 732 l 1,40,41
 958 732 958 732 1008 818 c 1,42,43
 1070 804 1070 804 1070 754 c 0,44,45
 1070 712 1070 712 1026 690 c 128,-1,46
 982 668 982 668 896 668 c 1,47,48
 892 654 892 654 876 611 c 128,-1,49
 860 568 860 568 838 518 c 1,50,51
 874 530 874 530 916 530 c 0,52,53
 1110 530 1110 530 1110 336 c 0,54,55
 1110 260 1110 260 1058 180 c 0,56,57
 1026 126 1026 126 988 98 c 1,58,59
 1012 92 1012 92 1054 92 c 0,60,61
 1164 92 1164 92 1242 182 c 0,62,63
 1278 224 1278 224 1332 376 c 0,64,65
 1398 570 1398 570 1418 606 c 1,66,67
 1332 616 1332 616 1274 660 c 0,68,69
 1204 714 1204 714 1204 802 c 0,70,71
 1204 848 1204 848 1224 902 c 0,72,73
 1308 1140 1308 1140 1720 1140 c 0,74,75
 1858 1140 1858 1140 1957 1103 c 128,-1,76
 2056 1066 2056 1066 2056 976 c 0,77,78
 2056 902 2056 902 1968 852 c 128,-1,79
 1880 802 1880 802 1760 802 c 0,80,81
 1672 802 1672 802 1606 844 c 0,82,83
 1532 892 1532 892 1532 986 c 1,84,85
 1428 920 1428 920 1416 812 c 1,86,87
 1416 764 1416 764 1425 734 c 128,-1,88
 1434 704 1434 704 1460 678 c 1,89,90
 1536 782 1536 782 1628 782 c 0,91,92
 1670 782 1670 782 1692 777 c 128,-1,93
 1714 772 1714 772 1744 754 c 1,94,95
 1684 700 1684 700 1578 452 c 2,96,-1
 1450 144 l 1,97,98
 1368 -24 1368 -24 1198 -24 c 0,99,100
 1092 -24 1092 -24 956 8 c 1,0,-1
1830 978 m 1,101,102
 1830 1048 1830 1048 1752 1048 c 1,103,-1
 1700 1044 l 1,104,105
 1656 1018 1656 1018 1656 970 c 0,106,107
 1656 908 1656 908 1732 908 c 0,108,109
 1758 908 1758 908 1792 926 c 128,-1,110
 1826 944 1826 944 1830 978 c 1,101,102
EndSplineSet
Ligature2: "'abvs' Above Base Substitutions lookup 6 subtable" tm_nga tm_iikaar
EndChar

